;PTH Drill file created by EasyEDA 
M48
METRIC,LZ,000.000
;Holesize 1 = 0.500 METRIC
T01C0.500
;Holesize 2 = 0.501 METRIC
T02C0.501
;Holesize 3 = 0.712 METRIC
T03C0.712
;Holesize 4 = 0.762 METRIC
T04C0.762
;Holesize 5 = 0.803 METRIC
T05C0.803
;Holesize 6 = 0.813 METRIC
T06C0.813
;Holesize 7 = 0.900 METRIC
T07C0.900
;Holesize 8 = 0.915 METRIC
T08C0.915
;Holesize 9 = 1.000 METRIC
T09C1.000
;Holesize 10 = 1.016 METRIC
T10C1.016
;Holesize 11 = 1.067 METRIC
T11C1.067
;Holesize 12 = 1.101 METRIC
T12C1.101
;Holesize 13 = 1.200 METRIC
T13C1.200
;Holesize 14 = 1.301 METRIC
T14C1.301
;Holesize 15 = 1.501 METRIC
T15C1.501
%
G05
G90
T01
X+105151Y+050039G85X+105151Y+050039
X+105151Y+047499G85X+105151Y+047499
T02
X+123949Y+049277
X+132074Y+049280
X+140202Y+049280
X+148330Y+049280
X+156458Y+049280
X+164586Y+049280
X+172714Y+049280
X+180844Y+049278
X+159005Y+038098
X+047244Y+040131
X+075183Y+039115
X+103125Y+038098
X+131063Y+038099
X+187197Y+038099
X+215137Y+038099
X+243077Y+038099
X+040387Y+020572
X+039374Y+019300
X+038358Y+018284
X+068835Y+020826
X+067819Y+019556
X+066803Y+018286
X+096775Y+020826
X+095761Y+019554
X+094743Y+018286
X+124715Y+020826
X+123699Y+019556
X+122683Y+018286
X+236729Y+020572
X+235715Y+019300
X+234697Y+018032
X+208789Y+020826
X+207773Y+019556
X+206759Y+018284
X+180595Y+020826
X+178565Y+018284
X+152655Y+020826
X+151639Y+019556
X+150623Y+018286
X+236727Y+036067
X+208789Y+036066
X+180593Y+036067
X+124713Y+036067
X+152653Y+036067
X+096773Y+036067
X+068833Y+036067
X+040386Y+036067
X+039367Y+035053
X+235711Y+035051
X+038351Y+034037
X+234697Y+034034
X+104647Y+035051
X+094741Y+034035
X+207773Y+035050
X+206757Y+034034
X+179577Y+035051
X+178561Y+034035
X+179579Y+019556
X+067817Y+035051
X+095757Y+035051
X+151637Y+035051
X+150621Y+034035
X+123697Y+035051
X+122681Y+034035
X+066801Y+034035
X+239015Y+030986
X+247653Y+029968
X+249175Y+028954
X+060705Y+037083
X+060707Y+013714
X+088901Y+013714
X+116587Y+013714
X+144527Y+013460
X+172721Y+013460
X+200659Y+013716
X+228601Y+013460
X+257047Y+037083
X+257049Y+013206
X+228599Y+037083
X+200659Y+037083
X+172719Y+037083
X+144525Y+037083
X+116585Y+037083
X+088899Y+037083
X+133605Y+026922
X+128527Y+026922
X+105665Y+026922
X+100587Y+026922
X+077725Y+026922
X+072645Y+026922
X+044704Y+026924
X+049786Y+026922
X+219711Y+029970
X+210823Y+030984
X+221233Y+028956
X+182629Y+030984
X+191771Y+029970
X+193293Y+028956
X+154941Y+030986
X+163831Y+029970
X+165353Y+028956
X+127003Y+030984
X+135639Y+029967
X+128523Y+033019
X+133603Y+032003
X+137415Y+028954
X+099061Y+030986
X+107953Y+029968
X+100583Y+033019
X+105663Y+032003
X+109219Y+028956
X+071122Y+030986
X+079758Y+029970
X+072643Y+033019
X+077725Y+032002
X+081279Y+028956
X+053342Y+028954
X+049784Y+032004
X+044704Y+033019
X+051820Y+029968
X+042928Y+030986
X+041912Y+005586
X+043434Y+004572
X+045720Y+003556
X+048514Y+002540
X+050804Y+001521
X+021844Y+041909
X+022857Y+050293
X+020828Y+033781
X+019814Y+024890
X+018796Y+015748
X+017780Y+007112
X+006855Y+042165
X+007871Y+050547
X+005839Y+033783
X+004823Y+024893
X+003810Y+015748
X+002791Y+007367
X+113791Y+034035
X+161543Y+026924
X+156463Y+026924
X+156463Y+033019
X+161545Y+032002
X+189737Y+026924
X+184657Y+026924
X+184657Y+033019
X+189737Y+032003
X+217677Y+026924
X+212597Y+026924
X+212597Y+033019
X+217677Y+032003
X+245638Y+026945
X+240560Y+026945
X+240537Y+033019
X+245617Y+032003
X+052324Y+006604
X+069885Y+005610
X+071407Y+004595
X+073693Y+003579
X+076487Y+002563
X+078777Y+001544
X+080297Y+006627
X+097789Y+005588
X+099565Y+004573
X+101851Y+003557
X+104391Y+002541
X+106681Y+001522
X+108201Y+006605
X+125727Y+005589
X+127507Y+004571
X+129793Y+003556
X+132335Y+002538
X+134873Y+001524
X+136329Y+006698
X+153921Y+005589
X+155540Y+004506
X+157826Y+003490
X+160620Y+002474
X+162911Y+001455
X+164337Y+006604
X+181863Y+005588
X+183387Y+004572
X+185675Y+003554
X+188469Y+002538
X+190753Y+001524
X+192277Y+006604
X+209805Y+005586
X+211327Y+004572
X+213613Y+003556
X+216407Y+002540
X+218693Y+001524
X+220219Y+006602
X+237743Y+005588
X+239521Y+004572
X+241553Y+003556
X+244601Y+002540
X+247141Y+001524
X+248411Y+006604
X+237745Y+027938
X+070104Y+027940
X+041402Y+027940
X+209804Y+027939
X+097792Y+027940
X+125730Y+027939
X+153670Y+027939
X+181610Y+027939
X+028191Y+056135
X+007871Y+055119
X+022855Y+056137
X+019807Y+058422
X+002791Y+064009
X+017775Y+057152
X+029461Y+057151
X+018793Y+054103
X+004821Y+066550
X+003805Y+065280
X+006853Y+069344
X+005837Y+068074
X+025400Y+055117
X+024381Y+054103
X+022855Y+058422
X+086865Y+052579
X+086867Y+056895
X+124713Y+069087
X+123693Y+070106
X+122677Y+071122
X+054353Y+036067
X+063751Y+035051
X+071371Y+034035
X+070612Y+065277
X+068072Y+066293
X+055369Y+067565
T03
X+220217Y+062483
X+220217Y+057403
X+187449Y+068073
X+187449Y+062993
X+063757Y+044446
X+061469Y+044448
X+059183Y+044448
X+054359Y+044446
X+052071Y+044448
X+049785Y+044448
X+072647Y+044446
X+070359Y+044448
X+068073Y+044448
X+240789Y+072391
X+240789Y+077471
T04
X+233930Y+048678
X+236470Y+051218
X+233930Y+053758
T05
X+080773Y+060450
X+078233Y+060450
X+075693Y+060450
X+073153Y+060450
X+070613Y+060450
X+068073Y+060450
X+065533Y+060450
X+062993Y+060450
X+060453Y+060450
X+057913Y+060450
X+055373Y+060450
X+052833Y+060450
X+050293Y+060450
X+047753Y+060450
X+047753Y+052830
X+050293Y+052830
X+052833Y+052830
X+055373Y+052830
X+057913Y+052830
X+060453Y+052830
X+062993Y+052830
X+065533Y+052830
X+068073Y+052830
X+070613Y+052830
X+073153Y+052830
X+075693Y+052830
X+078233Y+052830
X+080773Y+052830
T06
X+226060Y+069086
X+226060Y+066546
X+226060Y+064006
X+226060Y+061466
X+233680Y+061466
X+233680Y+064006
X+233680Y+066546
X+233680Y+069086
X+038353Y+076198
X+035813Y+076198
X+023113Y+076198
X+020573Y+076198
X+033273Y+076198
X+030733Y+076198
X+025653Y+076198
X+028193Y+076198
X+018033Y+076198
X+015493Y+076198
X+012953Y+076198
X+010413Y+076198
X+010413Y+060958
X+012953Y+060958
X+015493Y+060958
X+018033Y+060958
X+020573Y+060958
X+023113Y+060958
X+025653Y+060958
X+028193Y+060958
X+030733Y+060958
X+033273Y+060958
X+035813Y+060958
X+038353Y+060958
X+172716Y+074930
X+170176Y+074930
X+157476Y+074930
X+154936Y+074930
X+167636Y+074930
X+165096Y+074930
X+160016Y+074930
X+162556Y+074930
X+154936Y+067310
X+157476Y+067310
X+160016Y+067310
X+162556Y+067310
X+165096Y+067310
X+167636Y+067310
X+170176Y+067310
X+172716Y+067310
X+100330Y+047496
X+100330Y+050036
X+100330Y+052576
X+100330Y+055116
X+092710Y+055116
X+092710Y+052576
X+092710Y+050036
X+092710Y+047496
T07
X+216150Y+048678
X+226310Y+048678
X+226308Y+053759
X+216148Y+053759
X+226059Y+072389
X+236219Y+072389
T08
X+215141Y+019212
X+217701Y+018582
X+219670Y+016832
X+220602Y+014373
X+220282Y+011762
X+218791Y+009593
X+216462Y+008373
X+213820Y+008373
X+211491Y+009593
X+210000Y+011762
X+209680Y+014373
X+210612Y+016832
X+212581Y+018582
X+187141Y+019212
X+189701Y+018582
X+191670Y+016832
X+192602Y+014373
X+192282Y+011762
X+190791Y+009593
X+188462Y+008373
X+185820Y+008373
X+183491Y+009593
X+182000Y+011762
X+181680Y+014373
X+182612Y+016832
X+184581Y+018582
X+159141Y+019212
X+161701Y+018582
X+163670Y+016832
X+164602Y+014373
X+164282Y+011762
X+162791Y+009593
X+160462Y+008373
X+157820Y+008373
X+155491Y+009593
X+154000Y+011762
X+153680Y+014373
X+154612Y+016832
X+156581Y+018582
X+131141Y+019212
X+133702Y+018582
X+135670Y+016832
X+136602Y+014373
X+136282Y+011762
X+134791Y+009593
X+132462Y+008373
X+129820Y+008373
X+127491Y+009593
X+126000Y+011762
X+125680Y+014373
X+126612Y+016832
X+128581Y+018582
X+075141Y+019212
X+077702Y+018582
X+079670Y+016832
X+080602Y+014373
X+080282Y+011762
X+078791Y+009593
X+076462Y+008373
X+073821Y+008373
X+071491Y+009593
X+070000Y+011762
X+069680Y+014373
X+070613Y+016832
X+072581Y+018582
X+047141Y+019212
X+049702Y+018582
X+051670Y+016832
X+052602Y+014373
X+052282Y+011762
X+050791Y+009593
X+048462Y+008373
X+045821Y+008373
X+043491Y+009593
X+042000Y+011762
X+041680Y+014373
X+042613Y+016832
X+044581Y+018582
X+103141Y+019212
X+105702Y+018582
X+107670Y+016832
X+108602Y+014373
X+108282Y+011762
X+106791Y+009593
X+104462Y+008373
X+101820Y+008373
X+099491Y+009593
X+098000Y+011762
X+097680Y+014373
X+098612Y+016832
X+100581Y+018582
X+243141Y+019212
X+245701Y+018582
X+247670Y+016832
X+248602Y+014373
X+248282Y+011762
X+246791Y+009593
X+244462Y+008373
X+241820Y+008373
X+239491Y+009593
X+238000Y+011762
X+237680Y+014373
X+238612Y+016832
X+240581Y+018582
X+257301Y+064007
X+257301Y+060959
X+257301Y+067055
X+208279Y+051307
X+208279Y+046227
X+214629Y+064007
X+206501Y+064007
T09
X+180807Y+046227
X+178267Y+046227
X+175727Y+046227
X+175802Y+057662
X+178342Y+057662
X+180882Y+057662
X+167674Y+057662
X+170214Y+057662
X+172754Y+057662
X+159546Y+057662
X+162086Y+057662
X+164626Y+057662
X+151418Y+057662
X+153958Y+057662
X+156498Y+057662
X+143290Y+057662
X+145830Y+057662
X+148370Y+057662
X+135163Y+057662
X+137703Y+057662
X+140243Y+057662
X+127037Y+057660
X+129577Y+057660
X+132117Y+057660
X+118909Y+057659
X+121449Y+057659
X+123989Y+057659
X+172677Y+046229
X+170137Y+046229
X+167597Y+046229
X+164549Y+046229
X+162009Y+046229
X+159469Y+046229
X+156421Y+046229
X+153881Y+046229
X+151341Y+046229
X+148293Y+046229
X+145753Y+046229
X+143213Y+046229
X+140165Y+046229
X+137625Y+046229
X+135085Y+046229
X+132039Y+046227
X+129499Y+046227
X+126959Y+046227
X+123914Y+046225
X+121374Y+046225
X+118834Y+046225
X+014986Y+053299
X+014986Y+050759
X+014986Y+048219
X+014983Y+044665
X+014983Y+042125
X+014983Y+039585
X+029715Y+053301
X+029715Y+050761
X+029715Y+048221
X+029713Y+044666
X+029713Y+042126
X+029713Y+039586
X+014986Y+036281
X+014986Y+033741
X+014986Y+031201
X+014986Y+027391
X+014986Y+024851
X+014986Y+022311
X+029715Y+018503
X+029715Y+015963
X+029715Y+013423
X+014983Y+018249
X+014983Y+015709
X+014983Y+013169
X+029715Y+009613
X+029715Y+007073
X+029715Y+004533
X+014983Y+009613
X+014983Y+007073
X+014983Y+004533
X+029715Y+027393
X+029715Y+024853
X+029715Y+022313
X+029718Y+036281
X+029718Y+033741
X+029718Y+031201
X+199427Y+072899
X+201967Y+072899
X+204507Y+072899
X+248663Y+076455
X+248663Y+072955
X+088488Y+071246
X+094487Y+071246
X+088488Y+075247
X+094487Y+075247
X+051407Y+071396
X+057407Y+071396
X+051407Y+075397
X+057407Y+075397
X+063597Y+071398
X+069597Y+071398
X+063597Y+075398
X+069597Y+075398
X+239775Y+042163
X+197103Y+043687
X+116837Y+077979
X+096517Y+060707
X+116839Y+062483
T10
X+181101Y+075945
X+178561Y+075945
T11
X+191640Y+076074
X+193926Y+076074
X+196211Y+076073
T12
X+084583Y+072639
X+082042Y+072643
X+079502Y+072643
X+076962Y+072643
X+074422Y+072643
X+107185Y+069852
X+107185Y+061851
X+223009Y+072391
X+215389Y+072391
T13
X+246381Y+051083G85X+246381Y+048985
X+250427Y+054581G85X+248329Y+054581
X+252731Y+048985G85X+252731Y+051083
X+204721Y+054865
X+196974Y+054865
T14
X+199898Y+066419
X+199897Y+061340
X+199897Y+063880
T15
X+257301Y+057403
X+257301Y+070357
M30
