G04 ---------------------------- Layer name :TOP PASTER LAYER*
G04 EasyEDA v5.8.20, Sun, 02 Dec 2018 16:16:23 GMT*
G04 d22fb70d7412471b8286d7b1cf1715de*
G04 Gerber Generator version 0.2*
G04 Scale: 100 percent, Rotated: No, Reflected: No *
G04 Dimensions in millimeters *
G04 leading zeros omitted , absolute positions ,3 integer and 3 decimal *
%FSLAX33Y33*%
%MOMM*%
G90*
G71D02*

%ADD16R,1.099998X0.999998*%
%ADD17R,0.999998X1.099998*%
%ADD18R,1.600200X1.800860*%
%ADD19R,0.990600X1.092200*%
%ADD20R,0.914400X1.016000*%
%ADD21R,1.016000X0.914400*%
%ADD22R,2.199996X1.099998*%

%LPD*%
G54D16*
G01X86868Y60601D03*
G01X86868Y59202D03*
G01X90427Y60599D03*
G01X90427Y59199D03*
G54D17*
G01X187344Y73663D03*
G01X185945Y73663D03*
G54D18*
G01X244224Y66545D03*
G01X241430Y66545D03*
G01X244224Y68323D03*
G01X241430Y68323D03*
G01X244224Y64767D03*
G01X241430Y64767D03*
G01X244226Y62987D03*
G01X241432Y62987D03*
G01X244224Y61211D03*
G01X241430Y61211D03*
G54D17*
G01X178206Y68326D03*
G01X176807Y68326D03*
G54D16*
G01X41906Y76554D03*
G01X41906Y77953D03*
G54D17*
G01X64108Y63754D03*
G01X65508Y63754D03*
G54D16*
G01X92704Y42772D03*
G01X92704Y44171D03*
G54D19*
G01X76426Y44248D03*
G01X76426Y42546D03*
G54D16*
G01X76451Y48412D03*
G01X76451Y47012D03*
G54D20*
G01X179834Y51561D03*
G01X178305Y51561D03*
G01X171630Y51565D03*
G01X170101Y51565D03*
G01X163431Y51565D03*
G01X161902Y51565D03*
G01X155445Y51565D03*
G01X153916Y51565D03*
G01X147317Y51565D03*
G01X145788Y51565D03*
G01X139189Y51565D03*
G01X137660Y51565D03*
G01X131064Y51563D03*
G01X129535Y51563D03*
G01X122682Y51563D03*
G01X121153Y51563D03*
G54D21*
G01X175765Y41913D03*
G01X175765Y40384D03*
G01X167637Y41913D03*
G01X167637Y40384D03*
G01X159509Y41913D03*
G01X159509Y40384D03*
G01X151381Y41913D03*
G01X151381Y40384D03*
G01X143256Y41911D03*
G01X143256Y40382D03*
G01X134874Y42165D03*
G01X134874Y40636D03*
G01X126997Y41913D03*
G01X126997Y40384D03*
G01X118869Y41913D03*
G01X118869Y40384D03*
G01X240541Y23869D03*
G01X240541Y25398D03*
G01X245618Y23872D03*
G01X245618Y25401D03*
G01X212601Y23869D03*
G01X212601Y25398D03*
G01X217678Y23872D03*
G01X217678Y25401D03*
G01X184661Y23869D03*
G01X184661Y25398D03*
G01X189738Y23872D03*
G01X189738Y25401D03*
G01X156467Y23869D03*
G01X156467Y25398D03*
G01X161544Y23872D03*
G01X161544Y25401D03*
G01X128527Y23869D03*
G01X128527Y25398D03*
G01X133604Y23872D03*
G01X133604Y25401D03*
G01X100584Y23872D03*
G01X100584Y25401D03*
G01X105664Y23872D03*
G01X105664Y25401D03*
G01X77724Y23872D03*
G01X77724Y25401D03*
G01X44704Y23872D03*
G01X44704Y25401D03*
G01X49787Y23869D03*
G01X49787Y25398D03*
G01X72644Y23872D03*
G01X72644Y25401D03*
G54D20*
G01X179834Y53593D03*
G01X178305Y53593D03*
G01X171628Y53597D03*
G01X170099Y53597D03*
G01X163429Y53597D03*
G01X161900Y53597D03*
G01X155445Y53597D03*
G01X153916Y53597D03*
G01X147320Y53595D03*
G01X145791Y53595D03*
G01X139189Y53597D03*
G01X137660Y53597D03*
G01X131061Y53597D03*
G01X129532Y53597D03*
G01X122685Y53592D03*
G01X121155Y53592D03*
G01X199205Y13707D03*
G01X197676Y13707D03*
G01X171265Y13455D03*
G01X169736Y13455D03*
G01X59251Y13709D03*
G01X57722Y13709D03*
G01X143073Y13450D03*
G01X141544Y13450D03*
G01X115065Y13714D03*
G01X113535Y13714D03*
G01X87379Y13714D03*
G01X85849Y13714D03*
G01X255273Y13206D03*
G01X253743Y13206D03*
G01X227140Y13455D03*
G01X225610Y13455D03*
G54D22*
G01X217592Y12110D03*
G01X217592Y13709D03*
G01X217592Y15308D03*
G01X212689Y15308D03*
G01X212689Y13709D03*
G01X212689Y12110D03*
G01X245593Y12110D03*
G01X245593Y13709D03*
G01X245593Y15308D03*
G01X240690Y15308D03*
G01X240690Y13709D03*
G01X240690Y12110D03*
G01X189593Y12110D03*
G01X189593Y13709D03*
G01X189593Y15308D03*
G01X184691Y15308D03*
G01X184691Y13709D03*
G01X184691Y12110D03*
G01X105593Y12110D03*
G01X105593Y13709D03*
G01X105593Y15308D03*
G01X100691Y15308D03*
G01X100691Y13709D03*
G01X100691Y12110D03*
G01X161592Y12110D03*
G01X161592Y13709D03*
G01X161592Y15308D03*
G01X156690Y15308D03*
G01X156690Y13709D03*
G01X156690Y12110D03*
G01X133591Y12110D03*
G01X133591Y13709D03*
G01X133591Y15308D03*
G01X128689Y15308D03*
G01X128689Y13709D03*
G01X128689Y12110D03*
G01X77592Y12110D03*
G01X77592Y13709D03*
G01X77592Y15308D03*
G01X72690Y15308D03*
G01X72690Y13709D03*
G01X72690Y12110D03*
G01X49594Y12110D03*
G01X49594Y13709D03*
G01X49594Y15308D03*
G01X44691Y15308D03*
G01X44691Y13709D03*
G01X44691Y12110D03*
G54D20*
G01X255273Y11682D03*
G01X253743Y11682D03*
G01X255273Y14730D03*
G01X253743Y14730D03*
G01X227081Y14982D03*
G01X225552Y14982D03*
G01X227076Y11936D03*
G01X225547Y11936D03*
G01X199141Y12188D03*
G01X197612Y12188D03*
G01X199139Y15238D03*
G01X197609Y15238D03*
G01X171199Y14984D03*
G01X169669Y14984D03*
G01X171199Y11936D03*
G01X169669Y11936D03*
G01X143007Y11934D03*
G01X141478Y11934D03*
G01X143005Y14984D03*
G01X141475Y14984D03*
G01X115065Y15246D03*
G01X113535Y15246D03*
G01X115065Y12198D03*
G01X113535Y12198D03*
G01X87379Y12190D03*
G01X85849Y12190D03*
G01X87379Y15238D03*
G01X85849Y15238D03*
G01X59187Y12188D03*
G01X57658Y12188D03*
G01X59185Y15238D03*
G01X57655Y15238D03*
G54D21*
G01X178303Y63760D03*
G01X178303Y62231D03*
G01X170175Y63760D03*
G01X170175Y62231D03*
G01X162047Y63760D03*
G01X162047Y62231D03*
G01X154173Y63760D03*
G01X154173Y62231D03*
G01X145796Y63755D03*
G01X145796Y62226D03*
G01X137917Y63506D03*
G01X137917Y61977D03*
G01X129537Y63757D03*
G01X129537Y62228D03*
G01X121412Y63755D03*
G01X121412Y62226D03*
G54D20*
G01X9649Y50542D03*
G01X11179Y50542D03*
G01X24635Y50288D03*
G01X26165Y50288D03*
G01X9647Y42165D03*
G01X11176Y42165D03*
G01X24633Y41911D03*
G01X26162Y41911D03*
G01X9647Y33783D03*
G01X11176Y33783D03*
G01X9647Y24893D03*
G01X11176Y24893D03*
G01X24635Y15749D03*
G01X26165Y15749D03*
G01X9649Y15645D03*
G01X11179Y15645D03*
G01X24635Y7161D03*
G01X26165Y7161D03*
G01X9649Y7209D03*
G01X11179Y7209D03*
G01X24381Y24890D03*
G01X25911Y24890D03*
G01X24635Y33780D03*
G01X26165Y33780D03*
G54D17*
G01X59794Y49014D03*
G01X61195Y49014D03*
G01X68938Y49014D03*
G01X70339Y49014D03*
G01X50650Y49014D03*
G01X52051Y49014D03*
G01X235356Y57147D03*
G01X233957Y57147D03*
G54D16*
G01X96777Y73812D03*
G01X96777Y72412D03*
G01X49276Y74066D03*
G01X49276Y72666D03*
G01X61214Y74066D03*
G01X61214Y72666D03*
M00*
M02*
