G04 ---------------------------- Layer name :TOP SOLDER LAYER*
G04 EasyEDA v5.8.20, Sun, 02 Dec 2018 16:16:23 GMT*
G04 d22fb70d7412471b8286d7b1cf1715de*
G04 Gerber Generator version 0.2*
G04 Scale: 100 percent, Rotated: No, Reflected: No *
G04 Dimensions in millimeters *
G04 leading zeros omitted , absolute positions ,3 integer and 3 decimal *
%FSLAX33Y33*%
%MOMM*%
G90*
G71D02*

%ADD53C,2.003196*%
%ADD54C,2.203196*%
%ADD55R,1.303198X1.203198*%
%ADD56C,1.816100*%
%ADD57R,1.816100X1.816100*%
%ADD58C,2.082800*%
%ADD59R,1.203198X1.303198*%
%ADD60R,1.903197X1.903197*%
%ADD61C,1.903197*%
%ADD62C,1.727200*%
%ADD63C,1.981200*%
%ADD64C,2.403196*%
%ADD65C,1.203198*%
%ADD66R,1.803400X1.803400*%
%ADD67R,1.414780X2.385060*%
%ADD68R,1.803400X2.004060*%
%ADD69R,1.193800X1.295400*%
%ADD70R,1.602740X2.402840*%
%ADD71R,1.117600X1.219200*%
%ADD72R,1.219200X1.117600*%
%ADD73R,2.403196X1.303198*%
%ADD74R,1.727200X1.727200*%
%ADD75C,1.854200*%
%ADD76C,2.108200*%
%ADD77C,2.362200*%
%ADD78R,2.703195X2.203196*%
%ADD79C,1.803197*%

%LPD*%
G54D53*
G01X246381Y51136D02*
G01X246381Y48936D01*
G01X250478Y54582D02*
G01X248278Y54582D01*
G01X252731Y48936D02*
G01X252731Y51136D01*
G54D54*
G01X200147Y61340D02*
G01X199647Y61340D01*
G01X200147Y63880D02*
G01X199647Y63880D01*
G54D55*
G01X86868Y60601D03*
G01X86868Y59202D03*
G01X90427Y60599D03*
G01X90427Y59199D03*
G54D56*
G01X191640Y76074D03*
G01X193926Y76074D03*
G54D57*
G01X196211Y76073D03*
G54D58*
G01X181101Y75945D03*
G01X178561Y75945D03*
G54D59*
G01X187344Y73663D03*
G01X185945Y73663D03*
G54D60*
G01X84583Y72639D03*
G54D61*
G01X82042Y72643D03*
G01X79502Y72643D03*
G01X76962Y72643D03*
G01X74422Y72643D03*
G54D58*
G01X216150Y48678D03*
G01X226310Y48678D03*
G01X226308Y53759D03*
G01X216148Y53759D03*
G54D62*
G01X215141Y19212D03*
G01X217701Y18582D03*
G01X219670Y16832D03*
G01X220602Y14373D03*
G01X220282Y11762D03*
G01X218791Y9593D03*
G01X216462Y8373D03*
G01X213820Y8373D03*
G01X211491Y9593D03*
G01X210000Y11762D03*
G01X209680Y14373D03*
G01X210612Y16832D03*
G01X212581Y18582D03*
G01X187141Y19212D03*
G01X189701Y18582D03*
G01X191670Y16832D03*
G01X192602Y14373D03*
G01X192282Y11762D03*
G01X190791Y9593D03*
G01X188462Y8373D03*
G01X185820Y8373D03*
G01X183491Y9593D03*
G01X182000Y11762D03*
G01X181680Y14373D03*
G01X182612Y16832D03*
G01X184581Y18582D03*
G01X159141Y19212D03*
G01X161701Y18582D03*
G01X163670Y16832D03*
G01X164602Y14373D03*
G01X164282Y11762D03*
G01X162791Y9593D03*
G01X160462Y8373D03*
G01X157820Y8373D03*
G01X155491Y9593D03*
G01X154000Y11762D03*
G01X153680Y14373D03*
G01X154612Y16832D03*
G01X156581Y18582D03*
G01X131141Y19212D03*
G01X133702Y18582D03*
G01X135670Y16832D03*
G01X136602Y14373D03*
G01X136282Y11762D03*
G01X134791Y9593D03*
G01X132462Y8373D03*
G01X129820Y8373D03*
G01X127491Y9593D03*
G01X126000Y11762D03*
G01X125680Y14373D03*
G01X126612Y16832D03*
G01X128581Y18582D03*
G01X75141Y19212D03*
G01X77702Y18582D03*
G01X79670Y16832D03*
G01X80602Y14373D03*
G01X80282Y11762D03*
G01X78791Y9593D03*
G01X76462Y8373D03*
G01X73821Y8373D03*
G01X71491Y9593D03*
G01X70000Y11762D03*
G01X69680Y14373D03*
G01X70613Y16832D03*
G01X72581Y18582D03*
G01X47141Y19212D03*
G01X49702Y18582D03*
G01X51670Y16832D03*
G01X52602Y14373D03*
G01X52282Y11762D03*
G01X50791Y9593D03*
G01X48462Y8373D03*
G01X45821Y8373D03*
G01X43491Y9593D03*
G01X42000Y11762D03*
G01X41680Y14373D03*
G01X42613Y16832D03*
G01X44581Y18582D03*
G01X103141Y19212D03*
G01X105702Y18582D03*
G01X107670Y16832D03*
G01X108602Y14373D03*
G01X108282Y11762D03*
G01X106791Y9593D03*
G01X104462Y8373D03*
G01X101820Y8373D03*
G01X99491Y9593D03*
G01X98000Y11762D03*
G01X97680Y14373D03*
G01X98612Y16832D03*
G01X100581Y18582D03*
G01X243141Y19212D03*
G01X245701Y18582D03*
G01X247670Y16832D03*
G01X248602Y14373D03*
G01X248282Y11762D03*
G01X246791Y9593D03*
G01X244462Y8373D03*
G01X241820Y8373D03*
G01X239491Y9593D03*
G01X238000Y11762D03*
G01X237680Y14373D03*
G01X238612Y16832D03*
G01X240581Y18582D03*
G54D63*
G01X220217Y62483D03*
G01X220217Y57403D03*
G54D62*
G01X233930Y48678D03*
G01X236470Y51218D03*
G01X233930Y53758D03*
G01X257301Y64007D03*
G01X257301Y60959D03*
G01X257301Y67055D03*
G54D64*
G01X257301Y57403D03*
G01X257301Y70357D03*
G54D65*
G01X105153Y50039D03*
G01X105153Y47499D03*
G54D66*
G01X226060Y69086D03*
G01X226060Y66546D03*
G01X226060Y64006D03*
G01X226060Y61466D03*
G01X233680Y61466D03*
G01X233680Y64006D03*
G01X233680Y66546D03*
G01X233680Y69086D03*
G54D67*
G01X38353Y76198D03*
G01X35813Y76198D03*
G01X23113Y76198D03*
G01X20573Y76198D03*
G01X33273Y76198D03*
G01X30733Y76198D03*
G01X25653Y76198D03*
G01X28193Y76198D03*
G01X18033Y76198D03*
G01X15493Y76198D03*
G01X12953Y76198D03*
G01X10413Y76198D03*
G01X10413Y60958D03*
G01X12953Y60958D03*
G01X15493Y60958D03*
G01X18033Y60958D03*
G01X20573Y60958D03*
G01X23113Y60958D03*
G01X25653Y60958D03*
G01X28193Y60958D03*
G01X30733Y60958D03*
G01X33273Y60958D03*
G01X35813Y60958D03*
G01X38353Y60958D03*
G01X172716Y74930D03*
G01X170176Y74930D03*
G01X157476Y74930D03*
G01X154936Y74930D03*
G01X167636Y74930D03*
G01X165096Y74930D03*
G01X160016Y74930D03*
G01X162556Y74930D03*
G01X154936Y67310D03*
G01X157476Y67310D03*
G01X160016Y67310D03*
G01X162556Y67310D03*
G01X165096Y67310D03*
G01X167636Y67310D03*
G01X170176Y67310D03*
G01X172716Y67310D03*
G54D60*
G01X107185Y69852D03*
G54D61*
G01X107185Y61851D03*
G54D68*
G01X244224Y66545D03*
G01X241430Y66545D03*
G01X244224Y68323D03*
G01X241430Y68323D03*
G01X244224Y64767D03*
G01X241430Y64767D03*
G01X244226Y62987D03*
G01X241432Y62987D03*
G01X244224Y61211D03*
G01X241430Y61211D03*
G54D63*
G01X187449Y68073D03*
G01X187449Y62993D03*
G54D59*
G01X178206Y68326D03*
G01X176807Y68326D03*
G54D55*
G01X41906Y76554D03*
G01X41906Y77953D03*
G54D59*
G01X64108Y63754D03*
G01X65508Y63754D03*
G54D66*
G01X100330Y47496D03*
G01X100330Y50036D03*
G01X100330Y52576D03*
G01X100330Y55116D03*
G01X92710Y55116D03*
G01X92710Y52576D03*
G01X92710Y50036D03*
G01X92710Y47496D03*
G54D55*
G01X92704Y42772D03*
G01X92704Y44171D03*
G54D69*
G01X76426Y44248D03*
G01X76426Y42546D03*
G54D55*
G01X76451Y48412D03*
G01X76451Y47012D03*
G54D70*
G01X80773Y60450D03*
G01X78233Y60450D03*
G01X75693Y60450D03*
G01X73153Y60450D03*
G01X70613Y60450D03*
G01X68073Y60450D03*
G01X65533Y60450D03*
G01X62993Y60450D03*
G01X60453Y60450D03*
G01X57913Y60450D03*
G01X55373Y60450D03*
G01X52833Y60450D03*
G01X50293Y60450D03*
G01X47753Y60450D03*
G01X47753Y52830D03*
G01X50293Y52830D03*
G01X52833Y52830D03*
G01X55373Y52830D03*
G01X57913Y52830D03*
G01X60453Y52830D03*
G01X62993Y52830D03*
G01X65533Y52830D03*
G01X68073Y52830D03*
G01X70613Y52830D03*
G01X73153Y52830D03*
G01X75693Y52830D03*
G01X78233Y52830D03*
G01X80773Y52830D03*
G54D71*
G01X179834Y51561D03*
G01X178305Y51561D03*
G01X171630Y51565D03*
G01X170101Y51565D03*
G01X163431Y51565D03*
G01X161902Y51565D03*
G01X155445Y51565D03*
G01X153916Y51565D03*
G01X147317Y51565D03*
G01X145788Y51565D03*
G01X139189Y51565D03*
G01X137660Y51565D03*
G01X131064Y51563D03*
G01X129535Y51563D03*
G01X122682Y51563D03*
G01X121153Y51563D03*
G54D72*
G01X175765Y41913D03*
G01X175765Y40384D03*
G01X167637Y41913D03*
G01X167637Y40384D03*
G01X159509Y41913D03*
G01X159509Y40384D03*
G01X151381Y41913D03*
G01X151381Y40384D03*
G01X143256Y41911D03*
G01X143256Y40382D03*
G01X134874Y42165D03*
G01X134874Y40636D03*
G01X126997Y41913D03*
G01X126997Y40384D03*
G01X118869Y41913D03*
G01X118869Y40384D03*
G01X240541Y23869D03*
G01X240541Y25398D03*
G01X245618Y23872D03*
G01X245618Y25401D03*
G01X212601Y23869D03*
G01X212601Y25398D03*
G01X217678Y23872D03*
G01X217678Y25401D03*
G01X184661Y23869D03*
G01X184661Y25398D03*
G01X189738Y23872D03*
G01X189738Y25401D03*
G01X156467Y23869D03*
G01X156467Y25398D03*
G01X161544Y23872D03*
G01X161544Y25401D03*
G01X128527Y23869D03*
G01X128527Y25398D03*
G01X133604Y23872D03*
G01X133604Y25401D03*
G01X100584Y23872D03*
G01X100584Y25401D03*
G01X105664Y23872D03*
G01X105664Y25401D03*
G01X77724Y23872D03*
G01X77724Y25401D03*
G01X44704Y23872D03*
G01X44704Y25401D03*
G01X49787Y23869D03*
G01X49787Y25398D03*
G01X72644Y23872D03*
G01X72644Y25401D03*
G54D71*
G01X179834Y53593D03*
G01X178305Y53593D03*
G01X171628Y53597D03*
G01X170099Y53597D03*
G01X163429Y53597D03*
G01X161900Y53597D03*
G01X155445Y53597D03*
G01X153916Y53597D03*
G01X147320Y53595D03*
G01X145791Y53595D03*
G01X139189Y53597D03*
G01X137660Y53597D03*
G01X131061Y53597D03*
G01X129532Y53597D03*
G01X122685Y53592D03*
G01X121155Y53592D03*
G01X199205Y13707D03*
G01X197676Y13707D03*
G01X171265Y13455D03*
G01X169736Y13455D03*
G01X59251Y13709D03*
G01X57722Y13709D03*
G01X143073Y13450D03*
G01X141544Y13450D03*
G01X115065Y13714D03*
G01X113535Y13714D03*
G01X87379Y13714D03*
G01X85849Y13714D03*
G01X255273Y13206D03*
G01X253743Y13206D03*
G01X227140Y13455D03*
G01X225610Y13455D03*
G54D73*
G01X217592Y12110D03*
G01X217592Y13709D03*
G01X217592Y15308D03*
G01X212689Y15308D03*
G01X212689Y13709D03*
G01X212689Y12110D03*
G01X245593Y12110D03*
G01X245593Y13709D03*
G01X245593Y15308D03*
G01X240690Y15308D03*
G01X240690Y13709D03*
G01X240690Y12110D03*
G01X189593Y12110D03*
G01X189593Y13709D03*
G01X189593Y15308D03*
G01X184691Y15308D03*
G01X184691Y13709D03*
G01X184691Y12110D03*
G01X105593Y12110D03*
G01X105593Y13709D03*
G01X105593Y15308D03*
G01X100691Y15308D03*
G01X100691Y13709D03*
G01X100691Y12110D03*
G01X161592Y12110D03*
G01X161592Y13709D03*
G01X161592Y15308D03*
G01X156690Y15308D03*
G01X156690Y13709D03*
G01X156690Y12110D03*
G01X133591Y12110D03*
G01X133591Y13709D03*
G01X133591Y15308D03*
G01X128689Y15308D03*
G01X128689Y13709D03*
G01X128689Y12110D03*
G01X77592Y12110D03*
G01X77592Y13709D03*
G01X77592Y15308D03*
G01X72690Y15308D03*
G01X72690Y13709D03*
G01X72690Y12110D03*
G01X49594Y12110D03*
G01X49594Y13709D03*
G01X49594Y15308D03*
G01X44691Y15308D03*
G01X44691Y13709D03*
G01X44691Y12110D03*
G54D71*
G01X255273Y11682D03*
G01X253743Y11682D03*
G01X255273Y14730D03*
G01X253743Y14730D03*
G01X227081Y14982D03*
G01X225552Y14982D03*
G01X227076Y11936D03*
G01X225547Y11936D03*
G01X199141Y12188D03*
G01X197612Y12188D03*
G01X199139Y15238D03*
G01X197609Y15238D03*
G01X171199Y14984D03*
G01X169669Y14984D03*
G01X171199Y11936D03*
G01X169669Y11936D03*
G01X143007Y11934D03*
G01X141478Y11934D03*
G01X143005Y14984D03*
G01X141475Y14984D03*
G01X115065Y15246D03*
G01X113535Y15246D03*
G01X115065Y12198D03*
G01X113535Y12198D03*
G01X87379Y12190D03*
G01X85849Y12190D03*
G01X87379Y15238D03*
G01X85849Y15238D03*
G01X59187Y12188D03*
G01X57658Y12188D03*
G01X59185Y15238D03*
G01X57655Y15238D03*
G54D61*
G01X180807Y46227D03*
G01X178267Y46227D03*
G01X175727Y46227D03*
G01X175802Y57662D03*
G01X178342Y57662D03*
G01X180882Y57662D03*
G01X167674Y57662D03*
G01X170214Y57662D03*
G01X172754Y57662D03*
G01X159546Y57662D03*
G01X162086Y57662D03*
G01X164626Y57662D03*
G01X151418Y57662D03*
G01X153958Y57662D03*
G01X156498Y57662D03*
G01X143290Y57662D03*
G01X145830Y57662D03*
G01X148370Y57662D03*
G01X135163Y57662D03*
G01X137703Y57662D03*
G01X140243Y57662D03*
G01X127037Y57660D03*
G01X129577Y57660D03*
G01X132117Y57660D03*
G01X118909Y57659D03*
G01X121449Y57659D03*
G01X123989Y57659D03*
G01X172677Y46229D03*
G01X170137Y46229D03*
G01X167597Y46229D03*
G01X164549Y46229D03*
G01X162009Y46229D03*
G01X159469Y46229D03*
G01X156421Y46229D03*
G01X153881Y46229D03*
G01X151341Y46229D03*
G01X148293Y46229D03*
G01X145753Y46229D03*
G01X143213Y46229D03*
G01X140165Y46229D03*
G01X137625Y46229D03*
G01X135085Y46229D03*
G01X132039Y46227D03*
G01X129499Y46227D03*
G01X126959Y46227D03*
G01X123914Y46225D03*
G01X121374Y46225D03*
G01X118834Y46225D03*
G01X14986Y53299D03*
G01X14986Y50759D03*
G01X14986Y48219D03*
G01X14983Y44665D03*
G01X14983Y42125D03*
G01X14983Y39585D03*
G01X29715Y53301D03*
G01X29715Y50761D03*
G01X29715Y48221D03*
G01X29713Y44666D03*
G01X29713Y42126D03*
G01X29713Y39586D03*
G01X14986Y36281D03*
G01X14986Y33741D03*
G01X14986Y31201D03*
G01X14986Y27391D03*
G01X14986Y24851D03*
G01X14986Y22311D03*
G01X29715Y18503D03*
G01X29715Y15963D03*
G01X29715Y13423D03*
G01X14983Y18249D03*
G01X14983Y15709D03*
G01X14983Y13169D03*
G01X29715Y9613D03*
G01X29715Y7073D03*
G01X29715Y4533D03*
G01X14983Y9613D03*
G01X14983Y7073D03*
G01X14983Y4533D03*
G01X29715Y27393D03*
G01X29715Y24853D03*
G01X29715Y22313D03*
G01X29718Y36281D03*
G01X29718Y33741D03*
G01X29718Y31201D03*
G54D74*
G01X63757Y44446D03*
G54D75*
G01X61469Y44448D03*
G01X59183Y44448D03*
G54D74*
G01X54359Y44446D03*
G54D75*
G01X52071Y44448D03*
G01X49785Y44448D03*
G54D74*
G01X72647Y44446D03*
G54D75*
G01X70359Y44448D03*
G01X68073Y44448D03*
G54D76*
G01X223009Y72391D03*
G01X215389Y72391D03*
G54D77*
G01X204721Y54865D03*
G01X196974Y54865D03*
G54D61*
G01X199427Y72899D03*
G01X201967Y72899D03*
G01X204507Y72899D03*
G54D78*
G01X199898Y66419D03*
G54D62*
G01X208279Y51307D03*
G01X208279Y46227D03*
G54D79*
G01X248663Y76455D03*
G01X248663Y72955D03*
G54D63*
G01X240789Y72391D03*
G01X240789Y77471D03*
G54D72*
G01X178303Y63760D03*
G01X178303Y62231D03*
G01X170175Y63760D03*
G01X170175Y62231D03*
G01X162047Y63760D03*
G01X162047Y62231D03*
G01X154173Y63760D03*
G01X154173Y62231D03*
G01X145796Y63755D03*
G01X145796Y62226D03*
G01X137917Y63506D03*
G01X137917Y61977D03*
G01X129537Y63757D03*
G01X129537Y62228D03*
G01X121412Y63755D03*
G01X121412Y62226D03*
G54D71*
G01X9649Y50542D03*
G01X11179Y50542D03*
G01X24635Y50288D03*
G01X26165Y50288D03*
G01X9647Y42165D03*
G01X11176Y42165D03*
G01X24633Y41911D03*
G01X26162Y41911D03*
G01X9647Y33783D03*
G01X11176Y33783D03*
G01X9647Y24893D03*
G01X11176Y24893D03*
G01X24635Y15749D03*
G01X26165Y15749D03*
G01X9649Y15645D03*
G01X11179Y15645D03*
G01X24635Y7161D03*
G01X26165Y7161D03*
G01X9649Y7209D03*
G01X11179Y7209D03*
G01X24381Y24890D03*
G01X25911Y24890D03*
G01X24635Y33780D03*
G01X26165Y33780D03*
G54D59*
G01X59794Y49014D03*
G01X61195Y49014D03*
G01X68938Y49014D03*
G01X70339Y49014D03*
G01X50650Y49014D03*
G01X52051Y49014D03*
G01X235356Y57147D03*
G01X233957Y57147D03*
G54D62*
G01X214629Y64007D03*
G01X206501Y64007D03*
G54D58*
G01X226059Y72389D03*
G01X236219Y72389D03*
G54D55*
G01X96777Y73812D03*
G01X96777Y72412D03*
G54D62*
G01X88488Y71246D03*
G01X94487Y71246D03*
G01X88488Y75247D03*
G01X94487Y75247D03*
G54D55*
G01X49276Y74066D03*
G01X49276Y72666D03*
G54D62*
G01X51407Y71396D03*
G01X57407Y71396D03*
G01X51407Y75397D03*
G01X57407Y75397D03*
G54D55*
G01X61214Y74066D03*
G01X61214Y72666D03*
G54D62*
G01X63597Y71398D03*
G01X69597Y71398D03*
G01X63597Y75398D03*
G01X69597Y75398D03*
G54D79*
G01X239775Y42163D03*
G01X197103Y43687D03*
M00*
M02*
