G04 ---------------------------- Layer name :TOP SILK LAYER*
G04 EasyEDA v5.8.20, Sun, 02 Dec 2018 16:16:23 GMT*
G04 d22fb70d7412471b8286d7b1cf1715de*
G04 Gerber Generator version 0.2*
G04 Scale: 100 percent, Rotated: No, Reflected: No *
G04 Dimensions in millimeters *
G04 leading zeros omitted , absolute positions ,3 integer and 3 decimal *
%FSLAX33Y33*%
%MOMM*%
G90*
G71D02*

%ADD10C,0.254000*%
%ADD11C,0.399999*%
%ADD41C,0.200000*%
%ADD42C,0.200660*%
%ADD43C,0.177800*%
%ADD44C,0.249999*%
%ADD45C,0.150114*%
%ADD46C,0.508000*%
%ADD47C,0.129032*%
%ADD48C,0.228600*%
%ADD49C,0.119990*%
%ADD50C,0.127000*%
%ADD51C,0.149860*%
%ADD52C,0.203200*%

%LPD*%
G54D41*
G01X87668Y59503D02*
G01X87668Y58401D01*
G01X86068Y58401D01*
G01X86068Y59503D01*
G01X87668Y60300D02*
G01X87668Y61403D01*
G01X86667Y61403D01*
G01X86068Y61403D01*
G01X86068Y60300D01*
G01X91227Y59500D02*
G01X91227Y58398D01*
G01X89626Y58398D01*
G01X89626Y59500D01*
G01X91227Y60298D02*
G01X91227Y61400D01*
G01X90226Y61400D01*
G01X89626Y61400D01*
G01X89626Y60298D01*
G54D42*
G01X190525Y75071D02*
G01X190525Y74771D01*
G01X197328Y74771D01*
G01X197328Y75071D02*
G01X197328Y74771D01*
G01X197328Y77171D02*
G01X197277Y77171D01*
G01X197328Y74862D02*
G01X190525Y74862D01*
G01X195118Y77171D02*
G01X194917Y77171D01*
G01X192847Y77171D02*
G01X192646Y77171D01*
G01X190576Y77171D02*
G01X190525Y77171D01*
G54D10*
G01X181737Y74674D02*
G01X180467Y74674D01*
G01X180467Y74674D02*
G01X179832Y75309D01*
G01X179832Y76579D02*
G01X180467Y77214D01*
G01X179832Y75309D02*
G01X179197Y74674D01*
G01X179197Y74674D02*
G01X177927Y74674D01*
G01X177927Y74674D02*
G01X177292Y75309D01*
G01X177292Y76579D02*
G01X177927Y77214D01*
G01X177927Y77214D02*
G01X179197Y77214D01*
G01X179197Y77214D02*
G01X179832Y76579D01*
G01X182372Y75309D02*
G01X182372Y76579D01*
G01X181737Y74674D02*
G01X182372Y75309D01*
G01X182372Y76579D02*
G01X181737Y77214D01*
G01X180467Y77214D02*
G01X181737Y77214D01*
G01X177292Y75309D02*
G01X177292Y76579D01*
G54D41*
G01X186245Y72863D02*
G01X185143Y72863D01*
G01X185143Y74464D01*
G01X186245Y74464D01*
G01X187043Y72863D02*
G01X188145Y72863D01*
G01X188145Y73864D01*
G01X188145Y74464D01*
G01X187043Y74464D01*
G54D10*
G01X86109Y71116D02*
G01X72901Y71116D01*
G01X72901Y74164D01*
G01X86109Y74164D01*
G01X86109Y71116D01*
G01X83315Y71116D02*
G01X83315Y74164D01*
G01X218082Y47484D02*
G01X218082Y49871D01*
G01X218082Y49871D02*
G01X224381Y49871D01*
G01X224381Y49871D02*
G01X224381Y47484D01*
G01X224381Y47484D02*
G01X218082Y47484D01*
G01X224379Y54951D02*
G01X224379Y52564D01*
G01X224379Y52564D02*
G01X218079Y52564D01*
G01X218079Y52564D02*
G01X218079Y54951D01*
G01X218079Y54951D02*
G01X224379Y54951D01*
G54D43*
G01X220218Y55878D02*
G01X217678Y55878D01*
G01X217678Y64006D01*
G01X222758Y64006D01*
G01X222758Y55878D01*
G01X220218Y55878D01*
G54D10*
G01X234947Y47661D02*
G01X230883Y47661D01*
G01X230375Y47661D01*
G01X230375Y48169D01*
G01X230883Y48169D01*
G01X230883Y49185D01*
G01X230375Y49185D01*
G01X230375Y50709D01*
G01X230883Y50709D01*
G01X230883Y51725D01*
G01X230375Y51725D01*
G01X230375Y53249D01*
G01X230883Y53249D01*
G01X230883Y54265D01*
G01X230375Y54265D01*
G01X230375Y54773D01*
G01X230883Y54773D01*
G01X234439Y54773D01*
G01X237487Y54773D01*
G01X237487Y47661D01*
G01X234439Y47661D01*
G01X233931Y50201D02*
G01X233931Y52233D01*
G01X232915Y51217D02*
G01X234947Y51217D01*
G01X260096Y57401D02*
G01X254508Y57401D01*
G01X254508Y70355D01*
G01X260096Y70355D01*
G01X260096Y67053D01*
G01X265684Y67053D01*
G01X265684Y64005D01*
G01X260096Y64005D01*
G01X260096Y57401D01*
G01X259334Y67053D02*
G01X259334Y64005D01*
G01X265176Y66799D02*
G01X264922Y66545D01*
G01X264668Y66291D01*
G01X265176Y65783D01*
G01X264668Y65275D01*
G01X265176Y64767D01*
G01X264668Y64259D01*
G01X260148Y45589D02*
G01X245998Y45589D01*
G01X260148Y45582D02*
G01X260148Y54581D01*
G01X260148Y54581D02*
G01X245998Y54581D01*
G01X245975Y45589D02*
G01X245975Y54588D01*
G01X257125Y45589D02*
G01X257125Y54588D01*
G01X234950Y60196D02*
G01X234950Y70356D01*
G01X224790Y70356D02*
G01X224790Y60196D01*
G01X234950Y60196D02*
G01X232410Y60196D01*
G01X234950Y70356D02*
G01X232410Y70356D01*
G01X224790Y70356D02*
G01X227330Y70356D01*
G01X232410Y70356D02*
G01X232410Y60196D01*
G01X232410Y70356D02*
G01X230886Y70356D01*
G01X232410Y60196D02*
G01X227330Y60196D01*
G01X227330Y70356D02*
G01X227330Y60196D01*
G01X227330Y70356D02*
G01X228854Y70356D01*
G01X227330Y60196D02*
G01X224790Y60196D01*
G01X39624Y61847D02*
G01X39624Y67562D01*
G01X39624Y75309D02*
G01X39624Y69594D01*
G01X39624Y75309D02*
G01X9144Y75309D01*
G01X9144Y61847D02*
G01X9144Y75309D01*
G01X9144Y61847D02*
G01X39624Y61847D01*
G01X154023Y68197D02*
G01X153667Y68197D01*
G01X153667Y74039D01*
G01X154023Y74039D01*
G01X173530Y68197D02*
G01X173987Y68197D01*
G01X173987Y70102D01*
G01X173530Y74039D02*
G01X173987Y74039D01*
G01X173987Y72134D01*
G01X171828Y68197D02*
G01X170990Y68197D01*
G01X169288Y68197D02*
G01X168450Y68197D01*
G01X166748Y68197D02*
G01X165910Y68197D01*
G01X164208Y68197D02*
G01X163370Y68197D01*
G01X161668Y68197D02*
G01X160830Y68197D01*
G01X159128Y68197D02*
G01X158290Y68197D01*
G01X156588Y68197D02*
G01X155750Y68197D01*
G01X156588Y74039D02*
G01X155750Y74039D01*
G01X159128Y74039D02*
G01X158290Y74039D01*
G01X161668Y74039D02*
G01X160830Y74039D01*
G01X164208Y74039D02*
G01X163370Y74039D01*
G01X166748Y74039D02*
G01X165910Y74039D01*
G01X169288Y74039D02*
G01X168450Y74039D01*
G01X171828Y74039D02*
G01X170990Y74039D01*
G54D44*
G01X109184Y60852D02*
G01X105186Y60852D01*
G01X109184Y62350D02*
G01X109184Y60852D01*
G01X105186Y62350D02*
G01X105186Y60852D01*
G54D43*
G01X187449Y61466D02*
G01X184909Y61466D01*
G01X184909Y69594D01*
G01X189989Y69594D01*
G01X189989Y61466D01*
G01X187449Y61466D01*
G54D41*
G01X177107Y67524D02*
G01X176007Y67524D01*
G01X176007Y69124D01*
G01X177107Y69124D01*
G01X177907Y67524D02*
G01X179006Y67524D01*
G01X179006Y68525D01*
G01X179006Y69124D01*
G01X177907Y69124D01*
G01X41107Y77654D02*
G01X41107Y78754D01*
G01X42708Y78754D01*
G01X42708Y77654D01*
G01X41107Y76854D02*
G01X41107Y75754D01*
G01X42106Y75754D01*
G01X42708Y75754D01*
G01X42708Y76854D01*
G01X65207Y64555D02*
G01X66307Y64555D01*
G01X66307Y62955D01*
G01X65207Y62955D01*
G01X64407Y64555D02*
G01X63307Y64555D01*
G01X63307Y63554D01*
G01X63307Y62955D01*
G01X64407Y62955D01*
G54D10*
G01X91440Y56386D02*
G01X91440Y46226D01*
G01X101600Y46226D02*
G01X101600Y56386D01*
G01X91440Y56386D02*
G01X93980Y56386D01*
G01X91440Y46226D02*
G01X93980Y46226D01*
G01X101600Y46226D02*
G01X99060Y46226D01*
G01X93980Y46226D02*
G01X93980Y56386D01*
G01X93980Y46226D02*
G01X95504Y46226D01*
G01X93980Y56386D02*
G01X99060Y56386D01*
G01X99060Y46226D02*
G01X99060Y56386D01*
G01X99060Y46226D02*
G01X97536Y46226D01*
G01X99060Y56386D02*
G01X101600Y56386D01*
G54D41*
G01X91905Y43872D02*
G01X91905Y44972D01*
G01X93505Y44972D01*
G01X93505Y43872D01*
G01X91905Y43072D02*
G01X91905Y41972D01*
G01X92903Y41972D01*
G01X93505Y41972D01*
G01X93505Y43072D01*
G54D10*
G01X75562Y45162D02*
G01X75562Y43689D01*
G01X77290Y45162D02*
G01X77290Y43689D01*
G01X77290Y45162D02*
G01X75562Y45162D01*
G01X75562Y43105D02*
G01X75562Y41936D01*
G01X77290Y43079D02*
G01X77290Y41936D01*
G01X77290Y41936D02*
G01X76934Y41581D01*
G01X75918Y41581D01*
G01X75562Y41936D01*
G54D45*
G01X76807Y43536D02*
G01X76020Y43536D01*
G01X76274Y43282D01*
G01X76629Y43282D01*
G01X76883Y43536D01*
G01X76655Y43536D01*
G01X76197Y43409D02*
G01X76705Y43409D01*
G54D41*
G01X77252Y47313D02*
G01X77252Y46211D01*
G01X75651Y46211D01*
G01X75651Y47313D01*
G01X77252Y48111D02*
G01X77252Y49213D01*
G01X76251Y49213D01*
G01X75651Y49213D01*
G01X75651Y48111D01*
G54D46*
G01X81851Y60196D02*
G01X46672Y60196D01*
G01X46672Y53084D02*
G01X81851Y53084D01*
G01X81851Y60196D02*
G01X81851Y53084D01*
G01X46672Y53084D02*
G01X46672Y60196D01*
G54D47*
G01X179638Y51147D02*
G01X179638Y51975D01*
G01X178501Y51947D02*
G01X178501Y51147D01*
G01X178244Y51975D02*
G01X179895Y51975D01*
G01X179895Y51975D02*
G01X179895Y51147D01*
G01X179895Y51147D02*
G01X178244Y51147D01*
G01X178244Y51147D02*
G01X178244Y51975D01*
G01X171435Y51151D02*
G01X171435Y51979D01*
G01X170297Y51952D02*
G01X170297Y51151D01*
G01X170040Y51979D02*
G01X171691Y51979D01*
G01X171691Y51979D02*
G01X171691Y51151D01*
G01X171691Y51151D02*
G01X170040Y51151D01*
G01X170040Y51151D02*
G01X170040Y51979D01*
G01X163236Y51151D02*
G01X163236Y51979D01*
G01X162098Y51952D02*
G01X162098Y51151D01*
G01X161841Y51979D02*
G01X163492Y51979D01*
G01X163492Y51979D02*
G01X163492Y51151D01*
G01X163492Y51151D02*
G01X161841Y51151D01*
G01X161841Y51151D02*
G01X161841Y51979D01*
G01X155250Y51151D02*
G01X155250Y51979D01*
G01X154112Y51952D02*
G01X154112Y51151D01*
G01X153855Y51979D02*
G01X155506Y51979D01*
G01X155506Y51979D02*
G01X155506Y51151D01*
G01X155506Y51151D02*
G01X153855Y51151D01*
G01X153855Y51151D02*
G01X153855Y51979D01*
G01X147122Y51151D02*
G01X147122Y51979D01*
G01X145984Y51952D02*
G01X145984Y51151D01*
G01X145727Y51979D02*
G01X147378Y51979D01*
G01X147378Y51979D02*
G01X147378Y51151D01*
G01X147378Y51151D02*
G01X145727Y51151D01*
G01X145727Y51151D02*
G01X145727Y51979D01*
G01X138994Y51151D02*
G01X138994Y51979D01*
G01X137856Y51952D02*
G01X137856Y51151D01*
G01X137599Y51979D02*
G01X139250Y51979D01*
G01X139250Y51979D02*
G01X139250Y51151D01*
G01X139250Y51151D02*
G01X137599Y51151D01*
G01X137599Y51151D02*
G01X137599Y51979D01*
G01X130868Y51149D02*
G01X130868Y51977D01*
G01X129730Y51949D02*
G01X129730Y51149D01*
G01X129474Y51977D02*
G01X131125Y51977D01*
G01X131125Y51977D02*
G01X131125Y51149D01*
G01X131125Y51149D02*
G01X129474Y51149D01*
G01X129474Y51149D02*
G01X129474Y51977D01*
G01X122486Y51149D02*
G01X122486Y51977D01*
G01X121348Y51949D02*
G01X121348Y51149D01*
G01X121092Y51977D02*
G01X122743Y51977D01*
G01X122743Y51977D02*
G01X122743Y51149D01*
G01X122743Y51149D02*
G01X121092Y51149D01*
G01X121092Y51149D02*
G01X121092Y51977D01*
G01X176179Y41718D02*
G01X175351Y41718D01*
G01X175379Y40580D02*
G01X176179Y40580D01*
G01X175351Y40323D02*
G01X175351Y41974D01*
G01X175351Y41974D02*
G01X176179Y41974D01*
G01X176179Y41974D02*
G01X176179Y40323D01*
G01X176179Y40323D02*
G01X175351Y40323D01*
G01X168051Y41718D02*
G01X167223Y41718D01*
G01X167251Y40580D02*
G01X168051Y40580D01*
G01X167223Y40323D02*
G01X167223Y41974D01*
G01X167223Y41974D02*
G01X168051Y41974D01*
G01X168051Y41974D02*
G01X168051Y40323D01*
G01X168051Y40323D02*
G01X167223Y40323D01*
G01X159923Y41718D02*
G01X159095Y41718D01*
G01X159123Y40580D02*
G01X159923Y40580D01*
G01X159095Y40323D02*
G01X159095Y41974D01*
G01X159095Y41974D02*
G01X159923Y41974D01*
G01X159923Y41974D02*
G01X159923Y40323D01*
G01X159923Y40323D02*
G01X159095Y40323D01*
G01X151795Y41718D02*
G01X150967Y41718D01*
G01X150995Y40580D02*
G01X151795Y40580D01*
G01X150967Y40323D02*
G01X150967Y41974D01*
G01X150967Y41974D02*
G01X151795Y41974D01*
G01X151795Y41974D02*
G01X151795Y40323D01*
G01X151795Y40323D02*
G01X150967Y40323D01*
G01X143670Y41715D02*
G01X142842Y41715D01*
G01X142870Y40577D02*
G01X143670Y40577D01*
G01X142842Y40321D02*
G01X142842Y41972D01*
G01X142842Y41972D02*
G01X143670Y41972D01*
G01X143670Y41972D02*
G01X143670Y40321D01*
G01X143670Y40321D02*
G01X142842Y40321D01*
G01X135288Y41969D02*
G01X134460Y41969D01*
G01X134488Y40831D02*
G01X135288Y40831D01*
G01X134460Y40575D02*
G01X134460Y42226D01*
G01X134460Y42226D02*
G01X135288Y42226D01*
G01X135288Y42226D02*
G01X135288Y40575D01*
G01X135288Y40575D02*
G01X134460Y40575D01*
G01X127411Y41718D02*
G01X126583Y41718D01*
G01X126611Y40580D02*
G01X127411Y40580D01*
G01X126583Y40323D02*
G01X126583Y41974D01*
G01X126583Y41974D02*
G01X127411Y41974D01*
G01X127411Y41974D02*
G01X127411Y40323D01*
G01X127411Y40323D02*
G01X126583Y40323D01*
G01X119283Y41718D02*
G01X118455Y41718D01*
G01X118483Y40580D02*
G01X119283Y40580D01*
G01X118455Y40323D02*
G01X118455Y41974D01*
G01X118455Y41974D02*
G01X119283Y41974D01*
G01X119283Y41974D02*
G01X119283Y40323D01*
G01X119283Y40323D02*
G01X118455Y40323D01*
G01X240127Y24065D02*
G01X240955Y24065D01*
G01X240927Y25203D02*
G01X240127Y25203D01*
G01X240955Y25459D02*
G01X240955Y23808D01*
G01X240955Y23808D02*
G01X240127Y23808D01*
G01X240127Y23808D02*
G01X240127Y25459D01*
G01X240127Y25459D02*
G01X240955Y25459D01*
G01X245204Y24067D02*
G01X246032Y24067D01*
G01X246004Y25205D02*
G01X245204Y25205D01*
G01X246032Y25462D02*
G01X246032Y23811D01*
G01X246032Y23811D02*
G01X245204Y23811D01*
G01X245204Y23811D02*
G01X245204Y25462D01*
G01X245204Y25462D02*
G01X246032Y25462D01*
G01X212187Y24065D02*
G01X213015Y24065D01*
G01X212987Y25203D02*
G01X212187Y25203D01*
G01X213015Y25459D02*
G01X213015Y23808D01*
G01X213015Y23808D02*
G01X212187Y23808D01*
G01X212187Y23808D02*
G01X212187Y25459D01*
G01X212187Y25459D02*
G01X213015Y25459D01*
G01X217264Y24067D02*
G01X218092Y24067D01*
G01X218064Y25205D02*
G01X217264Y25205D01*
G01X218092Y25462D02*
G01X218092Y23811D01*
G01X218092Y23811D02*
G01X217264Y23811D01*
G01X217264Y23811D02*
G01X217264Y25462D01*
G01X217264Y25462D02*
G01X218092Y25462D01*
G01X184247Y24065D02*
G01X185075Y24065D01*
G01X185047Y25203D02*
G01X184247Y25203D01*
G01X185075Y25459D02*
G01X185075Y23808D01*
G01X185075Y23808D02*
G01X184247Y23808D01*
G01X184247Y23808D02*
G01X184247Y25459D01*
G01X184247Y25459D02*
G01X185075Y25459D01*
G01X189324Y24067D02*
G01X190152Y24067D01*
G01X190124Y25205D02*
G01X189324Y25205D01*
G01X190152Y25462D02*
G01X190152Y23811D01*
G01X190152Y23811D02*
G01X189324Y23811D01*
G01X189324Y23811D02*
G01X189324Y25462D01*
G01X189324Y25462D02*
G01X190152Y25462D01*
G01X156053Y24065D02*
G01X156881Y24065D01*
G01X156853Y25203D02*
G01X156053Y25203D01*
G01X156881Y25459D02*
G01X156881Y23808D01*
G01X156881Y23808D02*
G01X156053Y23808D01*
G01X156053Y23808D02*
G01X156053Y25459D01*
G01X156053Y25459D02*
G01X156881Y25459D01*
G01X161130Y24067D02*
G01X161958Y24067D01*
G01X161930Y25205D02*
G01X161130Y25205D01*
G01X161958Y25462D02*
G01X161958Y23811D01*
G01X161958Y23811D02*
G01X161130Y23811D01*
G01X161130Y23811D02*
G01X161130Y25462D01*
G01X161130Y25462D02*
G01X161958Y25462D01*
G01X128113Y24065D02*
G01X128941Y24065D01*
G01X128913Y25203D02*
G01X128113Y25203D01*
G01X128941Y25459D02*
G01X128941Y23808D01*
G01X128941Y23808D02*
G01X128113Y23808D01*
G01X128113Y23808D02*
G01X128113Y25459D01*
G01X128113Y25459D02*
G01X128941Y25459D01*
G01X133190Y24067D02*
G01X134018Y24067D01*
G01X133990Y25205D02*
G01X133190Y25205D01*
G01X134018Y25462D02*
G01X134018Y23811D01*
G01X134018Y23811D02*
G01X133190Y23811D01*
G01X133190Y23811D02*
G01X133190Y25462D01*
G01X133190Y25462D02*
G01X134018Y25462D01*
G01X100170Y24067D02*
G01X100998Y24067D01*
G01X100970Y25205D02*
G01X100170Y25205D01*
G01X100998Y25462D02*
G01X100998Y23811D01*
G01X100998Y23811D02*
G01X100170Y23811D01*
G01X100170Y23811D02*
G01X100170Y25462D01*
G01X100170Y25462D02*
G01X100998Y25462D01*
G01X105250Y24067D02*
G01X106078Y24067D01*
G01X106050Y25205D02*
G01X105250Y25205D01*
G01X106078Y25462D02*
G01X106078Y23811D01*
G01X106078Y23811D02*
G01X105250Y23811D01*
G01X105250Y23811D02*
G01X105250Y25462D01*
G01X105250Y25462D02*
G01X106078Y25462D01*
G01X77310Y24067D02*
G01X78138Y24067D01*
G01X78110Y25205D02*
G01X77310Y25205D01*
G01X78138Y25462D02*
G01X78138Y23811D01*
G01X78138Y23811D02*
G01X77310Y23811D01*
G01X77310Y23811D02*
G01X77310Y25462D01*
G01X77310Y25462D02*
G01X78138Y25462D01*
G01X44290Y24067D02*
G01X45118Y24067D01*
G01X45090Y25205D02*
G01X44290Y25205D01*
G01X45118Y25462D02*
G01X45118Y23811D01*
G01X45118Y23811D02*
G01X44290Y23811D01*
G01X44290Y23811D02*
G01X44290Y25462D01*
G01X44290Y25462D02*
G01X45118Y25462D01*
G01X49373Y24065D02*
G01X50201Y24065D01*
G01X50173Y25203D02*
G01X49373Y25203D01*
G01X50201Y25459D02*
G01X50201Y23808D01*
G01X50201Y23808D02*
G01X49373Y23808D01*
G01X49373Y23808D02*
G01X49373Y25459D01*
G01X49373Y25459D02*
G01X50201Y25459D01*
G01X72230Y24067D02*
G01X73058Y24067D01*
G01X73030Y25205D02*
G01X72230Y25205D01*
G01X73058Y25462D02*
G01X73058Y23811D01*
G01X73058Y23811D02*
G01X72230Y23811D01*
G01X72230Y23811D02*
G01X72230Y25462D01*
G01X72230Y25462D02*
G01X73058Y25462D01*
G01X179638Y53179D02*
G01X179638Y54007D01*
G01X178501Y53979D02*
G01X178501Y53179D01*
G01X178244Y54007D02*
G01X179895Y54007D01*
G01X179895Y54007D02*
G01X179895Y53179D01*
G01X179895Y53179D02*
G01X178244Y53179D01*
G01X178244Y53179D02*
G01X178244Y54007D01*
G01X171432Y53183D02*
G01X171432Y54011D01*
G01X170294Y53984D02*
G01X170294Y53183D01*
G01X170038Y54011D02*
G01X171689Y54011D01*
G01X171689Y54011D02*
G01X171689Y53183D01*
G01X171689Y53183D02*
G01X170038Y53183D01*
G01X170038Y53183D02*
G01X170038Y54011D01*
G01X163233Y53183D02*
G01X163233Y54011D01*
G01X162095Y53984D02*
G01X162095Y53183D01*
G01X161839Y54011D02*
G01X163490Y54011D01*
G01X163490Y54011D02*
G01X163490Y53183D01*
G01X163490Y53183D02*
G01X161839Y53183D01*
G01X161839Y53183D02*
G01X161839Y54011D01*
G01X155250Y53183D02*
G01X155250Y54011D01*
G01X154112Y53984D02*
G01X154112Y53183D01*
G01X153855Y54011D02*
G01X155506Y54011D01*
G01X155506Y54011D02*
G01X155506Y53183D01*
G01X155506Y53183D02*
G01X153855Y53183D01*
G01X153855Y53183D02*
G01X153855Y54011D01*
G01X147124Y53181D02*
G01X147124Y54009D01*
G01X145986Y53981D02*
G01X145986Y53181D01*
G01X145730Y54009D02*
G01X147381Y54009D01*
G01X147381Y54009D02*
G01X147381Y53181D01*
G01X147381Y53181D02*
G01X145730Y53181D01*
G01X145730Y53181D02*
G01X145730Y54009D01*
G01X138994Y53183D02*
G01X138994Y54011D01*
G01X137856Y53984D02*
G01X137856Y53183D01*
G01X137599Y54011D02*
G01X139250Y54011D01*
G01X139250Y54011D02*
G01X139250Y53183D01*
G01X139250Y53183D02*
G01X137599Y53183D01*
G01X137599Y53183D02*
G01X137599Y54011D01*
G01X130866Y53183D02*
G01X130866Y54011D01*
G01X129728Y53984D02*
G01X129728Y53183D01*
G01X129471Y54011D02*
G01X131122Y54011D01*
G01X131122Y54011D02*
G01X131122Y53183D01*
G01X131122Y53183D02*
G01X129471Y53183D01*
G01X129471Y53183D02*
G01X129471Y54011D01*
G01X122489Y53178D02*
G01X122489Y54006D01*
G01X121351Y53978D02*
G01X121351Y53178D01*
G01X121094Y54006D02*
G01X122745Y54006D01*
G01X122745Y54006D02*
G01X122745Y53178D01*
G01X122745Y53178D02*
G01X121094Y53178D01*
G01X121094Y53178D02*
G01X121094Y54006D01*
G01X199009Y13293D02*
G01X199009Y14121D01*
G01X197871Y14093D02*
G01X197871Y13293D01*
G01X197615Y14121D02*
G01X199266Y14121D01*
G01X199266Y14121D02*
G01X199266Y13293D01*
G01X199266Y13293D02*
G01X197615Y13293D01*
G01X197615Y13293D02*
G01X197615Y14121D01*
G01X171069Y13041D02*
G01X171069Y13869D01*
G01X169931Y13841D02*
G01X169931Y13041D01*
G01X169675Y13869D02*
G01X171326Y13869D01*
G01X171326Y13869D02*
G01X171326Y13041D01*
G01X171326Y13041D02*
G01X169675Y13041D01*
G01X169675Y13041D02*
G01X169675Y13869D01*
G01X59055Y13295D02*
G01X59055Y14123D01*
G01X57917Y14095D02*
G01X57917Y13295D01*
G01X57661Y14123D02*
G01X59312Y14123D01*
G01X59312Y14123D02*
G01X59312Y13295D01*
G01X59312Y13295D02*
G01X57661Y13295D01*
G01X57661Y13295D02*
G01X57661Y14123D01*
G01X142878Y13036D02*
G01X142878Y13864D01*
G01X141740Y13836D02*
G01X141740Y13036D01*
G01X141483Y13864D02*
G01X143134Y13864D01*
G01X143134Y13864D02*
G01X143134Y13036D01*
G01X143134Y13036D02*
G01X141483Y13036D01*
G01X141483Y13036D02*
G01X141483Y13864D01*
G01X114869Y13300D02*
G01X114869Y14128D01*
G01X113731Y14100D02*
G01X113731Y13300D01*
G01X113474Y14128D02*
G01X115125Y14128D01*
G01X115125Y14128D02*
G01X115125Y13300D01*
G01X115125Y13300D02*
G01X113474Y13300D01*
G01X113474Y13300D02*
G01X113474Y14128D01*
G01X87183Y13300D02*
G01X87183Y14128D01*
G01X86045Y14100D02*
G01X86045Y13300D01*
G01X85788Y14128D02*
G01X87439Y14128D01*
G01X87439Y14128D02*
G01X87439Y13300D01*
G01X87439Y13300D02*
G01X85788Y13300D01*
G01X85788Y13300D02*
G01X85788Y14128D01*
G01X255077Y12792D02*
G01X255077Y13620D01*
G01X253939Y13592D02*
G01X253939Y12792D01*
G01X253682Y13620D02*
G01X255333Y13620D01*
G01X255333Y13620D02*
G01X255333Y12792D01*
G01X255333Y12792D02*
G01X253682Y12792D01*
G01X253682Y12792D02*
G01X253682Y13620D01*
G01X226944Y13041D02*
G01X226944Y13869D01*
G01X225806Y13841D02*
G01X225806Y13041D01*
G01X225549Y13869D02*
G01X227200Y13869D01*
G01X227200Y13869D02*
G01X227200Y13041D01*
G01X227200Y13041D02*
G01X225549Y13041D01*
G01X225549Y13041D02*
G01X225549Y13869D01*
G54D10*
G01X217640Y11210D02*
G01X212641Y11210D01*
G01X212641Y16209D01*
G01X217640Y16209D01*
G01X217640Y15386D01*
G01X217640Y11210D01*
G01X217640Y12109D02*
G01X216741Y11210D01*
G01X245641Y11210D02*
G01X240642Y11210D01*
G01X240642Y16209D01*
G01X245641Y16209D01*
G01X245641Y15386D01*
G01X245641Y11210D01*
G01X245641Y12109D02*
G01X244742Y11210D01*
G01X189641Y11210D02*
G01X184643Y11210D01*
G01X184643Y16209D01*
G01X189641Y16209D01*
G01X189641Y15386D01*
G01X189641Y11210D01*
G01X189641Y12109D02*
G01X188742Y11210D01*
G01X105641Y11210D02*
G01X100642Y11210D01*
G01X100642Y16209D01*
G01X105641Y16209D01*
G01X105641Y15386D01*
G01X105641Y11210D01*
G01X105641Y12109D02*
G01X104742Y11210D01*
G01X161641Y11210D02*
G01X156642Y11210D01*
G01X156642Y16209D01*
G01X161641Y16209D01*
G01X161641Y15386D01*
G01X161641Y11210D01*
G01X161641Y12109D02*
G01X160741Y11210D01*
G01X133640Y11210D02*
G01X128641Y11210D01*
G01X128641Y16209D01*
G01X133640Y16209D01*
G01X133640Y15386D01*
G01X133640Y11210D01*
G01X133640Y12109D02*
G01X132740Y11210D01*
G01X77640Y11210D02*
G01X72641Y11210D01*
G01X72641Y16209D01*
G01X77640Y16209D01*
G01X77640Y15386D01*
G01X77640Y11210D01*
G01X77640Y12109D02*
G01X76741Y11210D01*
G01X49642Y11210D02*
G01X44643Y11210D01*
G01X44643Y16209D01*
G01X49642Y16209D01*
G01X49642Y15386D01*
G01X49642Y11210D01*
G01X49642Y12109D02*
G01X48743Y11210D01*
G54D47*
G01X255077Y11268D02*
G01X255077Y12096D01*
G01X253939Y12068D02*
G01X253939Y11268D01*
G01X253682Y12096D02*
G01X255333Y12096D01*
G01X255333Y12096D02*
G01X255333Y11268D01*
G01X255333Y11268D02*
G01X253682Y11268D01*
G01X253682Y11268D02*
G01X253682Y12096D01*
G01X255077Y14316D02*
G01X255077Y15144D01*
G01X253939Y15116D02*
G01X253939Y14316D01*
G01X253682Y15144D02*
G01X255333Y15144D01*
G01X255333Y15144D02*
G01X255333Y14316D01*
G01X255333Y14316D02*
G01X253682Y14316D01*
G01X253682Y14316D02*
G01X253682Y15144D01*
G01X226885Y14568D02*
G01X226885Y15396D01*
G01X225748Y15368D02*
G01X225748Y14568D01*
G01X225491Y15396D02*
G01X227142Y15396D01*
G01X227142Y15396D02*
G01X227142Y14568D01*
G01X227142Y14568D02*
G01X225491Y14568D01*
G01X225491Y14568D02*
G01X225491Y15396D01*
G01X226880Y11522D02*
G01X226880Y12350D01*
G01X225742Y12322D02*
G01X225742Y11522D01*
G01X225486Y12350D02*
G01X227137Y12350D01*
G01X227137Y12350D02*
G01X227137Y11522D01*
G01X227137Y11522D02*
G01X225486Y11522D01*
G01X225486Y11522D02*
G01X225486Y12350D01*
G01X198945Y11774D02*
G01X198945Y12602D01*
G01X197808Y12574D02*
G01X197808Y11774D01*
G01X197551Y12602D02*
G01X199202Y12602D01*
G01X199202Y12602D02*
G01X199202Y11774D01*
G01X199202Y11774D02*
G01X197551Y11774D01*
G01X197551Y11774D02*
G01X197551Y12602D01*
G01X198943Y14824D02*
G01X198943Y15652D01*
G01X197805Y15624D02*
G01X197805Y14824D01*
G01X197548Y15652D02*
G01X199199Y15652D01*
G01X199199Y15652D02*
G01X199199Y14824D01*
G01X199199Y14824D02*
G01X197548Y14824D01*
G01X197548Y14824D02*
G01X197548Y15652D01*
G01X171003Y14570D02*
G01X171003Y15398D01*
G01X169865Y15370D02*
G01X169865Y14570D01*
G01X169608Y15398D02*
G01X171259Y15398D01*
G01X171259Y15398D02*
G01X171259Y14570D01*
G01X171259Y14570D02*
G01X169608Y14570D01*
G01X169608Y14570D02*
G01X169608Y15398D01*
G01X171003Y11522D02*
G01X171003Y12350D01*
G01X169865Y12322D02*
G01X169865Y11522D01*
G01X169608Y12350D02*
G01X171259Y12350D01*
G01X171259Y12350D02*
G01X171259Y11522D01*
G01X171259Y11522D02*
G01X169608Y11522D01*
G01X169608Y11522D02*
G01X169608Y12350D01*
G01X142811Y11520D02*
G01X142811Y12348D01*
G01X141674Y12320D02*
G01X141674Y11520D01*
G01X141417Y12348D02*
G01X143068Y12348D01*
G01X143068Y12348D02*
G01X143068Y11520D01*
G01X143068Y11520D02*
G01X141417Y11520D01*
G01X141417Y11520D02*
G01X141417Y12348D01*
G01X142809Y14570D02*
G01X142809Y15398D01*
G01X141671Y15370D02*
G01X141671Y14570D01*
G01X141414Y15398D02*
G01X143065Y15398D01*
G01X143065Y15398D02*
G01X143065Y14570D01*
G01X143065Y14570D02*
G01X141414Y14570D01*
G01X141414Y14570D02*
G01X141414Y15398D01*
G01X114869Y14832D02*
G01X114869Y15660D01*
G01X113731Y15632D02*
G01X113731Y14832D01*
G01X113474Y15660D02*
G01X115125Y15660D01*
G01X115125Y15660D02*
G01X115125Y14832D01*
G01X115125Y14832D02*
G01X113474Y14832D01*
G01X113474Y14832D02*
G01X113474Y15660D01*
G01X114869Y11784D02*
G01X114869Y12612D01*
G01X113731Y12584D02*
G01X113731Y11784D01*
G01X113474Y12612D02*
G01X115125Y12612D01*
G01X115125Y12612D02*
G01X115125Y11784D01*
G01X115125Y11784D02*
G01X113474Y11784D01*
G01X113474Y11784D02*
G01X113474Y12612D01*
G01X87183Y11776D02*
G01X87183Y12604D01*
G01X86045Y12576D02*
G01X86045Y11776D01*
G01X85788Y12604D02*
G01X87439Y12604D01*
G01X87439Y12604D02*
G01X87439Y11776D01*
G01X87439Y11776D02*
G01X85788Y11776D01*
G01X85788Y11776D02*
G01X85788Y12604D01*
G01X87183Y14824D02*
G01X87183Y15652D01*
G01X86045Y15624D02*
G01X86045Y14824D01*
G01X85788Y15652D02*
G01X87439Y15652D01*
G01X87439Y15652D02*
G01X87439Y14824D01*
G01X87439Y14824D02*
G01X85788Y14824D01*
G01X85788Y14824D02*
G01X85788Y15652D01*
G01X58991Y11774D02*
G01X58991Y12602D01*
G01X57854Y12574D02*
G01X57854Y11774D01*
G01X57597Y12602D02*
G01X59248Y12602D01*
G01X59248Y12602D02*
G01X59248Y11774D01*
G01X59248Y11774D02*
G01X57597Y11774D01*
G01X57597Y11774D02*
G01X57597Y12602D01*
G01X58989Y14824D02*
G01X58989Y15652D01*
G01X57851Y15624D02*
G01X57851Y14824D01*
G01X57594Y15652D02*
G01X59245Y15652D01*
G01X59245Y15652D02*
G01X59245Y14824D01*
G01X59245Y14824D02*
G01X57594Y14824D01*
G01X57594Y14824D02*
G01X57594Y15652D01*
G54D10*
G01X181717Y47750D02*
G01X174859Y47750D01*
G01X174894Y56137D02*
G01X181752Y56137D01*
G01X166766Y56137D02*
G01X173624Y56137D01*
G01X158638Y56137D02*
G01X165496Y56137D01*
G01X150510Y56137D02*
G01X157368Y56137D01*
G01X142382Y56137D02*
G01X149240Y56137D01*
G01X134254Y56137D02*
G01X141112Y56137D01*
G01X126129Y56135D02*
G01X132987Y56135D01*
G01X118001Y56135D02*
G01X124859Y56135D01*
G01X173586Y47753D02*
G01X166728Y47753D01*
G01X165458Y47753D02*
G01X158600Y47753D01*
G01X157330Y47753D02*
G01X150472Y47753D01*
G01X149202Y47753D02*
G01X142344Y47753D01*
G01X141074Y47753D02*
G01X134216Y47753D01*
G01X132949Y47750D02*
G01X126091Y47750D01*
G01X124823Y47748D02*
G01X117965Y47748D01*
G01X13462Y54207D02*
G01X13462Y47349D01*
G01X13459Y45574D02*
G01X13459Y38716D01*
G01X28191Y54210D02*
G01X28191Y47352D01*
G01X28189Y45576D02*
G01X28189Y38718D01*
G01X13462Y37189D02*
G01X13462Y30331D01*
G01X13462Y28299D02*
G01X13462Y21441D01*
G01X28191Y19412D02*
G01X28191Y12554D01*
G01X13459Y19158D02*
G01X13459Y12300D01*
G01X28191Y10522D02*
G01X28191Y3664D01*
G01X13459Y10522D02*
G01X13459Y3664D01*
G01X28191Y28302D02*
G01X28191Y21444D01*
G01X28194Y37189D02*
G01X28194Y30331D01*
G01X64519Y45970D02*
G01X58423Y45970D01*
G01X55121Y45970D02*
G01X49025Y45970D01*
G01X73409Y45970D02*
G01X67313Y45970D01*
G54D48*
G01X221739Y71248D02*
G01X216659Y71248D01*
G01X216659Y73534D01*
G01X221739Y73534D01*
G01X221739Y71248D01*
G01X217294Y71248D02*
G01X217294Y73534D01*
G01X203449Y53491D02*
G01X198242Y53491D01*
G01X198242Y56234D01*
G01X203449Y56234D01*
G01X203449Y53491D01*
G01X198877Y53491D02*
G01X198877Y56234D01*
G54D10*
G01X198516Y71375D02*
G01X205374Y71375D01*
G01X202697Y69180D02*
G01X202697Y58578D01*
G01X197896Y58578D01*
G01X197896Y69180D01*
G01X202697Y69180D01*
G01X202197Y58578D02*
G01X202197Y69180D01*
G01X208280Y53338D02*
G01X208280Y52322D01*
G01X209042Y52830D02*
G01X207518Y52830D01*
G01X247927Y71888D02*
G01X246581Y71888D01*
G01X247241Y72523D02*
G01X247241Y71278D01*
G54D43*
G01X240787Y78995D02*
G01X243327Y78995D01*
G01X243327Y70867D01*
G01X238247Y70867D01*
G01X238247Y78995D01*
G01X240787Y78995D01*
G54D47*
G01X178717Y63564D02*
G01X177889Y63564D01*
G01X177917Y62426D02*
G01X178717Y62426D01*
G01X177889Y62170D02*
G01X177889Y63821D01*
G01X177889Y63821D02*
G01X178717Y63821D01*
G01X178717Y63821D02*
G01X178717Y62170D01*
G01X178717Y62170D02*
G01X177889Y62170D01*
G01X170589Y63564D02*
G01X169761Y63564D01*
G01X169789Y62426D02*
G01X170589Y62426D01*
G01X169761Y62170D02*
G01X169761Y63821D01*
G01X169761Y63821D02*
G01X170589Y63821D01*
G01X170589Y63821D02*
G01X170589Y62170D01*
G01X170589Y62170D02*
G01X169761Y62170D01*
G01X162461Y63564D02*
G01X161633Y63564D01*
G01X161661Y62426D02*
G01X162461Y62426D01*
G01X161633Y62170D02*
G01X161633Y63821D01*
G01X161633Y63821D02*
G01X162461Y63821D01*
G01X162461Y63821D02*
G01X162461Y62170D01*
G01X162461Y62170D02*
G01X161633Y62170D01*
G01X154587Y63564D02*
G01X153759Y63564D01*
G01X153787Y62426D02*
G01X154587Y62426D01*
G01X153759Y62170D02*
G01X153759Y63821D01*
G01X153759Y63821D02*
G01X154587Y63821D01*
G01X154587Y63821D02*
G01X154587Y62170D01*
G01X154587Y62170D02*
G01X153759Y62170D01*
G01X146210Y63559D02*
G01X145382Y63559D01*
G01X145410Y62421D02*
G01X146210Y62421D01*
G01X145382Y62165D02*
G01X145382Y63816D01*
G01X145382Y63816D02*
G01X146210Y63816D01*
G01X146210Y63816D02*
G01X146210Y62165D01*
G01X146210Y62165D02*
G01X145382Y62165D01*
G01X138331Y63310D02*
G01X137503Y63310D01*
G01X137531Y62172D02*
G01X138331Y62172D01*
G01X137503Y61916D02*
G01X137503Y63567D01*
G01X137503Y63567D02*
G01X138331Y63567D01*
G01X138331Y63567D02*
G01X138331Y61916D01*
G01X138331Y61916D02*
G01X137503Y61916D01*
G01X129951Y63562D02*
G01X129123Y63562D01*
G01X129151Y62424D02*
G01X129951Y62424D01*
G01X129123Y62167D02*
G01X129123Y63818D01*
G01X129123Y63818D02*
G01X129951Y63818D01*
G01X129951Y63818D02*
G01X129951Y62167D01*
G01X129951Y62167D02*
G01X129123Y62167D01*
G01X121826Y63559D02*
G01X120998Y63559D01*
G01X121026Y62421D02*
G01X121826Y62421D01*
G01X120998Y62165D02*
G01X120998Y63816D01*
G01X120998Y63816D02*
G01X121826Y63816D01*
G01X121826Y63816D02*
G01X121826Y62165D01*
G01X121826Y62165D02*
G01X120998Y62165D01*
G01X9845Y50956D02*
G01X9845Y50128D01*
G01X10983Y50156D02*
G01X10983Y50956D01*
G01X11239Y50128D02*
G01X9588Y50128D01*
G01X9588Y50128D02*
G01X9588Y50956D01*
G01X9588Y50956D02*
G01X11239Y50956D01*
G01X11239Y50956D02*
G01X11239Y50128D01*
G01X24831Y50702D02*
G01X24831Y49874D01*
G01X25969Y49902D02*
G01X25969Y50702D01*
G01X26225Y49874D02*
G01X24574Y49874D01*
G01X24574Y49874D02*
G01X24574Y50702D01*
G01X24574Y50702D02*
G01X26225Y50702D01*
G01X26225Y50702D02*
G01X26225Y49874D01*
G01X9842Y42579D02*
G01X9842Y41751D01*
G01X10980Y41779D02*
G01X10980Y42579D01*
G01X11237Y41751D02*
G01X9586Y41751D01*
G01X9586Y41751D02*
G01X9586Y42579D01*
G01X9586Y42579D02*
G01X11237Y42579D01*
G01X11237Y42579D02*
G01X11237Y41751D01*
G01X24828Y42325D02*
G01X24828Y41497D01*
G01X25966Y41525D02*
G01X25966Y42325D01*
G01X26223Y41497D02*
G01X24572Y41497D01*
G01X24572Y41497D02*
G01X24572Y42325D01*
G01X24572Y42325D02*
G01X26223Y42325D01*
G01X26223Y42325D02*
G01X26223Y41497D01*
G01X9842Y34197D02*
G01X9842Y33369D01*
G01X10980Y33397D02*
G01X10980Y34197D01*
G01X11237Y33369D02*
G01X9586Y33369D01*
G01X9586Y33369D02*
G01X9586Y34197D01*
G01X9586Y34197D02*
G01X11237Y34197D01*
G01X11237Y34197D02*
G01X11237Y33369D01*
G01X9842Y25307D02*
G01X9842Y24479D01*
G01X10980Y24507D02*
G01X10980Y25307D01*
G01X11237Y24479D02*
G01X9586Y24479D01*
G01X9586Y24479D02*
G01X9586Y25307D01*
G01X9586Y25307D02*
G01X11237Y25307D01*
G01X11237Y25307D02*
G01X11237Y24479D01*
G01X24831Y16163D02*
G01X24831Y15335D01*
G01X25969Y15363D02*
G01X25969Y16163D01*
G01X26225Y15335D02*
G01X24574Y15335D01*
G01X24574Y15335D02*
G01X24574Y16163D01*
G01X24574Y16163D02*
G01X26225Y16163D01*
G01X26225Y16163D02*
G01X26225Y15335D01*
G01X9845Y16059D02*
G01X9845Y15231D01*
G01X10983Y15259D02*
G01X10983Y16059D01*
G01X11239Y15231D02*
G01X9588Y15231D01*
G01X9588Y15231D02*
G01X9588Y16059D01*
G01X9588Y16059D02*
G01X11239Y16059D01*
G01X11239Y16059D02*
G01X11239Y15231D01*
G01X24831Y7575D02*
G01X24831Y6747D01*
G01X25969Y6775D02*
G01X25969Y7575D01*
G01X26225Y6747D02*
G01X24574Y6747D01*
G01X24574Y6747D02*
G01X24574Y7575D01*
G01X24574Y7575D02*
G01X26225Y7575D01*
G01X26225Y7575D02*
G01X26225Y6747D01*
G01X9845Y7623D02*
G01X9845Y6795D01*
G01X10983Y6823D02*
G01X10983Y7623D01*
G01X11239Y6795D02*
G01X9588Y6795D01*
G01X9588Y6795D02*
G01X9588Y7623D01*
G01X9588Y7623D02*
G01X11239Y7623D01*
G01X11239Y7623D02*
G01X11239Y6795D01*
G01X24577Y25304D02*
G01X24577Y24476D01*
G01X25715Y24504D02*
G01X25715Y25304D01*
G01X25971Y24476D02*
G01X24320Y24476D01*
G01X24320Y24476D02*
G01X24320Y25304D01*
G01X24320Y25304D02*
G01X25971Y25304D01*
G01X25971Y25304D02*
G01X25971Y24476D01*
G01X24831Y34194D02*
G01X24831Y33366D01*
G01X25969Y33394D02*
G01X25969Y34194D01*
G01X26225Y33366D02*
G01X24574Y33366D01*
G01X24574Y33366D02*
G01X24574Y34194D01*
G01X24574Y34194D02*
G01X26225Y34194D01*
G01X26225Y34194D02*
G01X26225Y33366D01*
G54D41*
G01X60894Y49813D02*
G01X61994Y49813D01*
G01X61994Y48213D01*
G01X60894Y48213D01*
G01X60094Y49813D02*
G01X58994Y49813D01*
G01X58994Y48815D01*
G01X58994Y48213D01*
G01X60094Y48213D01*
G01X70038Y49813D02*
G01X71138Y49813D01*
G01X71138Y48213D01*
G01X70038Y48213D01*
G01X69238Y49813D02*
G01X68138Y49813D01*
G01X68138Y48815D01*
G01X68138Y48213D01*
G01X69238Y48213D01*
G01X51750Y49813D02*
G01X52850Y49813D01*
G01X52850Y48213D01*
G01X51750Y48213D01*
G01X50950Y49813D02*
G01X49850Y49813D01*
G01X49850Y48815D01*
G01X49850Y48213D01*
G01X50950Y48213D01*
G01X234257Y56346D02*
G01X233157Y56346D01*
G01X233157Y57946D01*
G01X234257Y57946D01*
G01X235057Y56346D02*
G01X236156Y56346D01*
G01X236156Y57346D01*
G01X236156Y57946D01*
G01X235057Y57946D01*
G54D10*
G01X213614Y66546D02*
G01X213614Y61548D01*
G01X207518Y61466D02*
G01X207518Y66465D01*
G01X227988Y71197D02*
G01X227988Y73585D01*
G01X227988Y73585D02*
G01X234287Y73585D01*
G01X234287Y73585D02*
G01X234287Y71197D01*
G01X234287Y71197D02*
G01X227988Y71197D01*
G54D41*
G01X97577Y72713D02*
G01X97577Y71611D01*
G01X95976Y71611D01*
G01X95976Y72713D01*
G01X97577Y73511D02*
G01X97577Y74613D01*
G01X96576Y74613D01*
G01X95976Y74613D01*
G01X95976Y73511D01*
G54D10*
G01X94488Y76244D02*
G01X94488Y70245D01*
G01X88489Y70245D01*
G01X88489Y76244D01*
G01X94488Y76244D01*
G54D41*
G01X50076Y72967D02*
G01X50076Y71865D01*
G01X48476Y71865D01*
G01X48476Y72967D01*
G01X50076Y73765D02*
G01X50076Y74867D01*
G01X49075Y74867D01*
G01X48476Y74867D01*
G01X48476Y73765D01*
G54D10*
G01X57407Y76396D02*
G01X57407Y70394D01*
G01X51407Y70394D01*
G01X51407Y76396D01*
G01X57407Y76396D01*
G54D41*
G01X62014Y72967D02*
G01X62014Y71865D01*
G01X60414Y71865D01*
G01X60414Y72967D01*
G01X62014Y73765D02*
G01X62014Y74867D01*
G01X61013Y74867D01*
G01X60414Y74867D01*
G01X60414Y73765D01*
G54D10*
G01X69596Y76396D02*
G01X69596Y70394D01*
G01X63597Y70394D01*
G01X63597Y76396D01*
G01X69596Y76396D01*
G54D43*
G01X84579Y56059D02*
G01X85669Y56059D01*
G01X84579Y56059D02*
G01X84579Y56526D01*
G01X84630Y56681D01*
G01X84681Y56734D01*
G01X84785Y56785D01*
G01X84889Y56785D01*
G01X84993Y56734D01*
G01X85047Y56681D01*
G01X85097Y56526D01*
G01X85097Y56059D01*
G01X85097Y56422D02*
G01X85669Y56785D01*
G01X84734Y57857D02*
G01X84630Y57753D01*
G01X84579Y57595D01*
G01X84579Y57390D01*
G01X84630Y57232D01*
G01X84734Y57128D01*
G01X84838Y57128D01*
G01X84943Y57181D01*
G01X84993Y57232D01*
G01X85047Y57336D01*
G01X85151Y57649D01*
G01X85202Y57753D01*
G01X85252Y57804D01*
G01X85357Y57857D01*
G01X85514Y57857D01*
G01X85618Y57753D01*
G01X85669Y57595D01*
G01X85669Y57390D01*
G01X85618Y57232D01*
G01X85514Y57128D01*
G01X84838Y58980D02*
G01X84734Y58926D01*
G01X84630Y58822D01*
G01X84579Y58718D01*
G01X84579Y58510D01*
G01X84630Y58408D01*
G01X84734Y58304D01*
G01X84838Y58251D01*
G01X84993Y58200D01*
G01X85252Y58200D01*
G01X85410Y58251D01*
G01X85514Y58304D01*
G01X85618Y58408D01*
G01X85669Y58510D01*
G01X85669Y58718D01*
G01X85618Y58822D01*
G01X85514Y58926D01*
G01X85410Y58980D01*
G01X84579Y59323D02*
G01X85669Y59323D01*
G01X85669Y59323D02*
G01X85669Y59945D01*
G01X88135Y55904D02*
G01X89225Y55904D01*
G01X88135Y55904D02*
G01X88135Y56371D01*
G01X88186Y56526D01*
G01X88237Y56579D01*
G01X88341Y56630D01*
G01X88445Y56630D01*
G01X88549Y56579D01*
G01X88603Y56526D01*
G01X88653Y56371D01*
G01X88653Y55904D01*
G01X88653Y56267D02*
G01X89225Y56630D01*
G01X88290Y57702D02*
G01X88186Y57598D01*
G01X88135Y57441D01*
G01X88135Y57235D01*
G01X88186Y57077D01*
G01X88290Y56973D01*
G01X88394Y56973D01*
G01X88498Y57027D01*
G01X88549Y57077D01*
G01X88603Y57181D01*
G01X88707Y57494D01*
G01X88758Y57598D01*
G01X88808Y57649D01*
G01X88912Y57702D01*
G01X89070Y57702D01*
G01X89174Y57598D01*
G01X89225Y57441D01*
G01X89225Y57235D01*
G01X89174Y57077D01*
G01X89070Y56973D01*
G01X88135Y58045D02*
G01X89225Y58045D01*
G01X88135Y58045D02*
G01X88135Y58408D01*
G01X88186Y58563D01*
G01X88290Y58667D01*
G01X88394Y58721D01*
G01X88549Y58772D01*
G01X88808Y58772D01*
G01X88966Y58721D01*
G01X89070Y58667D01*
G01X89174Y58563D01*
G01X89225Y58408D01*
G01X89225Y58045D01*
G01X88135Y59531D02*
G01X89225Y59114D01*
G01X88135Y59531D02*
G01X89225Y59945D01*
G01X88862Y59269D02*
G01X88862Y59790D01*
G01X192783Y74169D02*
G01X192783Y73079D01*
G01X193906Y73910D02*
G01X193852Y74014D01*
G01X193748Y74118D01*
G01X193647Y74169D01*
G01X193438Y74169D01*
G01X193334Y74118D01*
G01X193230Y74014D01*
G01X193177Y73910D01*
G01X193126Y73755D01*
G01X193126Y73496D01*
G01X193177Y73338D01*
G01X193230Y73234D01*
G01X193334Y73130D01*
G01X193438Y73079D01*
G01X193647Y73079D01*
G01X193748Y73130D01*
G01X193852Y73234D01*
G01X193906Y73338D01*
G01X194871Y74014D02*
G01X194820Y74118D01*
G01X194663Y74169D01*
G01X194561Y74169D01*
G01X194404Y74118D01*
G01X194299Y73963D01*
G01X194249Y73702D01*
G01X194249Y73443D01*
G01X194299Y73234D01*
G01X194404Y73130D01*
G01X194561Y73079D01*
G01X194612Y73079D01*
G01X194767Y73130D01*
G01X194871Y73234D01*
G01X194924Y73392D01*
G01X194924Y73443D01*
G01X194871Y73597D01*
G01X194767Y73702D01*
G01X194612Y73755D01*
G01X194561Y73755D01*
G01X194404Y73702D01*
G01X194299Y73597D01*
G01X194249Y73443D01*
G54D51*
G01X191823Y77562D02*
G01X191074Y77562D01*
G01X191483Y78108D01*
G01X191277Y78108D01*
G01X191142Y78175D01*
G01X191074Y78243D01*
G01X191005Y78449D01*
G01X191005Y78586D01*
G01X191074Y78789D01*
G01X191208Y78926D01*
G01X191414Y78995D01*
G01X191620Y78995D01*
G01X191823Y78926D01*
G01X191891Y78858D01*
G01X191960Y78721D01*
G01X194431Y77903D02*
G01X194431Y77834D01*
G01X194363Y77697D01*
G01X194294Y77631D01*
G01X194160Y77562D01*
G01X193885Y77562D01*
G01X193748Y77631D01*
G01X193682Y77697D01*
G01X193614Y77834D01*
G01X193614Y77971D01*
G01X193682Y78108D01*
G01X193817Y78312D01*
G01X194500Y78995D01*
G01X193545Y78995D01*
G01X196468Y77838D02*
G01X196331Y77769D01*
G01X196128Y77566D01*
G01X196128Y78998D01*
G54D43*
G01X180096Y74169D02*
G01X180096Y73338D01*
G01X180042Y73183D01*
G01X179992Y73130D01*
G01X179887Y73079D01*
G01X179783Y73079D01*
G01X179679Y73130D01*
G01X179626Y73183D01*
G01X179575Y73338D01*
G01X179575Y73443D01*
G01X180439Y74169D02*
G01X180439Y73079D01*
G01X180439Y74169D02*
G01X180906Y74169D01*
G01X181061Y74118D01*
G01X181112Y74067D01*
G01X181165Y73963D01*
G01X181165Y73806D01*
G01X181112Y73702D01*
G01X181061Y73651D01*
G01X180906Y73597D01*
G01X180439Y73597D01*
G01X181559Y73910D02*
G01X181559Y73963D01*
G01X181612Y74067D01*
G01X181663Y74118D01*
G01X181767Y74169D01*
G01X181975Y74169D01*
G01X182080Y74118D01*
G01X182130Y74067D01*
G01X182184Y73963D01*
G01X182184Y73859D01*
G01X182130Y73755D01*
G01X182026Y73597D01*
G01X181508Y73079D01*
G01X182234Y73079D01*
G01X182875Y72392D02*
G01X182875Y71303D01*
G01X182875Y72392D02*
G01X183342Y72392D01*
G01X183497Y72342D01*
G01X183551Y72291D01*
G01X183601Y72187D01*
G01X183601Y72083D01*
G01X183551Y71978D01*
G01X183497Y71925D01*
G01X183342Y71874D01*
G01X182875Y71874D01*
G01X183238Y71874D02*
G01X183601Y71303D01*
G01X184569Y72392D02*
G01X184049Y72392D01*
G01X183998Y71925D01*
G01X184049Y71978D01*
G01X184206Y72029D01*
G01X184361Y72029D01*
G01X184516Y71978D01*
G01X184620Y71874D01*
G01X184673Y71719D01*
G01X184673Y71615D01*
G01X184620Y71458D01*
G01X184516Y71354D01*
G01X184361Y71303D01*
G01X184206Y71303D01*
G01X184049Y71354D01*
G01X183998Y71407D01*
G01X183944Y71511D01*
G01X185016Y72392D02*
G01X185430Y71303D01*
G01X185847Y72392D02*
G01X185430Y71303D01*
G01X70863Y73915D02*
G01X70863Y72825D01*
G01X71590Y73915D02*
G01X71590Y72825D01*
G01X70863Y73397D02*
G01X71590Y73397D01*
G01X71933Y73709D02*
G01X72037Y73760D01*
G01X72194Y73915D01*
G01X72194Y72825D01*
G01X221484Y51472D02*
G01X221484Y50382D01*
G01X221484Y51472D02*
G01X221951Y51472D01*
G01X222106Y51421D01*
G01X222160Y51370D01*
G01X222210Y51266D01*
G01X222210Y51162D01*
G01X222160Y51058D01*
G01X222106Y51004D01*
G01X221951Y50954D01*
G01X221484Y50954D01*
G01X221847Y50954D02*
G01X222210Y50382D01*
G01X222553Y51472D02*
G01X222553Y50382D01*
G01X223282Y51472D02*
G01X223282Y50382D01*
G01X222553Y50954D02*
G01X223282Y50954D01*
G01X224301Y51109D02*
G01X224248Y50954D01*
G01X224143Y50849D01*
G01X223988Y50799D01*
G01X223935Y50799D01*
G01X223780Y50849D01*
G01X223676Y50954D01*
G01X223625Y51109D01*
G01X223625Y51162D01*
G01X223676Y51317D01*
G01X223780Y51421D01*
G01X223935Y51472D01*
G01X223988Y51472D01*
G01X224143Y51421D01*
G01X224248Y51317D01*
G01X224301Y51109D01*
G01X224301Y50849D01*
G01X224248Y50590D01*
G01X224143Y50433D01*
G01X223988Y50382D01*
G01X223884Y50382D01*
G01X223729Y50433D01*
G01X223676Y50537D01*
G01X217928Y51980D02*
G01X217928Y50890D01*
G01X217928Y51980D02*
G01X218395Y51980D01*
G01X218550Y51929D01*
G01X218604Y51878D01*
G01X218654Y51774D01*
G01X218654Y51670D01*
G01X218604Y51566D01*
G01X218550Y51512D01*
G01X218395Y51462D01*
G01X217928Y51462D01*
G01X218291Y51462D02*
G01X218654Y50890D01*
G01X218997Y51980D02*
G01X218997Y50890D01*
G01X219726Y51980D02*
G01X219726Y50890D01*
G01X218997Y51462D02*
G01X219726Y51462D01*
G01X220796Y51980D02*
G01X220277Y50890D01*
G01X220069Y51980D02*
G01X220796Y51980D01*
G01X223882Y8890D02*
G01X223882Y7800D01*
G01X223519Y8890D02*
G01X224246Y8890D01*
G01X224588Y8890D02*
G01X224588Y8112D01*
G01X224642Y7955D01*
G01X224746Y7851D01*
G01X224901Y7800D01*
G01X225005Y7800D01*
G01X225160Y7851D01*
G01X225264Y7955D01*
G01X225317Y8112D01*
G01X225317Y8890D01*
G01X225711Y8630D02*
G01X225711Y8684D01*
G01X225764Y8788D01*
G01X225815Y8839D01*
G01X225919Y8890D01*
G01X226128Y8890D01*
G01X226232Y8839D01*
G01X226283Y8788D01*
G01X226336Y8684D01*
G01X226336Y8580D01*
G01X226283Y8475D01*
G01X226178Y8318D01*
G01X225660Y7800D01*
G01X226387Y7800D01*
G01X195942Y8890D02*
G01X195942Y7800D01*
G01X195579Y8890D02*
G01X196306Y8890D01*
G01X196648Y8890D02*
G01X196648Y8112D01*
G01X196702Y7955D01*
G01X196806Y7851D01*
G01X196961Y7800D01*
G01X197065Y7800D01*
G01X197220Y7851D01*
G01X197324Y7955D01*
G01X197377Y8112D01*
G01X197377Y8890D01*
G01X197824Y8890D02*
G01X198396Y8890D01*
G01X198084Y8475D01*
G01X198238Y8475D01*
G01X198343Y8422D01*
G01X198396Y8371D01*
G01X198447Y8216D01*
G01X198447Y8112D01*
G01X198396Y7955D01*
G01X198292Y7851D01*
G01X198134Y7800D01*
G01X197979Y7800D01*
G01X197824Y7851D01*
G01X197771Y7904D01*
G01X197720Y8008D01*
G01X168002Y9004D02*
G01X168002Y7914D01*
G01X167639Y9004D02*
G01X168365Y9004D01*
G01X168708Y9004D02*
G01X168708Y8226D01*
G01X168762Y8069D01*
G01X168866Y7965D01*
G01X169021Y7914D01*
G01X169125Y7914D01*
G01X169280Y7965D01*
G01X169384Y8069D01*
G01X169437Y8226D01*
G01X169437Y9004D01*
G01X170298Y9004D02*
G01X169780Y8277D01*
G01X170560Y8277D01*
G01X170298Y9004D02*
G01X170298Y7914D01*
G01X140062Y8890D02*
G01X140062Y7800D01*
G01X139699Y8890D02*
G01X140426Y8890D01*
G01X140769Y8890D02*
G01X140769Y8112D01*
G01X140822Y7955D01*
G01X140926Y7851D01*
G01X141081Y7800D01*
G01X141185Y7800D01*
G01X141340Y7851D01*
G01X141444Y7955D01*
G01X141497Y8112D01*
G01X141497Y8890D01*
G01X142463Y8890D02*
G01X141945Y8890D01*
G01X141891Y8422D01*
G01X141945Y8475D01*
G01X142099Y8526D01*
G01X142254Y8526D01*
G01X142412Y8475D01*
G01X142516Y8371D01*
G01X142567Y8216D01*
G01X142567Y8112D01*
G01X142516Y7955D01*
G01X142412Y7851D01*
G01X142254Y7800D01*
G01X142099Y7800D01*
G01X141945Y7851D01*
G01X141891Y7904D01*
G01X141840Y8008D01*
G01X83928Y8890D02*
G01X83928Y7800D01*
G01X83565Y8890D02*
G01X84292Y8890D01*
G01X84635Y8890D02*
G01X84635Y8112D01*
G01X84688Y7955D01*
G01X84792Y7851D01*
G01X84947Y7800D01*
G01X85051Y7800D01*
G01X85206Y7851D01*
G01X85310Y7955D01*
G01X85364Y8112D01*
G01X85364Y8890D01*
G01X86433Y8890D02*
G01X85915Y7800D01*
G01X85706Y8890D02*
G01X86433Y8890D01*
G01X56243Y8890D02*
G01X56243Y7800D01*
G01X55879Y8890D02*
G01X56606Y8890D01*
G01X56949Y8890D02*
G01X56949Y8112D01*
G01X57002Y7955D01*
G01X57106Y7851D01*
G01X57261Y7800D01*
G01X57365Y7800D01*
G01X57520Y7851D01*
G01X57624Y7955D01*
G01X57678Y8112D01*
G01X57678Y8890D01*
G01X58280Y8890D02*
G01X58125Y8839D01*
G01X58071Y8735D01*
G01X58071Y8630D01*
G01X58125Y8526D01*
G01X58229Y8475D01*
G01X58435Y8422D01*
G01X58592Y8371D01*
G01X58696Y8267D01*
G01X58747Y8163D01*
G01X58747Y8008D01*
G01X58696Y7904D01*
G01X58643Y7851D01*
G01X58488Y7800D01*
G01X58280Y7800D01*
G01X58125Y7851D01*
G01X58071Y7904D01*
G01X58021Y8008D01*
G01X58021Y8163D01*
G01X58071Y8267D01*
G01X58176Y8371D01*
G01X58331Y8422D01*
G01X58539Y8475D01*
G01X58643Y8526D01*
G01X58696Y8630D01*
G01X58696Y8735D01*
G01X58643Y8839D01*
G01X58488Y8890D01*
G01X58280Y8890D01*
G01X112122Y8889D02*
G01X112122Y7800D01*
G01X111759Y8889D02*
G01X112486Y8889D01*
G01X112829Y8889D02*
G01X112829Y8112D01*
G01X112882Y7955D01*
G01X112986Y7851D01*
G01X113141Y7800D01*
G01X113245Y7800D01*
G01X113400Y7851D01*
G01X113504Y7955D01*
G01X113558Y8112D01*
G01X113558Y8889D01*
G01X114523Y8735D02*
G01X114472Y8839D01*
G01X114315Y8889D01*
G01X114210Y8889D01*
G01X114055Y8839D01*
G01X113951Y8684D01*
G01X113900Y8422D01*
G01X113900Y8163D01*
G01X113951Y7955D01*
G01X114055Y7851D01*
G01X114210Y7800D01*
G01X114264Y7800D01*
G01X114419Y7851D01*
G01X114523Y7955D01*
G01X114576Y8112D01*
G01X114576Y8163D01*
G01X114523Y8318D01*
G01X114419Y8422D01*
G01X114264Y8475D01*
G01X114210Y8475D01*
G01X114055Y8422D01*
G01X113951Y8318D01*
G01X113900Y8163D01*
G01X251822Y8890D02*
G01X251822Y7800D01*
G01X251459Y8890D02*
G01X252185Y8890D01*
G01X252528Y8890D02*
G01X252528Y8112D01*
G01X252582Y7955D01*
G01X252686Y7851D01*
G01X252841Y7800D01*
G01X252945Y7800D01*
G01X253100Y7851D01*
G01X253204Y7955D01*
G01X253257Y8112D01*
G01X253257Y8890D01*
G01X253600Y8684D02*
G01X253704Y8735D01*
G01X253859Y8890D01*
G01X253859Y7800D01*
G01X216158Y59034D02*
G01X216054Y58981D01*
G01X215950Y58877D01*
G01X215899Y58775D01*
G01X215899Y58567D01*
G01X215950Y58463D01*
G01X216054Y58358D01*
G01X216158Y58305D01*
G01X216313Y58254D01*
G01X216572Y58254D01*
G01X216730Y58305D01*
G01X216834Y58358D01*
G01X216938Y58463D01*
G01X216989Y58567D01*
G01X216989Y58775D01*
G01X216938Y58877D01*
G01X216834Y58981D01*
G01X216730Y59034D01*
G01X215899Y59377D02*
G01X216989Y59377D01*
G01X215899Y60103D02*
G01X216989Y60103D01*
G01X216417Y59377D02*
G01X216417Y60103D01*
G01X216105Y60446D02*
G01X216054Y60550D01*
G01X215899Y60705D01*
G01X216989Y60705D01*
G01X238248Y48932D02*
G01X238248Y47842D01*
G01X238248Y48932D02*
G01X238715Y48932D01*
G01X238870Y48881D01*
G01X238924Y48830D01*
G01X238974Y48726D01*
G01X238974Y48622D01*
G01X238924Y48518D01*
G01X238870Y48464D01*
G01X238715Y48414D01*
G01X238248Y48414D01*
G01X238611Y48414D02*
G01X238974Y47842D01*
G01X239317Y48932D02*
G01X239317Y47842D01*
G01X240046Y48932D02*
G01X240046Y47842D01*
G01X239317Y48414D02*
G01X240046Y48414D01*
G01X240648Y48932D02*
G01X240493Y48881D01*
G01X240440Y48777D01*
G01X240440Y48673D01*
G01X240493Y48569D01*
G01X240598Y48518D01*
G01X240803Y48464D01*
G01X240961Y48414D01*
G01X241065Y48309D01*
G01X241116Y48205D01*
G01X241116Y48050D01*
G01X241065Y47946D01*
G01X241012Y47893D01*
G01X240857Y47842D01*
G01X240648Y47842D01*
G01X240493Y47893D01*
G01X240440Y47946D01*
G01X240389Y48050D01*
G01X240389Y48205D01*
G01X240440Y48309D01*
G01X240544Y48414D01*
G01X240699Y48464D01*
G01X240907Y48518D01*
G01X241012Y48569D01*
G01X241065Y48673D01*
G01X241065Y48777D01*
G01X241012Y48881D01*
G01X240857Y48932D01*
G01X240648Y48932D01*
G01X252882Y68159D02*
G01X252778Y68055D01*
G01X252727Y67900D01*
G01X252727Y67692D01*
G01X252778Y67537D01*
G01X252882Y67433D01*
G01X252986Y67433D01*
G01X253090Y67484D01*
G01X253141Y67537D01*
G01X253194Y67641D01*
G01X253298Y67954D01*
G01X253349Y68055D01*
G01X253400Y68109D01*
G01X253504Y68159D01*
G01X253662Y68159D01*
G01X253766Y68055D01*
G01X253817Y67900D01*
G01X253817Y67692D01*
G01X253766Y67537D01*
G01X253662Y67433D01*
G01X252727Y68502D02*
G01X253817Y68764D01*
G01X252727Y69023D02*
G01X253817Y68764D01*
G01X252727Y69023D02*
G01X253817Y69282D01*
G01X252727Y69541D02*
G01X253817Y69282D01*
G01X252986Y69937D02*
G01X252933Y69937D01*
G01X252829Y69988D01*
G01X252778Y70041D01*
G01X252727Y70146D01*
G01X252727Y70354D01*
G01X252778Y70455D01*
G01X252829Y70509D01*
G01X252933Y70560D01*
G01X253037Y70560D01*
G01X253141Y70509D01*
G01X253298Y70405D01*
G01X253817Y69884D01*
G01X253817Y70613D01*
G01X243587Y54608D02*
G01X243587Y53518D01*
G01X243587Y54608D02*
G01X244054Y54608D01*
G01X244209Y54557D01*
G01X244263Y54506D01*
G01X244314Y54402D01*
G01X244314Y54245D01*
G01X244263Y54140D01*
G01X244209Y54090D01*
G01X244054Y54036D01*
G01X243587Y54036D01*
G01X244656Y54402D02*
G01X244761Y54453D01*
G01X244918Y54608D01*
G01X244918Y53518D01*
G01X107185Y45914D02*
G01X108275Y46640D01*
G01X107185Y46640D02*
G01X108275Y45914D01*
G01X107391Y46983D02*
G01X107340Y47088D01*
G01X107185Y47245D01*
G01X108275Y47245D01*
G01X235455Y69597D02*
G01X235455Y68507D01*
G01X236578Y69338D02*
G01X236524Y69442D01*
G01X236420Y69546D01*
G01X236319Y69597D01*
G01X236110Y69597D01*
G01X236006Y69546D01*
G01X235902Y69442D01*
G01X235849Y69338D01*
G01X235798Y69183D01*
G01X235798Y68924D01*
G01X235849Y68766D01*
G01X235902Y68662D01*
G01X236006Y68558D01*
G01X236110Y68507D01*
G01X236319Y68507D01*
G01X236420Y68558D01*
G01X236524Y68662D01*
G01X236578Y68766D01*
G01X236921Y69391D02*
G01X237025Y69442D01*
G01X237180Y69597D01*
G01X237180Y68507D01*
G01X40129Y62993D02*
G01X40129Y61903D01*
G01X41252Y62734D02*
G01X41199Y62838D01*
G01X41095Y62942D01*
G01X40993Y62993D01*
G01X40785Y62993D01*
G01X40681Y62942D01*
G01X40576Y62838D01*
G01X40523Y62734D01*
G01X40472Y62579D01*
G01X40472Y62320D01*
G01X40523Y62162D01*
G01X40576Y62058D01*
G01X40681Y61954D01*
G01X40785Y61903D01*
G01X40993Y61903D01*
G01X41095Y61954D01*
G01X41199Y62058D01*
G01X41252Y62162D01*
G01X42217Y62993D02*
G01X41699Y62993D01*
G01X41646Y62526D01*
G01X41699Y62579D01*
G01X41854Y62630D01*
G01X42009Y62630D01*
G01X42166Y62579D01*
G01X42271Y62475D01*
G01X42321Y62320D01*
G01X42321Y62216D01*
G01X42271Y62058D01*
G01X42166Y61954D01*
G01X42009Y61903D01*
G01X41854Y61903D01*
G01X41699Y61954D01*
G01X41646Y62007D01*
G01X41595Y62112D01*
G01X174749Y70146D02*
G01X175839Y70146D01*
G01X175008Y71268D02*
G01X174904Y71215D01*
G01X174800Y71111D01*
G01X174749Y71009D01*
G01X174749Y70801D01*
G01X174800Y70697D01*
G01X174904Y70593D01*
G01X175008Y70539D01*
G01X175163Y70488D01*
G01X175422Y70488D01*
G01X175580Y70539D01*
G01X175684Y70593D01*
G01X175788Y70697D01*
G01X175839Y70801D01*
G01X175839Y71009D01*
G01X175788Y71111D01*
G01X175684Y71215D01*
G01X175580Y71268D01*
G01X174749Y72129D02*
G01X175476Y71611D01*
G01X175476Y72391D01*
G01X174749Y72129D02*
G01X175839Y72129D01*
G01X103119Y60394D02*
G01X104209Y60394D01*
G01X103119Y60394D02*
G01X103119Y60861D01*
G01X103170Y61016D01*
G01X103221Y61069D01*
G01X103325Y61120D01*
G01X103429Y61120D01*
G01X103533Y61069D01*
G01X103587Y61016D01*
G01X103637Y60861D01*
G01X103637Y60394D02*
G01X103637Y60861D01*
G01X103691Y61016D01*
G01X103742Y61069D01*
G01X103846Y61120D01*
G01X104001Y61120D01*
G01X104105Y61069D01*
G01X104158Y61016D01*
G01X104209Y60861D01*
G01X104209Y60394D01*
G01X103325Y61463D02*
G01X103274Y61567D01*
G01X103119Y61725D01*
G01X104209Y61725D01*
G01X246127Y62662D02*
G01X247217Y62662D01*
G01X246127Y62662D02*
G01X246127Y63129D01*
G01X246178Y63284D01*
G01X246229Y63338D01*
G01X246333Y63389D01*
G01X246437Y63389D01*
G01X246541Y63338D01*
G01X246594Y63284D01*
G01X246645Y63129D01*
G01X246645Y62662D01*
G01X246645Y63025D02*
G01X247217Y63389D01*
G01X246127Y63731D02*
G01X247217Y63731D01*
G01X246127Y64460D02*
G01X247217Y64460D01*
G01X246645Y63731D02*
G01X246645Y64460D01*
G01X246386Y64854D02*
G01X246333Y64854D01*
G01X246229Y64907D01*
G01X246178Y64958D01*
G01X246127Y65062D01*
G01X246127Y65271D01*
G01X246178Y65375D01*
G01X246229Y65426D01*
G01X246333Y65479D01*
G01X246437Y65479D01*
G01X246541Y65426D01*
G01X246699Y65322D01*
G01X247217Y64803D01*
G01X247217Y65530D01*
G01X186957Y60449D02*
G01X186903Y60554D01*
G01X186799Y60658D01*
G01X186698Y60709D01*
G01X186489Y60709D01*
G01X186385Y60658D01*
G01X186281Y60554D01*
G01X186228Y60449D01*
G01X186177Y60295D01*
G01X186177Y60035D01*
G01X186228Y59878D01*
G01X186281Y59774D01*
G01X186385Y59670D01*
G01X186489Y59619D01*
G01X186698Y59619D01*
G01X186799Y59670D01*
G01X186903Y59774D01*
G01X186957Y59878D01*
G01X187922Y60709D02*
G01X187404Y60709D01*
G01X187350Y60241D01*
G01X187404Y60295D01*
G01X187559Y60345D01*
G01X187714Y60345D01*
G01X187871Y60295D01*
G01X187975Y60190D01*
G01X188026Y60035D01*
G01X188026Y59931D01*
G01X187975Y59774D01*
G01X187871Y59670D01*
G01X187714Y59619D01*
G01X187559Y59619D01*
G01X187404Y59670D01*
G01X187350Y59723D01*
G01X187300Y59827D01*
G01X188369Y60709D02*
G01X188786Y59619D01*
G01X189200Y60709D02*
G01X188786Y59619D01*
G01X178577Y70608D02*
G01X178524Y70712D01*
G01X178419Y70816D01*
G01X178318Y70867D01*
G01X178110Y70867D01*
G01X178005Y70816D01*
G01X177901Y70712D01*
G01X177848Y70608D01*
G01X177797Y70453D01*
G01X177797Y70194D01*
G01X177848Y70036D01*
G01X177901Y69932D01*
G01X178005Y69828D01*
G01X178110Y69777D01*
G01X178318Y69777D01*
G01X178419Y69828D01*
G01X178524Y69932D01*
G01X178577Y70036D01*
G01X178920Y70867D02*
G01X178920Y69777D01*
G01X178920Y70867D02*
G01X179387Y70867D01*
G01X179542Y70816D01*
G01X179595Y70765D01*
G01X179646Y70661D01*
G01X179646Y70504D01*
G01X179595Y70400D01*
G01X179542Y70349D01*
G01X179387Y70295D01*
G01X178920Y70295D01*
G01X44082Y76982D02*
G01X43978Y76929D01*
G01X43874Y76825D01*
G01X43823Y76723D01*
G01X43823Y76515D01*
G01X43874Y76411D01*
G01X43978Y76307D01*
G01X44082Y76253D01*
G01X44237Y76202D01*
G01X44496Y76202D01*
G01X44654Y76253D01*
G01X44758Y76307D01*
G01X44862Y76411D01*
G01X44913Y76515D01*
G01X44913Y76723D01*
G01X44862Y76825D01*
G01X44758Y76929D01*
G01X44654Y76982D01*
G01X43823Y77325D02*
G01X44913Y77325D01*
G01X43823Y77325D02*
G01X44913Y78052D01*
G01X43823Y78052D02*
G01X44913Y78052D01*
G01X59453Y64002D02*
G01X59400Y64106D01*
G01X59296Y64211D01*
G01X59194Y64261D01*
G01X58986Y64261D01*
G01X58882Y64211D01*
G01X58778Y64106D01*
G01X58724Y64002D01*
G01X58673Y63847D01*
G01X58673Y63588D01*
G01X58724Y63431D01*
G01X58778Y63327D01*
G01X58882Y63223D01*
G01X58986Y63172D01*
G01X59194Y63172D01*
G01X59296Y63223D01*
G01X59400Y63327D01*
G01X59453Y63431D01*
G01X60576Y64002D02*
G01X60523Y64106D01*
G01X60418Y64211D01*
G01X60314Y64261D01*
G01X60108Y64261D01*
G01X60004Y64211D01*
G01X59900Y64106D01*
G01X59847Y64002D01*
G01X59796Y63847D01*
G01X59796Y63588D01*
G01X59847Y63431D01*
G01X59900Y63327D01*
G01X60004Y63223D01*
G01X60108Y63172D01*
G01X60314Y63172D01*
G01X60418Y63223D01*
G01X60523Y63327D01*
G01X60576Y63431D01*
G01X60919Y64261D02*
G01X60919Y63172D01*
G01X60919Y64261D02*
G01X61386Y64261D01*
G01X61541Y64211D01*
G01X61594Y64160D01*
G01X61645Y64056D01*
G01X61645Y63898D01*
G01X61594Y63794D01*
G01X61541Y63743D01*
G01X61386Y63690D01*
G01X60919Y63690D01*
G01X61988Y64261D02*
G01X61988Y63484D01*
G01X62039Y63327D01*
G01X62143Y63223D01*
G01X62301Y63172D01*
G01X62405Y63172D01*
G01X62560Y63223D01*
G01X62664Y63327D01*
G01X62715Y63484D01*
G01X62715Y64261D01*
G01X95503Y58419D02*
G01X95503Y57330D01*
G01X96626Y58160D02*
G01X96573Y58264D01*
G01X96469Y58369D01*
G01X96367Y58419D01*
G01X96159Y58419D01*
G01X96055Y58369D01*
G01X95950Y58264D01*
G01X95897Y58160D01*
G01X95846Y58005D01*
G01X95846Y57746D01*
G01X95897Y57589D01*
G01X95950Y57485D01*
G01X96055Y57381D01*
G01X96159Y57330D01*
G01X96367Y57330D01*
G01X96469Y57381D01*
G01X96573Y57485D01*
G01X96626Y57589D01*
G01X97073Y58419D02*
G01X97645Y58419D01*
G01X97332Y58005D01*
G01X97487Y58005D01*
G01X97591Y57952D01*
G01X97645Y57901D01*
G01X97695Y57746D01*
G01X97695Y57642D01*
G01X97645Y57485D01*
G01X97540Y57381D01*
G01X97383Y57330D01*
G01X97228Y57330D01*
G01X97073Y57381D01*
G01X97020Y57434D01*
G01X96969Y57538D01*
G01X94518Y41677D02*
G01X94414Y41623D01*
G01X94310Y41519D01*
G01X94259Y41418D01*
G01X94259Y41209D01*
G01X94310Y41105D01*
G01X94414Y41001D01*
G01X94518Y40948D01*
G01X94673Y40897D01*
G01X94932Y40897D01*
G01X95089Y40948D01*
G01X95193Y41001D01*
G01X95298Y41105D01*
G01X95348Y41209D01*
G01X95348Y41418D01*
G01X95298Y41519D01*
G01X95193Y41623D01*
G01X95089Y41677D01*
G01X94259Y42020D02*
G01X95348Y42020D01*
G01X94259Y42020D02*
G01X94259Y42487D01*
G01X94310Y42642D01*
G01X94360Y42695D01*
G01X94465Y42746D01*
G01X94569Y42746D01*
G01X94673Y42695D01*
G01X94726Y42642D01*
G01X94777Y42487D01*
G01X94777Y42020D01*
G01X94777Y42383D02*
G01X95348Y42746D01*
G01X94259Y43452D02*
G01X95348Y43452D01*
G01X94259Y43089D02*
G01X94259Y43818D01*
G01X94518Y44938D02*
G01X94414Y44887D01*
G01X94310Y44783D01*
G01X94259Y44679D01*
G01X94259Y44471D01*
G01X94310Y44366D01*
G01X94414Y44262D01*
G01X94518Y44212D01*
G01X94673Y44161D01*
G01X94932Y44161D01*
G01X95089Y44212D01*
G01X95193Y44262D01*
G01X95298Y44366D01*
G01X95348Y44471D01*
G01X95348Y44679D01*
G01X95298Y44783D01*
G01X95193Y44887D01*
G01X95089Y44938D01*
G01X77974Y41655D02*
G01X79063Y41655D01*
G01X79063Y41655D02*
G01X79063Y42277D01*
G01X77974Y42620D02*
G01X79063Y42620D01*
G01X77974Y42620D02*
G01X77974Y43296D01*
G01X78492Y42620D02*
G01X78492Y43037D01*
G01X79063Y42620D02*
G01X79063Y43296D01*
G01X77974Y43639D02*
G01X79063Y43639D01*
G01X77974Y43639D02*
G01X77974Y44004D01*
G01X78024Y44159D01*
G01X78129Y44263D01*
G01X78233Y44314D01*
G01X78388Y44368D01*
G01X78647Y44368D01*
G01X78804Y44314D01*
G01X78908Y44263D01*
G01X79013Y44159D01*
G01X79063Y44004D01*
G01X79063Y43639D01*
G01X77974Y44710D02*
G01X78492Y45125D01*
G01X79063Y45125D01*
G01X77974Y45541D02*
G01X78492Y45125D01*
G01X77975Y46991D02*
G01X79065Y46991D01*
G01X77975Y46991D02*
G01X77975Y47458D01*
G01X78026Y47613D01*
G01X78077Y47667D01*
G01X78181Y47717D01*
G01X78285Y47717D01*
G01X78389Y47667D01*
G01X78443Y47613D01*
G01X78493Y47458D01*
G01X78493Y46991D01*
G01X78493Y47354D02*
G01X79065Y47717D01*
G01X77975Y48060D02*
G01X78493Y48477D01*
G01X79065Y48477D01*
G01X77975Y48893D02*
G01X78493Y48477D01*
G01X43687Y57149D02*
G01X43687Y56060D01*
G01X44810Y56890D02*
G01X44757Y56994D01*
G01X44653Y57099D01*
G01X44551Y57149D01*
G01X44343Y57149D01*
G01X44239Y57099D01*
G01X44134Y56994D01*
G01X44081Y56890D01*
G01X44030Y56735D01*
G01X44030Y56476D01*
G01X44081Y56319D01*
G01X44134Y56215D01*
G01X44239Y56111D01*
G01X44343Y56060D01*
G01X44551Y56060D01*
G01X44653Y56111D01*
G01X44757Y56215D01*
G01X44810Y56319D01*
G01X45204Y56890D02*
G01X45204Y56944D01*
G01X45257Y57048D01*
G01X45308Y57099D01*
G01X45412Y57149D01*
G01X45620Y57149D01*
G01X45725Y57099D01*
G01X45775Y57048D01*
G01X45829Y56944D01*
G01X45829Y56839D01*
G01X45775Y56735D01*
G01X45671Y56578D01*
G01X45153Y56060D01*
G01X45879Y56060D01*
G01X181098Y52072D02*
G01X181098Y50982D01*
G01X181098Y52072D02*
G01X181566Y52072D01*
G01X181721Y52021D01*
G01X181774Y51970D01*
G01X181825Y51866D01*
G01X181825Y51762D01*
G01X181774Y51658D01*
G01X181721Y51605D01*
G01X181566Y51554D01*
G01X181098Y51554D01*
G01X181461Y51554D02*
G01X181825Y50982D01*
G01X182533Y52072D02*
G01X182533Y50982D01*
G01X182168Y52072D02*
G01X182897Y52072D01*
G01X183239Y52072D02*
G01X183239Y51295D01*
G01X183290Y51137D01*
G01X183394Y51033D01*
G01X183549Y50982D01*
G01X183654Y50982D01*
G01X183811Y51033D01*
G01X183915Y51137D01*
G01X183966Y51295D01*
G01X183966Y52072D01*
G01X184309Y51866D02*
G01X184413Y51917D01*
G01X184568Y52072D01*
G01X184568Y50982D01*
G01X172968Y52074D02*
G01X172968Y50984D01*
G01X172968Y52074D02*
G01X173436Y52074D01*
G01X173590Y52023D01*
G01X173644Y51972D01*
G01X173695Y51868D01*
G01X173695Y51764D01*
G01X173644Y51660D01*
G01X173590Y51606D01*
G01X173436Y51555D01*
G01X172968Y51555D01*
G01X173331Y51555D02*
G01X173695Y50984D01*
G01X174403Y52074D02*
G01X174403Y50984D01*
G01X174038Y52074D02*
G01X174767Y52074D01*
G01X175109Y52074D02*
G01X175109Y51296D01*
G01X175160Y51139D01*
G01X175264Y51035D01*
G01X175419Y50984D01*
G01X175523Y50984D01*
G01X175681Y51035D01*
G01X175785Y51139D01*
G01X175836Y51296D01*
G01X175836Y52074D01*
G01X176232Y51814D02*
G01X176232Y51868D01*
G01X176283Y51972D01*
G01X176334Y52023D01*
G01X176438Y52074D01*
G01X176646Y52074D01*
G01X176750Y52023D01*
G01X176804Y51972D01*
G01X176854Y51868D01*
G01X176854Y51764D01*
G01X176804Y51660D01*
G01X176699Y51502D01*
G01X176179Y50984D01*
G01X176905Y50984D01*
G01X164840Y52074D02*
G01X164840Y50984D01*
G01X164840Y52074D02*
G01X165308Y52074D01*
G01X165463Y52023D01*
G01X165516Y51972D01*
G01X165567Y51868D01*
G01X165567Y51764D01*
G01X165516Y51660D01*
G01X165463Y51606D01*
G01X165308Y51555D01*
G01X164840Y51555D01*
G01X165203Y51555D02*
G01X165567Y50984D01*
G01X166275Y52074D02*
G01X166275Y50984D01*
G01X165910Y52074D02*
G01X166639Y52074D01*
G01X166981Y52074D02*
G01X166981Y51296D01*
G01X167032Y51139D01*
G01X167136Y51035D01*
G01X167291Y50984D01*
G01X167395Y50984D01*
G01X167553Y51035D01*
G01X167657Y51139D01*
G01X167708Y51296D01*
G01X167708Y52074D01*
G01X168155Y52074D02*
G01X168726Y52074D01*
G01X168414Y51660D01*
G01X168571Y51660D01*
G01X168676Y51606D01*
G01X168726Y51555D01*
G01X168777Y51400D01*
G01X168777Y51296D01*
G01X168726Y51139D01*
G01X168622Y51035D01*
G01X168467Y50984D01*
G01X168310Y50984D01*
G01X168155Y51035D01*
G01X168104Y51088D01*
G01X168051Y51192D01*
G01X156712Y52074D02*
G01X156712Y50984D01*
G01X156712Y52074D02*
G01X157180Y52074D01*
G01X157334Y52023D01*
G01X157388Y51972D01*
G01X157439Y51868D01*
G01X157439Y51764D01*
G01X157388Y51660D01*
G01X157334Y51606D01*
G01X157180Y51555D01*
G01X156712Y51555D01*
G01X157075Y51555D02*
G01X157439Y50984D01*
G01X158147Y52074D02*
G01X158147Y50984D01*
G01X157782Y52074D02*
G01X158510Y52074D01*
G01X158853Y52074D02*
G01X158853Y51296D01*
G01X158904Y51139D01*
G01X159008Y51035D01*
G01X159163Y50984D01*
G01X159267Y50984D01*
G01X159425Y51035D01*
G01X159529Y51139D01*
G01X159580Y51296D01*
G01X159580Y52074D01*
G01X160443Y52074D02*
G01X159923Y51347D01*
G01X160703Y51347D01*
G01X160443Y52074D02*
G01X160443Y50984D01*
G01X148622Y52072D02*
G01X148622Y50982D01*
G01X148622Y52072D02*
G01X149089Y52072D01*
G01X149244Y52021D01*
G01X149297Y51970D01*
G01X149348Y51866D01*
G01X149348Y51762D01*
G01X149297Y51658D01*
G01X149244Y51605D01*
G01X149089Y51554D01*
G01X148622Y51554D01*
G01X148985Y51554D02*
G01X149348Y50982D01*
G01X150057Y52072D02*
G01X150057Y50982D01*
G01X149691Y52072D02*
G01X150420Y52072D01*
G01X150763Y52072D02*
G01X150763Y51295D01*
G01X150814Y51137D01*
G01X150918Y51033D01*
G01X151073Y50982D01*
G01X151177Y50982D01*
G01X151334Y51033D01*
G01X151438Y51137D01*
G01X151489Y51295D01*
G01X151489Y52072D01*
G01X152457Y52072D02*
G01X151936Y52072D01*
G01X151885Y51605D01*
G01X151936Y51658D01*
G01X152091Y51709D01*
G01X152249Y51709D01*
G01X152404Y51658D01*
G01X152508Y51554D01*
G01X152559Y51399D01*
G01X152559Y51295D01*
G01X152508Y51137D01*
G01X152404Y51033D01*
G01X152249Y50982D01*
G01X152091Y50982D01*
G01X151936Y51033D01*
G01X151885Y51087D01*
G01X151832Y51191D01*
G01X140456Y52074D02*
G01X140456Y50984D01*
G01X140456Y52074D02*
G01X140924Y52074D01*
G01X141079Y52023D01*
G01X141132Y51972D01*
G01X141183Y51868D01*
G01X141183Y51764D01*
G01X141132Y51660D01*
G01X141079Y51606D01*
G01X140924Y51555D01*
G01X140456Y51555D01*
G01X140820Y51555D02*
G01X141183Y50984D01*
G01X141891Y52074D02*
G01X141891Y50984D01*
G01X141526Y52074D02*
G01X142255Y52074D01*
G01X142598Y52074D02*
G01X142598Y51296D01*
G01X142648Y51139D01*
G01X142752Y51035D01*
G01X142907Y50984D01*
G01X143012Y50984D01*
G01X143169Y51035D01*
G01X143273Y51139D01*
G01X143324Y51296D01*
G01X143324Y52074D01*
G01X144292Y51919D02*
G01X144238Y52023D01*
G01X144083Y52074D01*
G01X143979Y52074D01*
G01X143822Y52023D01*
G01X143720Y51868D01*
G01X143667Y51606D01*
G01X143667Y51347D01*
G01X143720Y51139D01*
G01X143822Y51035D01*
G01X143979Y50984D01*
G01X144030Y50984D01*
G01X144188Y51035D01*
G01X144292Y51139D01*
G01X144343Y51296D01*
G01X144343Y51347D01*
G01X144292Y51502D01*
G01X144188Y51606D01*
G01X144030Y51660D01*
G01X143979Y51660D01*
G01X143822Y51606D01*
G01X143720Y51502D01*
G01X143667Y51347D01*
G01X132328Y52074D02*
G01X132328Y50984D01*
G01X132328Y52074D02*
G01X132796Y52074D01*
G01X132951Y52023D01*
G01X133004Y51972D01*
G01X133055Y51868D01*
G01X133055Y51764D01*
G01X133004Y51660D01*
G01X132951Y51606D01*
G01X132796Y51555D01*
G01X132328Y51555D01*
G01X132692Y51555D02*
G01X133055Y50984D01*
G01X133763Y52074D02*
G01X133763Y50984D01*
G01X133398Y52074D02*
G01X134127Y52074D01*
G01X134470Y52074D02*
G01X134470Y51296D01*
G01X134520Y51139D01*
G01X134624Y51035D01*
G01X134779Y50984D01*
G01X134884Y50984D01*
G01X135041Y51035D01*
G01X135145Y51139D01*
G01X135196Y51296D01*
G01X135196Y52074D01*
G01X136265Y52074D02*
G01X135747Y50984D01*
G01X135539Y52074D02*
G01X136265Y52074D01*
G01X123949Y52071D02*
G01X123949Y50981D01*
G01X123949Y52071D02*
G01X124417Y52071D01*
G01X124571Y52020D01*
G01X124625Y51969D01*
G01X124676Y51865D01*
G01X124676Y51761D01*
G01X124625Y51657D01*
G01X124571Y51604D01*
G01X124417Y51553D01*
G01X123949Y51553D01*
G01X124312Y51553D02*
G01X124676Y50981D01*
G01X125384Y52071D02*
G01X125384Y50981D01*
G01X125019Y52071D02*
G01X125748Y52071D01*
G01X126090Y52071D02*
G01X126090Y51294D01*
G01X126141Y51136D01*
G01X126245Y51032D01*
G01X126400Y50981D01*
G01X126504Y50981D01*
G01X126662Y51032D01*
G01X126766Y51136D01*
G01X126817Y51294D01*
G01X126817Y52071D01*
G01X127419Y52071D02*
G01X127264Y52020D01*
G01X127213Y51916D01*
G01X127213Y51812D01*
G01X127264Y51708D01*
G01X127368Y51657D01*
G01X127576Y51604D01*
G01X127731Y51553D01*
G01X127835Y51449D01*
G01X127886Y51345D01*
G01X127886Y51190D01*
G01X127835Y51085D01*
G01X127785Y51032D01*
G01X127627Y50981D01*
G01X127419Y50981D01*
G01X127264Y51032D01*
G01X127213Y51085D01*
G01X127160Y51190D01*
G01X127160Y51345D01*
G01X127213Y51449D01*
G01X127315Y51553D01*
G01X127472Y51604D01*
G01X127680Y51657D01*
G01X127785Y51708D01*
G01X127835Y51812D01*
G01X127835Y51916D01*
G01X127785Y52020D01*
G01X127627Y52071D01*
G01X127419Y52071D01*
G01X176784Y39762D02*
G01X177874Y39762D01*
G01X176784Y39762D02*
G01X176784Y40229D01*
G01X176835Y40384D01*
G01X176886Y40438D01*
G01X176990Y40489D01*
G01X177094Y40489D01*
G01X177198Y40438D01*
G01X177251Y40384D01*
G01X177302Y40229D01*
G01X177302Y39762D01*
G01X177302Y40125D02*
G01X177874Y40489D01*
G01X176784Y41197D02*
G01X177874Y41197D01*
G01X176784Y40831D02*
G01X176784Y41560D01*
G01X176990Y41903D02*
G01X176939Y42007D01*
G01X176784Y42162D01*
G01X177874Y42162D01*
G01X168656Y39549D02*
G01X169746Y39549D01*
G01X168656Y39549D02*
G01X168656Y40016D01*
G01X168707Y40171D01*
G01X168758Y40224D01*
G01X168862Y40275D01*
G01X168966Y40275D01*
G01X169070Y40224D01*
G01X169123Y40171D01*
G01X169174Y40016D01*
G01X169174Y39549D01*
G01X169174Y39912D02*
G01X169746Y40275D01*
G01X168656Y40984D02*
G01X169746Y40984D01*
G01X168656Y40618D02*
G01X168656Y41347D01*
G01X168915Y41741D02*
G01X168862Y41741D01*
G01X168758Y41794D01*
G01X168707Y41845D01*
G01X168656Y41949D01*
G01X168656Y42157D01*
G01X168707Y42261D01*
G01X168758Y42312D01*
G01X168862Y42366D01*
G01X168966Y42366D01*
G01X169070Y42312D01*
G01X169228Y42208D01*
G01X169746Y41690D01*
G01X169746Y42416D01*
G01X160782Y39549D02*
G01X161872Y39549D01*
G01X160782Y39549D02*
G01X160782Y40016D01*
G01X160833Y40171D01*
G01X160884Y40224D01*
G01X160988Y40275D01*
G01X161092Y40275D01*
G01X161196Y40224D01*
G01X161249Y40171D01*
G01X161300Y40016D01*
G01X161300Y39549D01*
G01X161300Y39912D02*
G01X161872Y40275D01*
G01X160782Y40984D02*
G01X161872Y40984D01*
G01X160782Y40618D02*
G01X160782Y41347D01*
G01X160782Y41794D02*
G01X160782Y42366D01*
G01X161196Y42053D01*
G01X161196Y42208D01*
G01X161249Y42312D01*
G01X161300Y42366D01*
G01X161455Y42416D01*
G01X161559Y42416D01*
G01X161717Y42366D01*
G01X161821Y42261D01*
G01X161872Y42104D01*
G01X161872Y41949D01*
G01X161821Y41794D01*
G01X161768Y41741D01*
G01X161663Y41690D01*
G01X152400Y39495D02*
G01X153490Y39495D01*
G01X152400Y39495D02*
G01X152400Y39963D01*
G01X152451Y40118D01*
G01X152502Y40171D01*
G01X152606Y40222D01*
G01X152710Y40222D01*
G01X152814Y40171D01*
G01X152867Y40118D01*
G01X152918Y39963D01*
G01X152918Y39495D01*
G01X152918Y39859D02*
G01X153490Y40222D01*
G01X152400Y40930D02*
G01X153490Y40930D01*
G01X152400Y40565D02*
G01X152400Y41294D01*
G01X152400Y42155D02*
G01X153126Y41637D01*
G01X153126Y42416D01*
G01X152400Y42155D02*
G01X153490Y42155D01*
G01X144168Y39549D02*
G01X145258Y39549D01*
G01X144168Y39549D02*
G01X144168Y40016D01*
G01X144219Y40171D01*
G01X144270Y40224D01*
G01X144374Y40275D01*
G01X144478Y40275D01*
G01X144582Y40224D01*
G01X144635Y40171D01*
G01X144686Y40016D01*
G01X144686Y39549D01*
G01X144686Y39912D02*
G01X145258Y40275D01*
G01X144168Y40984D02*
G01X145258Y40984D01*
G01X144168Y40618D02*
G01X144168Y41347D01*
G01X144168Y42312D02*
G01X144168Y41794D01*
G01X144635Y41741D01*
G01X144582Y41794D01*
G01X144531Y41949D01*
G01X144531Y42104D01*
G01X144582Y42261D01*
G01X144686Y42366D01*
G01X144841Y42416D01*
G01X144945Y42416D01*
G01X145103Y42366D01*
G01X145207Y42261D01*
G01X145258Y42104D01*
G01X145258Y41949D01*
G01X145207Y41794D01*
G01X145153Y41741D01*
G01X145049Y41690D01*
G01X135822Y39854D02*
G01X136911Y39854D01*
G01X135822Y39854D02*
G01X135822Y40321D01*
G01X135872Y40476D01*
G01X135923Y40529D01*
G01X136027Y40580D01*
G01X136131Y40580D01*
G01X136236Y40529D01*
G01X136289Y40476D01*
G01X136340Y40321D01*
G01X136340Y39854D01*
G01X136340Y40217D02*
G01X136911Y40580D01*
G01X135822Y41289D02*
G01X136911Y41289D01*
G01X135822Y40923D02*
G01X135822Y41652D01*
G01X135976Y42617D02*
G01X135872Y42566D01*
G01X135822Y42409D01*
G01X135822Y42305D01*
G01X135872Y42150D01*
G01X136027Y42046D01*
G01X136289Y41995D01*
G01X136548Y41995D01*
G01X136756Y42046D01*
G01X136860Y42150D01*
G01X136911Y42305D01*
G01X136911Y42358D01*
G01X136860Y42513D01*
G01X136756Y42617D01*
G01X136599Y42670D01*
G01X136548Y42670D01*
G01X136393Y42617D01*
G01X136289Y42513D01*
G01X136236Y42358D01*
G01X136236Y42305D01*
G01X136289Y42150D01*
G01X136393Y42046D01*
G01X136548Y41995D01*
G01X128013Y39805D02*
G01X129103Y39805D01*
G01X128013Y39805D02*
G01X128013Y40273D01*
G01X128064Y40428D01*
G01X128115Y40481D01*
G01X128219Y40532D01*
G01X128323Y40532D01*
G01X128427Y40481D01*
G01X128480Y40428D01*
G01X128531Y40273D01*
G01X128531Y39805D01*
G01X128531Y40169D02*
G01X129103Y40532D01*
G01X128013Y41240D02*
G01X129103Y41240D01*
G01X128013Y40875D02*
G01X128013Y41604D01*
G01X128013Y42673D02*
G01X129103Y42155D01*
G01X128013Y41947D02*
G01X128013Y42673D01*
G01X119885Y39805D02*
G01X120975Y39805D01*
G01X119885Y39805D02*
G01X119885Y40273D01*
G01X119936Y40428D01*
G01X119987Y40481D01*
G01X120091Y40532D01*
G01X120195Y40532D01*
G01X120299Y40481D01*
G01X120353Y40428D01*
G01X120403Y40273D01*
G01X120403Y39805D01*
G01X120403Y40169D02*
G01X120975Y40532D01*
G01X119885Y41240D02*
G01X120975Y41240D01*
G01X119885Y40875D02*
G01X119885Y41604D01*
G01X119885Y42206D02*
G01X119936Y42051D01*
G01X120040Y41997D01*
G01X120144Y41997D01*
G01X120248Y42051D01*
G01X120299Y42155D01*
G01X120353Y42361D01*
G01X120403Y42518D01*
G01X120508Y42622D01*
G01X120612Y42673D01*
G01X120767Y42673D01*
G01X120871Y42622D01*
G01X120924Y42569D01*
G01X120975Y42414D01*
G01X120975Y42206D01*
G01X120924Y42051D01*
G01X120871Y41997D01*
G01X120767Y41947D01*
G01X120612Y41947D01*
G01X120508Y41997D01*
G01X120403Y42101D01*
G01X120353Y42256D01*
G01X120299Y42465D01*
G01X120248Y42569D01*
G01X120144Y42622D01*
G01X120040Y42622D01*
G01X119936Y42569D01*
G01X119885Y42414D01*
G01X119885Y42206D01*
G01X238505Y23050D02*
G01X239595Y23050D01*
G01X238505Y23050D02*
G01X238505Y23517D01*
G01X238556Y23672D01*
G01X238607Y23726D01*
G01X238711Y23776D01*
G01X238815Y23776D01*
G01X238919Y23726D01*
G01X238972Y23672D01*
G01X239023Y23517D01*
G01X239023Y23050D01*
G01X239023Y23413D02*
G01X239595Y23776D01*
G01X238505Y24485D02*
G01X239595Y24485D01*
G01X238505Y24119D02*
G01X238505Y24848D01*
G01X238505Y25191D02*
G01X239595Y25191D01*
G01X239595Y25191D02*
G01X239595Y25813D01*
G01X238711Y26156D02*
G01X238660Y26261D01*
G01X238505Y26415D01*
G01X239595Y26415D01*
G01X246633Y23200D02*
G01X247723Y23200D01*
G01X246633Y23200D02*
G01X246633Y23667D01*
G01X246684Y23822D01*
G01X246735Y23875D01*
G01X246839Y23926D01*
G01X246943Y23926D01*
G01X247047Y23875D01*
G01X247100Y23822D01*
G01X247151Y23667D01*
G01X247151Y23200D01*
G01X247151Y23563D02*
G01X247723Y23926D01*
G01X246633Y24635D02*
G01X247723Y24635D01*
G01X246633Y24269D02*
G01X246633Y24998D01*
G01X246633Y25341D02*
G01X247723Y25341D01*
G01X246633Y25341D02*
G01X246633Y25808D01*
G01X246684Y25963D01*
G01X246735Y26017D01*
G01X246839Y26067D01*
G01X246943Y26067D01*
G01X247047Y26017D01*
G01X247100Y25963D01*
G01X247151Y25808D01*
G01X247151Y25341D01*
G01X247151Y25704D02*
G01X247723Y26067D01*
G01X246839Y26410D02*
G01X246788Y26515D01*
G01X246633Y26669D01*
G01X247723Y26669D01*
G01X210565Y23088D02*
G01X211655Y23088D01*
G01X210565Y23088D02*
G01X210565Y23555D01*
G01X210616Y23710D01*
G01X210667Y23764D01*
G01X210771Y23814D01*
G01X210875Y23814D01*
G01X210979Y23764D01*
G01X211032Y23710D01*
G01X211083Y23555D01*
G01X211083Y23088D01*
G01X211083Y23451D02*
G01X211655Y23814D01*
G01X210565Y24523D02*
G01X211655Y24523D01*
G01X210565Y24157D02*
G01X210565Y24886D01*
G01X210565Y25229D02*
G01X211655Y25229D01*
G01X211655Y25229D02*
G01X211655Y25852D01*
G01X210824Y26248D02*
G01X210771Y26248D01*
G01X210667Y26299D01*
G01X210616Y26352D01*
G01X210565Y26454D01*
G01X210565Y26662D01*
G01X210616Y26766D01*
G01X210667Y26819D01*
G01X210771Y26870D01*
G01X210875Y26870D01*
G01X210979Y26819D01*
G01X211137Y26715D01*
G01X211655Y26194D01*
G01X211655Y26923D01*
G01X218693Y22986D02*
G01X219783Y22986D01*
G01X218693Y22986D02*
G01X218693Y23454D01*
G01X218744Y23609D01*
G01X218795Y23662D01*
G01X218899Y23713D01*
G01X219003Y23713D01*
G01X219107Y23662D01*
G01X219160Y23609D01*
G01X219211Y23454D01*
G01X219211Y22986D01*
G01X219211Y23350D02*
G01X219783Y23713D01*
G01X218693Y24422D02*
G01X219783Y24422D01*
G01X218693Y24056D02*
G01X218693Y24785D01*
G01X218693Y25128D02*
G01X219783Y25128D01*
G01X218693Y25128D02*
G01X218693Y25595D01*
G01X218744Y25750D01*
G01X218795Y25803D01*
G01X218899Y25854D01*
G01X219003Y25854D01*
G01X219107Y25803D01*
G01X219160Y25750D01*
G01X219211Y25595D01*
G01X219211Y25128D01*
G01X219211Y25491D02*
G01X219783Y25854D01*
G01X218952Y26250D02*
G01X218899Y26250D01*
G01X218795Y26301D01*
G01X218744Y26352D01*
G01X218693Y26456D01*
G01X218693Y26664D01*
G01X218744Y26769D01*
G01X218795Y26822D01*
G01X218899Y26873D01*
G01X219003Y26873D01*
G01X219107Y26822D01*
G01X219265Y26718D01*
G01X219783Y26197D01*
G01X219783Y26923D01*
G01X182625Y23088D02*
G01X183715Y23088D01*
G01X182625Y23088D02*
G01X182625Y23555D01*
G01X182676Y23710D01*
G01X182727Y23764D01*
G01X182831Y23814D01*
G01X182935Y23814D01*
G01X183039Y23764D01*
G01X183092Y23710D01*
G01X183143Y23555D01*
G01X183143Y23088D01*
G01X183143Y23451D02*
G01X183715Y23814D01*
G01X182625Y24523D02*
G01X183715Y24523D01*
G01X182625Y24157D02*
G01X182625Y24886D01*
G01X182625Y25229D02*
G01X183715Y25229D01*
G01X183715Y25229D02*
G01X183715Y25852D01*
G01X182625Y26299D02*
G01X182625Y26870D01*
G01X183039Y26558D01*
G01X183039Y26715D01*
G01X183092Y26819D01*
G01X183143Y26870D01*
G01X183298Y26923D01*
G01X183402Y26923D01*
G01X183560Y26870D01*
G01X183664Y26766D01*
G01X183715Y26611D01*
G01X183715Y26454D01*
G01X183664Y26299D01*
G01X183611Y26248D01*
G01X183506Y26194D01*
G01X190753Y23240D02*
G01X191843Y23240D01*
G01X190753Y23240D02*
G01X190753Y23708D01*
G01X190804Y23863D01*
G01X190855Y23916D01*
G01X190959Y23967D01*
G01X191063Y23967D01*
G01X191167Y23916D01*
G01X191221Y23863D01*
G01X191271Y23708D01*
G01X191271Y23240D01*
G01X191271Y23604D02*
G01X191843Y23967D01*
G01X190753Y24676D02*
G01X191843Y24676D01*
G01X190753Y24310D02*
G01X190753Y25039D01*
G01X190753Y25382D02*
G01X191843Y25382D01*
G01X190753Y25382D02*
G01X190753Y25849D01*
G01X190804Y26004D01*
G01X190855Y26057D01*
G01X190959Y26108D01*
G01X191063Y26108D01*
G01X191167Y26057D01*
G01X191221Y26004D01*
G01X191271Y25849D01*
G01X191271Y25382D01*
G01X191271Y25745D02*
G01X191843Y26108D01*
G01X190753Y26555D02*
G01X190753Y27127D01*
G01X191167Y26814D01*
G01X191167Y26972D01*
G01X191221Y27076D01*
G01X191271Y27127D01*
G01X191426Y27177D01*
G01X191530Y27177D01*
G01X191688Y27127D01*
G01X191792Y27023D01*
G01X191843Y26868D01*
G01X191843Y26710D01*
G01X191792Y26555D01*
G01X191739Y26504D01*
G01X191635Y26451D01*
G01X154431Y23291D02*
G01X155521Y23291D01*
G01X154431Y23291D02*
G01X154431Y23759D01*
G01X154482Y23914D01*
G01X154533Y23967D01*
G01X154637Y24018D01*
G01X154741Y24018D01*
G01X154845Y23967D01*
G01X154899Y23914D01*
G01X154949Y23759D01*
G01X154949Y23291D01*
G01X154949Y23654D02*
G01X155521Y24018D01*
G01X154431Y24726D02*
G01X155521Y24726D01*
G01X154431Y24361D02*
G01X154431Y25090D01*
G01X154431Y25432D02*
G01X155521Y25432D01*
G01X155521Y25432D02*
G01X155521Y26055D01*
G01X154431Y26918D02*
G01X155158Y26398D01*
G01X155158Y27177D01*
G01X154431Y26918D02*
G01X155521Y26918D01*
G01X162559Y23187D02*
G01X163649Y23187D01*
G01X162559Y23187D02*
G01X162559Y23654D01*
G01X162610Y23809D01*
G01X162661Y23863D01*
G01X162765Y23914D01*
G01X162869Y23914D01*
G01X162973Y23863D01*
G01X163027Y23809D01*
G01X163077Y23654D01*
G01X163077Y23187D01*
G01X163077Y23550D02*
G01X163649Y23914D01*
G01X162559Y24622D02*
G01X163649Y24622D01*
G01X162559Y24256D02*
G01X162559Y24985D01*
G01X162559Y25328D02*
G01X163649Y25328D01*
G01X162559Y25328D02*
G01X162559Y25796D01*
G01X162610Y25951D01*
G01X162661Y26004D01*
G01X162765Y26055D01*
G01X162869Y26055D01*
G01X162973Y26004D01*
G01X163027Y25951D01*
G01X163077Y25796D01*
G01X163077Y25328D01*
G01X163077Y25692D02*
G01X163649Y26055D01*
G01X162559Y26918D02*
G01X163286Y26398D01*
G01X163286Y27177D01*
G01X162559Y26918D02*
G01X163649Y26918D01*
G01X126491Y23088D02*
G01X127581Y23088D01*
G01X126491Y23088D02*
G01X126491Y23555D01*
G01X126542Y23710D01*
G01X126593Y23764D01*
G01X126697Y23814D01*
G01X126801Y23814D01*
G01X126905Y23764D01*
G01X126959Y23710D01*
G01X127009Y23555D01*
G01X127009Y23088D01*
G01X127009Y23451D02*
G01X127581Y23814D01*
G01X126491Y24523D02*
G01X127581Y24523D01*
G01X126491Y24157D02*
G01X126491Y24886D01*
G01X126491Y25229D02*
G01X127581Y25229D01*
G01X127581Y25229D02*
G01X127581Y25852D01*
G01X126491Y26819D02*
G01X126491Y26299D01*
G01X126959Y26248D01*
G01X126905Y26299D01*
G01X126854Y26454D01*
G01X126854Y26611D01*
G01X126905Y26766D01*
G01X127009Y26870D01*
G01X127164Y26923D01*
G01X127268Y26923D01*
G01X127426Y26870D01*
G01X127530Y26766D01*
G01X127581Y26611D01*
G01X127581Y26454D01*
G01X127530Y26299D01*
G01X127477Y26248D01*
G01X127373Y26194D01*
G01X134619Y22986D02*
G01X135709Y22986D01*
G01X134619Y22986D02*
G01X134619Y23454D01*
G01X134670Y23609D01*
G01X134721Y23662D01*
G01X134825Y23713D01*
G01X134929Y23713D01*
G01X135033Y23662D01*
G01X135087Y23609D01*
G01X135137Y23454D01*
G01X135137Y22986D01*
G01X135137Y23350D02*
G01X135709Y23713D01*
G01X134619Y24422D02*
G01X135709Y24422D01*
G01X134619Y24056D02*
G01X134619Y24785D01*
G01X134619Y25128D02*
G01X135709Y25128D01*
G01X134619Y25128D02*
G01X134619Y25595D01*
G01X134670Y25750D01*
G01X134721Y25803D01*
G01X134825Y25854D01*
G01X134929Y25854D01*
G01X135033Y25803D01*
G01X135087Y25750D01*
G01X135137Y25595D01*
G01X135137Y25128D01*
G01X135137Y25491D02*
G01X135709Y25854D01*
G01X134619Y26822D02*
G01X134619Y26301D01*
G01X135087Y26250D01*
G01X135033Y26301D01*
G01X134982Y26456D01*
G01X134982Y26614D01*
G01X135033Y26769D01*
G01X135137Y26873D01*
G01X135292Y26923D01*
G01X135396Y26923D01*
G01X135554Y26873D01*
G01X135658Y26769D01*
G01X135709Y26614D01*
G01X135709Y26456D01*
G01X135658Y26301D01*
G01X135605Y26250D01*
G01X135501Y26197D01*
G01X98551Y23141D02*
G01X99641Y23141D01*
G01X98551Y23141D02*
G01X98551Y23609D01*
G01X98602Y23764D01*
G01X98653Y23817D01*
G01X98757Y23868D01*
G01X98861Y23868D01*
G01X98965Y23817D01*
G01X99019Y23764D01*
G01X99069Y23609D01*
G01X99069Y23141D01*
G01X99069Y23505D02*
G01X99641Y23868D01*
G01X98551Y24576D02*
G01X99641Y24576D01*
G01X98551Y24211D02*
G01X98551Y24940D01*
G01X98551Y25283D02*
G01X99641Y25283D01*
G01X99641Y25283D02*
G01X99641Y25905D01*
G01X98706Y26873D02*
G01X98602Y26819D01*
G01X98551Y26664D01*
G01X98551Y26560D01*
G01X98602Y26405D01*
G01X98757Y26301D01*
G01X99019Y26248D01*
G01X99278Y26248D01*
G01X99486Y26301D01*
G01X99590Y26405D01*
G01X99641Y26560D01*
G01X99641Y26611D01*
G01X99590Y26769D01*
G01X99486Y26873D01*
G01X99328Y26923D01*
G01X99278Y26923D01*
G01X99123Y26873D01*
G01X99019Y26769D01*
G01X98965Y26611D01*
G01X98965Y26560D01*
G01X99019Y26405D01*
G01X99123Y26301D01*
G01X99278Y26248D01*
G01X106679Y23037D02*
G01X107769Y23037D01*
G01X106679Y23037D02*
G01X106679Y23505D01*
G01X106730Y23660D01*
G01X106781Y23713D01*
G01X106885Y23764D01*
G01X106989Y23764D01*
G01X107093Y23713D01*
G01X107147Y23660D01*
G01X107197Y23505D01*
G01X107197Y23037D01*
G01X107197Y23400D02*
G01X107769Y23764D01*
G01X106679Y24472D02*
G01X107769Y24472D01*
G01X106679Y24107D02*
G01X106679Y24836D01*
G01X106679Y25178D02*
G01X107769Y25178D01*
G01X106679Y25178D02*
G01X106679Y25646D01*
G01X106730Y25801D01*
G01X106781Y25854D01*
G01X106885Y25905D01*
G01X106989Y25905D01*
G01X107093Y25854D01*
G01X107147Y25801D01*
G01X107197Y25646D01*
G01X107197Y25178D01*
G01X107197Y25542D02*
G01X107769Y25905D01*
G01X106834Y26873D02*
G01X106730Y26819D01*
G01X106679Y26664D01*
G01X106679Y26560D01*
G01X106730Y26403D01*
G01X106885Y26301D01*
G01X107147Y26248D01*
G01X107406Y26248D01*
G01X107614Y26301D01*
G01X107718Y26403D01*
G01X107769Y26560D01*
G01X107769Y26611D01*
G01X107718Y26769D01*
G01X107614Y26873D01*
G01X107456Y26923D01*
G01X107406Y26923D01*
G01X107251Y26873D01*
G01X107147Y26769D01*
G01X107093Y26611D01*
G01X107093Y26560D01*
G01X107147Y26403D01*
G01X107251Y26301D01*
G01X107406Y26248D01*
G01X78739Y22986D02*
G01X79829Y22986D01*
G01X78739Y22986D02*
G01X78739Y23454D01*
G01X78790Y23609D01*
G01X78841Y23662D01*
G01X78945Y23713D01*
G01X79049Y23713D01*
G01X79153Y23662D01*
G01X79207Y23609D01*
G01X79258Y23454D01*
G01X79258Y22986D01*
G01X79258Y23350D02*
G01X79829Y23713D01*
G01X78739Y24422D02*
G01X79829Y24422D01*
G01X78739Y24056D02*
G01X78739Y24785D01*
G01X78739Y25128D02*
G01X79829Y25128D01*
G01X78739Y25128D02*
G01X78739Y25595D01*
G01X78790Y25750D01*
G01X78841Y25803D01*
G01X78945Y25854D01*
G01X79049Y25854D01*
G01X79153Y25803D01*
G01X79207Y25750D01*
G01X79258Y25595D01*
G01X79258Y25128D01*
G01X79258Y25491D02*
G01X79829Y25854D01*
G01X78739Y26923D02*
G01X79829Y26405D01*
G01X78739Y26197D02*
G01X78739Y26923D01*
G01X42671Y23342D02*
G01X43761Y23342D01*
G01X42671Y23342D02*
G01X42671Y23809D01*
G01X42722Y23964D01*
G01X42773Y24018D01*
G01X42877Y24068D01*
G01X42981Y24068D01*
G01X43085Y24018D01*
G01X43139Y23964D01*
G01X43190Y23809D01*
G01X43190Y23342D01*
G01X43190Y23705D02*
G01X43761Y24068D01*
G01X42671Y24777D02*
G01X43761Y24777D01*
G01X42671Y24411D02*
G01X42671Y25140D01*
G01X42671Y25483D02*
G01X43761Y25483D01*
G01X43761Y25483D02*
G01X43761Y26106D01*
G01X42671Y26708D02*
G01X42722Y26553D01*
G01X42826Y26502D01*
G01X42930Y26502D01*
G01X43035Y26553D01*
G01X43085Y26657D01*
G01X43139Y26865D01*
G01X43190Y27020D01*
G01X43294Y27124D01*
G01X43398Y27177D01*
G01X43553Y27177D01*
G01X43657Y27124D01*
G01X43710Y27073D01*
G01X43761Y26916D01*
G01X43761Y26708D01*
G01X43710Y26553D01*
G01X43657Y26502D01*
G01X43553Y26448D01*
G01X43398Y26448D01*
G01X43294Y26502D01*
G01X43190Y26606D01*
G01X43139Y26761D01*
G01X43085Y26969D01*
G01X43035Y27073D01*
G01X42930Y27124D01*
G01X42826Y27124D01*
G01X42722Y27073D01*
G01X42671Y26916D01*
G01X42671Y26708D01*
G01X50799Y23240D02*
G01X51889Y23240D01*
G01X50799Y23240D02*
G01X50799Y23708D01*
G01X50850Y23863D01*
G01X50901Y23916D01*
G01X51005Y23967D01*
G01X51109Y23967D01*
G01X51213Y23916D01*
G01X51267Y23863D01*
G01X51318Y23708D01*
G01X51318Y23240D01*
G01X51318Y23604D02*
G01X51889Y23967D01*
G01X50799Y24676D02*
G01X51889Y24676D01*
G01X50799Y24310D02*
G01X50799Y25039D01*
G01X50799Y25382D02*
G01X51889Y25382D01*
G01X50799Y25382D02*
G01X50799Y25849D01*
G01X50850Y26004D01*
G01X50901Y26057D01*
G01X51005Y26108D01*
G01X51109Y26108D01*
G01X51213Y26057D01*
G01X51267Y26004D01*
G01X51318Y25849D01*
G01X51318Y25382D01*
G01X51318Y25745D02*
G01X51889Y26108D01*
G01X50799Y26710D02*
G01X50850Y26555D01*
G01X50954Y26504D01*
G01X51059Y26504D01*
G01X51163Y26555D01*
G01X51213Y26659D01*
G01X51267Y26868D01*
G01X51318Y27023D01*
G01X51422Y27127D01*
G01X51526Y27177D01*
G01X51681Y27177D01*
G01X51785Y27127D01*
G01X51838Y27076D01*
G01X51889Y26918D01*
G01X51889Y26710D01*
G01X51838Y26555D01*
G01X51785Y26504D01*
G01X51681Y26451D01*
G01X51526Y26451D01*
G01X51422Y26504D01*
G01X51318Y26606D01*
G01X51267Y26763D01*
G01X51213Y26972D01*
G01X51163Y27076D01*
G01X51059Y27127D01*
G01X50954Y27127D01*
G01X50850Y27076D01*
G01X50799Y26918D01*
G01X50799Y26710D01*
G01X70611Y23088D02*
G01X71701Y23088D01*
G01X70611Y23088D02*
G01X70611Y23555D01*
G01X70662Y23710D01*
G01X70713Y23764D01*
G01X70817Y23815D01*
G01X70921Y23815D01*
G01X71025Y23764D01*
G01X71079Y23710D01*
G01X71130Y23555D01*
G01X71130Y23088D01*
G01X71130Y23451D02*
G01X71701Y23815D01*
G01X70611Y24523D02*
G01X71701Y24523D01*
G01X70611Y24157D02*
G01X70611Y24886D01*
G01X70611Y25229D02*
G01X71701Y25229D01*
G01X71701Y25229D02*
G01X71701Y25852D01*
G01X70611Y26923D02*
G01X71701Y26403D01*
G01X70611Y26194D02*
G01X70611Y26923D01*
G01X181101Y54101D02*
G01X181101Y53012D01*
G01X181101Y54101D02*
G01X181568Y54101D01*
G01X181723Y54051D01*
G01X181776Y54000D01*
G01X181827Y53896D01*
G01X181827Y53792D01*
G01X181776Y53687D01*
G01X181723Y53634D01*
G01X181568Y53583D01*
G01X181101Y53583D01*
G01X181464Y53583D02*
G01X181827Y53012D01*
G01X182536Y54101D02*
G01X182536Y53012D01*
G01X182170Y54101D02*
G01X182899Y54101D01*
G01X183242Y54101D02*
G01X183242Y53012D01*
G01X183242Y54101D02*
G01X183709Y54101D01*
G01X183864Y54051D01*
G01X183918Y54000D01*
G01X183968Y53896D01*
G01X183968Y53792D01*
G01X183918Y53687D01*
G01X183864Y53634D01*
G01X183709Y53583D01*
G01X183242Y53583D02*
G01X183709Y53583D01*
G01X183864Y53530D01*
G01X183918Y53479D01*
G01X183968Y53375D01*
G01X183968Y53220D01*
G01X183918Y53116D01*
G01X183864Y53063D01*
G01X183709Y53012D01*
G01X183242Y53012D01*
G01X184311Y53896D02*
G01X184415Y53947D01*
G01X184570Y54101D01*
G01X184570Y53012D01*
G01X172968Y54106D02*
G01X172968Y53016D01*
G01X172968Y54106D02*
G01X173436Y54106D01*
G01X173591Y54055D01*
G01X173644Y54004D01*
G01X173695Y53900D01*
G01X173695Y53796D01*
G01X173644Y53692D01*
G01X173591Y53638D01*
G01X173436Y53587D01*
G01X172968Y53587D01*
G01X173331Y53587D02*
G01X173695Y53016D01*
G01X174403Y54106D02*
G01X174403Y53016D01*
G01X174038Y54106D02*
G01X174767Y54106D01*
G01X175109Y54106D02*
G01X175109Y53016D01*
G01X175109Y54106D02*
G01X175577Y54106D01*
G01X175732Y54055D01*
G01X175785Y54004D01*
G01X175836Y53900D01*
G01X175836Y53796D01*
G01X175785Y53692D01*
G01X175732Y53638D01*
G01X175577Y53587D01*
G01X175109Y53587D02*
G01X175577Y53587D01*
G01X175732Y53534D01*
G01X175785Y53483D01*
G01X175836Y53379D01*
G01X175836Y53224D01*
G01X175785Y53120D01*
G01X175732Y53067D01*
G01X175577Y53016D01*
G01X175109Y53016D01*
G01X176232Y53847D02*
G01X176232Y53900D01*
G01X176283Y54004D01*
G01X176334Y54055D01*
G01X176438Y54106D01*
G01X176646Y54106D01*
G01X176750Y54055D01*
G01X176804Y54004D01*
G01X176854Y53900D01*
G01X176854Y53796D01*
G01X176804Y53692D01*
G01X176700Y53534D01*
G01X176179Y53016D01*
G01X176905Y53016D01*
G01X164840Y54106D02*
G01X164840Y53016D01*
G01X164840Y54106D02*
G01X165308Y54106D01*
G01X165463Y54055D01*
G01X165516Y54004D01*
G01X165567Y53900D01*
G01X165567Y53796D01*
G01X165516Y53692D01*
G01X165463Y53638D01*
G01X165308Y53587D01*
G01X164840Y53587D01*
G01X165203Y53587D02*
G01X165567Y53016D01*
G01X166275Y54106D02*
G01X166275Y53016D01*
G01X165910Y54106D02*
G01X166639Y54106D01*
G01X166981Y54106D02*
G01X166981Y53016D01*
G01X166981Y54106D02*
G01X167449Y54106D01*
G01X167604Y54055D01*
G01X167657Y54004D01*
G01X167708Y53900D01*
G01X167708Y53796D01*
G01X167657Y53692D01*
G01X167604Y53638D01*
G01X167449Y53587D01*
G01X166981Y53587D02*
G01X167449Y53587D01*
G01X167604Y53534D01*
G01X167657Y53483D01*
G01X167708Y53379D01*
G01X167708Y53224D01*
G01X167657Y53120D01*
G01X167604Y53067D01*
G01X167449Y53016D01*
G01X166981Y53016D01*
G01X168155Y54106D02*
G01X168726Y54106D01*
G01X168414Y53692D01*
G01X168572Y53692D01*
G01X168676Y53638D01*
G01X168726Y53587D01*
G01X168777Y53433D01*
G01X168777Y53328D01*
G01X168726Y53171D01*
G01X168622Y53067D01*
G01X168467Y53016D01*
G01X168310Y53016D01*
G01X168155Y53067D01*
G01X168104Y53120D01*
G01X168051Y53224D01*
G01X156712Y54106D02*
G01X156712Y53016D01*
G01X156712Y54106D02*
G01X157180Y54106D01*
G01X157334Y54055D01*
G01X157388Y54004D01*
G01X157439Y53900D01*
G01X157439Y53796D01*
G01X157388Y53692D01*
G01X157334Y53638D01*
G01X157180Y53587D01*
G01X156712Y53587D01*
G01X157075Y53587D02*
G01X157439Y53016D01*
G01X158147Y54106D02*
G01X158147Y53016D01*
G01X157782Y54106D02*
G01X158511Y54106D01*
G01X158853Y54106D02*
G01X158853Y53016D01*
G01X158853Y54106D02*
G01X159321Y54106D01*
G01X159476Y54055D01*
G01X159529Y54004D01*
G01X159580Y53900D01*
G01X159580Y53796D01*
G01X159529Y53692D01*
G01X159476Y53638D01*
G01X159321Y53587D01*
G01X158853Y53587D02*
G01X159321Y53587D01*
G01X159476Y53534D01*
G01X159529Y53483D01*
G01X159580Y53379D01*
G01X159580Y53224D01*
G01X159529Y53120D01*
G01X159476Y53067D01*
G01X159321Y53016D01*
G01X158853Y53016D01*
G01X160443Y54106D02*
G01X159923Y53379D01*
G01X160703Y53379D01*
G01X160443Y54106D02*
G01X160443Y53016D01*
G01X148584Y54106D02*
G01X148584Y53016D01*
G01X148584Y54106D02*
G01X149052Y54106D01*
G01X149207Y54055D01*
G01X149260Y54004D01*
G01X149311Y53900D01*
G01X149311Y53796D01*
G01X149260Y53692D01*
G01X149207Y53638D01*
G01X149052Y53587D01*
G01X148584Y53587D01*
G01X148947Y53587D02*
G01X149311Y53016D01*
G01X150019Y54106D02*
G01X150019Y53016D01*
G01X149654Y54106D02*
G01X150383Y54106D01*
G01X150725Y54106D02*
G01X150725Y53016D01*
G01X150725Y54106D02*
G01X151193Y54106D01*
G01X151348Y54055D01*
G01X151401Y54004D01*
G01X151452Y53900D01*
G01X151452Y53796D01*
G01X151401Y53692D01*
G01X151348Y53638D01*
G01X151193Y53587D01*
G01X150725Y53587D02*
G01X151193Y53587D01*
G01X151348Y53534D01*
G01X151401Y53483D01*
G01X151452Y53379D01*
G01X151452Y53224D01*
G01X151401Y53120D01*
G01X151348Y53067D01*
G01X151193Y53016D01*
G01X150725Y53016D01*
G01X152420Y54106D02*
G01X151899Y54106D01*
G01X151848Y53638D01*
G01X151899Y53692D01*
G01X152054Y53742D01*
G01X152211Y53742D01*
G01X152366Y53692D01*
G01X152470Y53587D01*
G01X152521Y53433D01*
G01X152521Y53328D01*
G01X152470Y53171D01*
G01X152366Y53067D01*
G01X152211Y53016D01*
G01X152054Y53016D01*
G01X151899Y53067D01*
G01X151848Y53120D01*
G01X151795Y53224D01*
G01X140456Y54106D02*
G01X140456Y53016D01*
G01X140456Y54106D02*
G01X140924Y54106D01*
G01X141079Y54055D01*
G01X141132Y54004D01*
G01X141183Y53900D01*
G01X141183Y53796D01*
G01X141132Y53692D01*
G01X141079Y53638D01*
G01X140924Y53587D01*
G01X140456Y53587D01*
G01X140820Y53587D02*
G01X141183Y53016D01*
G01X141891Y54106D02*
G01X141891Y53016D01*
G01X141526Y54106D02*
G01X142255Y54106D01*
G01X142598Y54106D02*
G01X142598Y53016D01*
G01X142598Y54106D02*
G01X143065Y54106D01*
G01X143220Y54055D01*
G01X143273Y54004D01*
G01X143324Y53900D01*
G01X143324Y53796D01*
G01X143273Y53692D01*
G01X143220Y53638D01*
G01X143065Y53587D01*
G01X142598Y53587D02*
G01X143065Y53587D01*
G01X143220Y53534D01*
G01X143273Y53483D01*
G01X143324Y53379D01*
G01X143324Y53224D01*
G01X143273Y53120D01*
G01X143220Y53067D01*
G01X143065Y53016D01*
G01X142598Y53016D01*
G01X144292Y53951D02*
G01X144238Y54055D01*
G01X144083Y54106D01*
G01X143979Y54106D01*
G01X143822Y54055D01*
G01X143720Y53900D01*
G01X143667Y53638D01*
G01X143667Y53379D01*
G01X143720Y53171D01*
G01X143822Y53067D01*
G01X143979Y53016D01*
G01X144030Y53016D01*
G01X144188Y53067D01*
G01X144292Y53171D01*
G01X144342Y53328D01*
G01X144342Y53379D01*
G01X144292Y53534D01*
G01X144188Y53638D01*
G01X144030Y53692D01*
G01X143979Y53692D01*
G01X143822Y53638D01*
G01X143720Y53534D01*
G01X143667Y53379D01*
G01X132328Y54106D02*
G01X132328Y53016D01*
G01X132328Y54106D02*
G01X132796Y54106D01*
G01X132951Y54055D01*
G01X133004Y54004D01*
G01X133055Y53900D01*
G01X133055Y53796D01*
G01X133004Y53692D01*
G01X132951Y53638D01*
G01X132796Y53587D01*
G01X132328Y53587D01*
G01X132692Y53587D02*
G01X133055Y53016D01*
G01X133763Y54106D02*
G01X133763Y53016D01*
G01X133398Y54106D02*
G01X134127Y54106D01*
G01X134470Y54106D02*
G01X134470Y53016D01*
G01X134470Y54106D02*
G01X134937Y54106D01*
G01X135092Y54055D01*
G01X135145Y54004D01*
G01X135196Y53900D01*
G01X135196Y53796D01*
G01X135145Y53692D01*
G01X135092Y53638D01*
G01X134937Y53587D01*
G01X134470Y53587D02*
G01X134937Y53587D01*
G01X135092Y53534D01*
G01X135145Y53483D01*
G01X135196Y53379D01*
G01X135196Y53224D01*
G01X135145Y53120D01*
G01X135092Y53067D01*
G01X134937Y53016D01*
G01X134470Y53016D01*
G01X136265Y54106D02*
G01X135747Y53016D01*
G01X135539Y54106D02*
G01X136265Y54106D01*
G01X123949Y54103D02*
G01X123949Y53013D01*
G01X123949Y54103D02*
G01X124416Y54103D01*
G01X124571Y54052D01*
G01X124625Y54001D01*
G01X124675Y53897D01*
G01X124675Y53793D01*
G01X124625Y53689D01*
G01X124571Y53636D01*
G01X124416Y53585D01*
G01X123949Y53585D01*
G01X124312Y53585D02*
G01X124675Y53013D01*
G01X125384Y54103D02*
G01X125384Y53013D01*
G01X125018Y54103D02*
G01X125747Y54103D01*
G01X126090Y54103D02*
G01X126090Y53013D01*
G01X126090Y54103D02*
G01X126558Y54103D01*
G01X126713Y54052D01*
G01X126766Y54001D01*
G01X126817Y53897D01*
G01X126817Y53793D01*
G01X126766Y53689D01*
G01X126713Y53636D01*
G01X126558Y53585D01*
G01X126090Y53585D02*
G01X126558Y53585D01*
G01X126713Y53532D01*
G01X126766Y53481D01*
G01X126817Y53377D01*
G01X126817Y53222D01*
G01X126766Y53118D01*
G01X126713Y53064D01*
G01X126558Y53013D01*
G01X126090Y53013D01*
G01X127419Y54103D02*
G01X127264Y54052D01*
G01X127213Y53948D01*
G01X127213Y53844D01*
G01X127264Y53740D01*
G01X127368Y53689D01*
G01X127576Y53636D01*
G01X127731Y53585D01*
G01X127835Y53481D01*
G01X127886Y53377D01*
G01X127886Y53222D01*
G01X127835Y53118D01*
G01X127784Y53064D01*
G01X127627Y53013D01*
G01X127419Y53013D01*
G01X127264Y53064D01*
G01X127213Y53118D01*
G01X127160Y53222D01*
G01X127160Y53377D01*
G01X127213Y53481D01*
G01X127314Y53585D01*
G01X127472Y53636D01*
G01X127680Y53689D01*
G01X127784Y53740D01*
G01X127835Y53844D01*
G01X127835Y53948D01*
G01X127784Y54052D01*
G01X127627Y54103D01*
G01X127419Y54103D01*
G01X213108Y10667D02*
G01X213108Y9577D01*
G01X213108Y10667D02*
G01X213575Y10667D01*
G01X213730Y10616D01*
G01X213783Y10566D01*
G01X213834Y10461D01*
G01X213834Y10357D01*
G01X213783Y10253D01*
G01X213730Y10200D01*
G01X213575Y10149D01*
G01X213108Y10149D01*
G01X213471Y10149D02*
G01X213834Y9577D01*
G01X214957Y10408D02*
G01X214906Y10512D01*
G01X214802Y10616D01*
G01X214698Y10667D01*
G01X214490Y10667D01*
G01X214385Y10616D01*
G01X214281Y10512D01*
G01X214230Y10408D01*
G01X214177Y10253D01*
G01X214177Y9994D01*
G01X214230Y9837D01*
G01X214281Y9732D01*
G01X214385Y9628D01*
G01X214490Y9577D01*
G01X214698Y9577D01*
G01X214802Y9628D01*
G01X214906Y9732D01*
G01X214957Y9837D01*
G01X214957Y9994D01*
G01X214698Y9994D02*
G01X214957Y9994D01*
G01X215300Y10667D02*
G01X215300Y9577D01*
G01X215300Y10667D02*
G01X215767Y10667D01*
G01X215925Y10616D01*
G01X215975Y10566D01*
G01X216029Y10461D01*
G01X216029Y10357D01*
G01X215975Y10253D01*
G01X215925Y10200D01*
G01X215767Y10149D01*
G01X215300Y10149D02*
G01X215767Y10149D01*
G01X215925Y10096D01*
G01X215975Y10045D01*
G01X216029Y9941D01*
G01X216029Y9786D01*
G01X215975Y9682D01*
G01X215925Y9628D01*
G01X215767Y9577D01*
G01X215300Y9577D01*
G01X216422Y10408D02*
G01X216422Y10461D01*
G01X216473Y10566D01*
G01X216527Y10616D01*
G01X216631Y10667D01*
G01X216839Y10667D01*
G01X216943Y10616D01*
G01X216994Y10566D01*
G01X217045Y10461D01*
G01X217045Y10357D01*
G01X216994Y10253D01*
G01X216890Y10096D01*
G01X216372Y9577D01*
G01X217098Y9577D01*
G01X241363Y10665D02*
G01X241363Y9575D01*
G01X241363Y10665D02*
G01X241830Y10665D01*
G01X241985Y10614D01*
G01X242039Y10563D01*
G01X242089Y10459D01*
G01X242089Y10355D01*
G01X242039Y10251D01*
G01X241985Y10197D01*
G01X241830Y10146D01*
G01X241363Y10146D01*
G01X241726Y10146D02*
G01X242089Y9575D01*
G01X243212Y10405D02*
G01X243161Y10510D01*
G01X243057Y10614D01*
G01X242953Y10665D01*
G01X242745Y10665D01*
G01X242641Y10614D01*
G01X242537Y10510D01*
G01X242486Y10405D01*
G01X242432Y10251D01*
G01X242432Y9991D01*
G01X242486Y9834D01*
G01X242537Y9730D01*
G01X242641Y9626D01*
G01X242745Y9575D01*
G01X242953Y9575D01*
G01X243057Y9626D01*
G01X243161Y9730D01*
G01X243212Y9834D01*
G01X243212Y9991D01*
G01X242953Y9991D02*
G01X243212Y9991D01*
G01X243555Y10665D02*
G01X243555Y9575D01*
G01X243555Y10665D02*
G01X244022Y10665D01*
G01X244180Y10614D01*
G01X244231Y10563D01*
G01X244284Y10459D01*
G01X244284Y10355D01*
G01X244231Y10251D01*
G01X244180Y10197D01*
G01X244022Y10146D01*
G01X243555Y10146D02*
G01X244022Y10146D01*
G01X244180Y10093D01*
G01X244231Y10042D01*
G01X244284Y9938D01*
G01X244284Y9783D01*
G01X244231Y9679D01*
G01X244180Y9626D01*
G01X244022Y9575D01*
G01X243555Y9575D01*
G01X244627Y10459D02*
G01X244729Y10510D01*
G01X244886Y10665D01*
G01X244886Y9575D01*
G01X185364Y10666D02*
G01X185364Y9576D01*
G01X185364Y10666D02*
G01X185831Y10666D01*
G01X185986Y10615D01*
G01X186039Y10564D01*
G01X186090Y10460D01*
G01X186090Y10356D01*
G01X186039Y10252D01*
G01X185986Y10198D01*
G01X185831Y10147D01*
G01X185364Y10147D01*
G01X185727Y10147D02*
G01X186090Y9576D01*
G01X187213Y10407D02*
G01X187162Y10511D01*
G01X187058Y10615D01*
G01X186954Y10666D01*
G01X186746Y10666D01*
G01X186641Y10615D01*
G01X186537Y10511D01*
G01X186486Y10407D01*
G01X186433Y10252D01*
G01X186433Y9992D01*
G01X186486Y9835D01*
G01X186537Y9731D01*
G01X186641Y9627D01*
G01X186746Y9576D01*
G01X186954Y9576D01*
G01X187058Y9627D01*
G01X187162Y9731D01*
G01X187213Y9835D01*
G01X187213Y9992D01*
G01X186954Y9992D02*
G01X187213Y9992D01*
G01X187556Y10666D02*
G01X187556Y9576D01*
G01X187556Y10666D02*
G01X188023Y10666D01*
G01X188181Y10615D01*
G01X188231Y10564D01*
G01X188285Y10460D01*
G01X188285Y10356D01*
G01X188231Y10252D01*
G01X188181Y10198D01*
G01X188023Y10147D01*
G01X187556Y10147D02*
G01X188023Y10147D01*
G01X188181Y10094D01*
G01X188231Y10043D01*
G01X188285Y9939D01*
G01X188285Y9784D01*
G01X188231Y9680D01*
G01X188181Y9627D01*
G01X188023Y9576D01*
G01X187556Y9576D01*
G01X188729Y10666D02*
G01X189301Y10666D01*
G01X188991Y10252D01*
G01X189146Y10252D01*
G01X189250Y10198D01*
G01X189301Y10147D01*
G01X189354Y9992D01*
G01X189354Y9888D01*
G01X189301Y9731D01*
G01X189199Y9627D01*
G01X189042Y9576D01*
G01X188887Y9576D01*
G01X188729Y9627D01*
G01X188678Y9680D01*
G01X188628Y9784D01*
G01X101363Y10665D02*
G01X101363Y9575D01*
G01X101363Y10665D02*
G01X101830Y10665D01*
G01X101985Y10614D01*
G01X102039Y10563D01*
G01X102089Y10459D01*
G01X102089Y10355D01*
G01X102039Y10251D01*
G01X101985Y10197D01*
G01X101830Y10146D01*
G01X101363Y10146D01*
G01X101726Y10146D02*
G01X102089Y9575D01*
G01X103212Y10406D02*
G01X103161Y10510D01*
G01X103057Y10614D01*
G01X102953Y10665D01*
G01X102745Y10665D01*
G01X102641Y10614D01*
G01X102536Y10510D01*
G01X102486Y10406D01*
G01X102432Y10251D01*
G01X102432Y9992D01*
G01X102486Y9834D01*
G01X102536Y9730D01*
G01X102641Y9626D01*
G01X102745Y9575D01*
G01X102953Y9575D01*
G01X103057Y9626D01*
G01X103161Y9730D01*
G01X103212Y9834D01*
G01X103212Y9992D01*
G01X102953Y9992D02*
G01X103212Y9992D01*
G01X103555Y10665D02*
G01X103555Y9575D01*
G01X103555Y10665D02*
G01X104022Y10665D01*
G01X104180Y10614D01*
G01X104231Y10563D01*
G01X104284Y10459D01*
G01X104284Y10355D01*
G01X104231Y10251D01*
G01X104180Y10197D01*
G01X104022Y10146D01*
G01X103555Y10146D02*
G01X104022Y10146D01*
G01X104180Y10093D01*
G01X104231Y10042D01*
G01X104284Y9938D01*
G01X104284Y9783D01*
G01X104231Y9679D01*
G01X104180Y9626D01*
G01X104022Y9575D01*
G01X103555Y9575D01*
G01X105249Y10510D02*
G01X105198Y10614D01*
G01X105041Y10665D01*
G01X104937Y10665D01*
G01X104782Y10614D01*
G01X104678Y10459D01*
G01X104627Y10197D01*
G01X104627Y9938D01*
G01X104678Y9730D01*
G01X104782Y9626D01*
G01X104937Y9575D01*
G01X104990Y9575D01*
G01X105145Y9626D01*
G01X105249Y9730D01*
G01X105300Y9887D01*
G01X105300Y9938D01*
G01X105249Y10093D01*
G01X105145Y10197D01*
G01X104990Y10251D01*
G01X104937Y10251D01*
G01X104782Y10197D01*
G01X104678Y10093D01*
G01X104627Y9938D01*
G01X157363Y10666D02*
G01X157363Y9576D01*
G01X157363Y10666D02*
G01X157830Y10666D01*
G01X157985Y10615D01*
G01X158038Y10564D01*
G01X158089Y10460D01*
G01X158089Y10356D01*
G01X158038Y10252D01*
G01X157985Y10198D01*
G01X157830Y10147D01*
G01X157363Y10147D01*
G01X157726Y10147D02*
G01X158089Y9576D01*
G01X159212Y10406D02*
G01X159161Y10511D01*
G01X159057Y10615D01*
G01X158953Y10666D01*
G01X158744Y10666D01*
G01X158640Y10615D01*
G01X158536Y10511D01*
G01X158485Y10406D01*
G01X158432Y10252D01*
G01X158432Y9992D01*
G01X158485Y9835D01*
G01X158536Y9731D01*
G01X158640Y9627D01*
G01X158744Y9576D01*
G01X158953Y9576D01*
G01X159057Y9627D01*
G01X159161Y9731D01*
G01X159212Y9835D01*
G01X159212Y9992D01*
G01X158953Y9992D02*
G01X159212Y9992D01*
G01X159555Y10666D02*
G01X159555Y9576D01*
G01X159555Y10666D02*
G01X160022Y10666D01*
G01X160179Y10615D01*
G01X160230Y10564D01*
G01X160284Y10460D01*
G01X160284Y10356D01*
G01X160230Y10252D01*
G01X160179Y10198D01*
G01X160022Y10147D01*
G01X159555Y10147D02*
G01X160022Y10147D01*
G01X160179Y10094D01*
G01X160230Y10043D01*
G01X160284Y9939D01*
G01X160284Y9784D01*
G01X160230Y9680D01*
G01X160179Y9627D01*
G01X160022Y9576D01*
G01X159555Y9576D01*
G01X161145Y10666D02*
G01X160626Y9939D01*
G01X161404Y9939D01*
G01X161145Y10666D02*
G01X161145Y9576D01*
G01X129109Y10665D02*
G01X129109Y9575D01*
G01X129109Y10665D02*
G01X129576Y10665D01*
G01X129731Y10614D01*
G01X129785Y10563D01*
G01X129835Y10459D01*
G01X129835Y10355D01*
G01X129785Y10251D01*
G01X129731Y10197D01*
G01X129576Y10146D01*
G01X129109Y10146D01*
G01X129472Y10146D02*
G01X129835Y9575D01*
G01X130958Y10406D02*
G01X130907Y10510D01*
G01X130803Y10614D01*
G01X130699Y10665D01*
G01X130491Y10665D01*
G01X130387Y10614D01*
G01X130282Y10510D01*
G01X130232Y10406D01*
G01X130178Y10251D01*
G01X130178Y9992D01*
G01X130232Y9834D01*
G01X130282Y9730D01*
G01X130387Y9626D01*
G01X130491Y9575D01*
G01X130699Y9575D01*
G01X130803Y9626D01*
G01X130907Y9730D01*
G01X130958Y9834D01*
G01X130958Y9992D01*
G01X130699Y9992D02*
G01X130958Y9992D01*
G01X131301Y10665D02*
G01X131301Y9575D01*
G01X131301Y10665D02*
G01X131768Y10665D01*
G01X131926Y10614D01*
G01X131977Y10563D01*
G01X132030Y10459D01*
G01X132030Y10355D01*
G01X131977Y10251D01*
G01X131926Y10197D01*
G01X131768Y10146D01*
G01X131301Y10146D02*
G01X131768Y10146D01*
G01X131926Y10093D01*
G01X131977Y10042D01*
G01X132030Y9938D01*
G01X132030Y9783D01*
G01X131977Y9679D01*
G01X131926Y9626D01*
G01X131768Y9575D01*
G01X131301Y9575D01*
G01X132995Y10665D02*
G01X132474Y10665D01*
G01X132424Y10197D01*
G01X132474Y10251D01*
G01X132632Y10301D01*
G01X132787Y10301D01*
G01X132944Y10251D01*
G01X133046Y10146D01*
G01X133099Y9992D01*
G01X133099Y9887D01*
G01X133046Y9730D01*
G01X132944Y9626D01*
G01X132787Y9575D01*
G01X132632Y9575D01*
G01X132474Y9626D01*
G01X132424Y9679D01*
G01X132373Y9783D01*
G01X73362Y10666D02*
G01X73362Y9576D01*
G01X73362Y10666D02*
G01X73830Y10666D01*
G01X73985Y10615D01*
G01X74038Y10564D01*
G01X74089Y10460D01*
G01X74089Y10356D01*
G01X74038Y10252D01*
G01X73985Y10198D01*
G01X73830Y10147D01*
G01X73362Y10147D01*
G01X73726Y10147D02*
G01X74089Y9576D01*
G01X75212Y10406D02*
G01X75161Y10511D01*
G01X75057Y10615D01*
G01X74952Y10666D01*
G01X74744Y10666D01*
G01X74640Y10615D01*
G01X74536Y10511D01*
G01X74485Y10406D01*
G01X74432Y10252D01*
G01X74432Y9992D01*
G01X74485Y9835D01*
G01X74536Y9731D01*
G01X74640Y9627D01*
G01X74744Y9576D01*
G01X74952Y9576D01*
G01X75057Y9627D01*
G01X75161Y9731D01*
G01X75212Y9835D01*
G01X75212Y9992D01*
G01X74952Y9992D02*
G01X75212Y9992D01*
G01X75554Y10666D02*
G01X75554Y9576D01*
G01X75554Y10666D02*
G01X76022Y10666D01*
G01X76179Y10615D01*
G01X76230Y10564D01*
G01X76283Y10460D01*
G01X76283Y10356D01*
G01X76230Y10252D01*
G01X76179Y10198D01*
G01X76022Y10147D01*
G01X75554Y10147D02*
G01X76022Y10147D01*
G01X76179Y10094D01*
G01X76230Y10043D01*
G01X76283Y9939D01*
G01X76283Y9784D01*
G01X76230Y9680D01*
G01X76179Y9627D01*
G01X76022Y9576D01*
G01X75554Y9576D01*
G01X77353Y10666D02*
G01X76832Y9576D01*
G01X76626Y10666D02*
G01X77353Y10666D01*
G01X45363Y10665D02*
G01X45363Y9575D01*
G01X45363Y10665D02*
G01X45830Y10665D01*
G01X45985Y10614D01*
G01X46039Y10563D01*
G01X46089Y10459D01*
G01X46089Y10355D01*
G01X46039Y10251D01*
G01X45985Y10197D01*
G01X45830Y10146D01*
G01X45363Y10146D01*
G01X45726Y10146D02*
G01X46089Y9575D01*
G01X47212Y10406D02*
G01X47161Y10510D01*
G01X47057Y10614D01*
G01X46953Y10665D01*
G01X46745Y10665D01*
G01X46641Y10614D01*
G01X46536Y10510D01*
G01X46486Y10406D01*
G01X46432Y10251D01*
G01X46432Y9992D01*
G01X46486Y9834D01*
G01X46536Y9730D01*
G01X46641Y9626D01*
G01X46745Y9575D01*
G01X46953Y9575D01*
G01X47057Y9626D01*
G01X47161Y9730D01*
G01X47212Y9834D01*
G01X47212Y9992D01*
G01X46953Y9992D02*
G01X47212Y9992D01*
G01X47555Y10665D02*
G01X47555Y9575D01*
G01X47555Y10665D02*
G01X48022Y10665D01*
G01X48180Y10614D01*
G01X48231Y10563D01*
G01X48284Y10459D01*
G01X48284Y10355D01*
G01X48231Y10251D01*
G01X48180Y10197D01*
G01X48022Y10146D01*
G01X47555Y10146D02*
G01X48022Y10146D01*
G01X48180Y10093D01*
G01X48231Y10042D01*
G01X48284Y9938D01*
G01X48284Y9783D01*
G01X48231Y9679D01*
G01X48180Y9626D01*
G01X48022Y9575D01*
G01X47555Y9575D01*
G01X48886Y10665D02*
G01X48728Y10614D01*
G01X48678Y10510D01*
G01X48678Y10406D01*
G01X48728Y10301D01*
G01X48833Y10251D01*
G01X49041Y10197D01*
G01X49198Y10146D01*
G01X49300Y10042D01*
G01X49353Y9938D01*
G01X49353Y9783D01*
G01X49300Y9679D01*
G01X49249Y9626D01*
G01X49094Y9575D01*
G01X48886Y9575D01*
G01X48728Y9626D01*
G01X48678Y9679D01*
G01X48627Y9783D01*
G01X48627Y9938D01*
G01X48678Y10042D01*
G01X48782Y10146D01*
G01X48937Y10197D01*
G01X49145Y10251D01*
G01X49249Y10301D01*
G01X49300Y10406D01*
G01X49300Y10510D01*
G01X49249Y10614D01*
G01X49094Y10665D01*
G01X48886Y10665D01*
G01X179128Y42416D02*
G01X179024Y42366D01*
G01X178920Y42261D01*
G01X178867Y42157D01*
G01X178816Y42002D01*
G01X178816Y41743D01*
G01X178867Y41586D01*
G01X178920Y41482D01*
G01X179024Y41378D01*
G01X179128Y41327D01*
G01X179337Y41327D01*
G01X179438Y41378D01*
G01X179542Y41482D01*
G01X179596Y41586D01*
G01X179647Y41743D01*
G01X179647Y42002D01*
G01X179596Y42157D01*
G01X179542Y42261D01*
G01X179438Y42366D01*
G01X179337Y42416D01*
G01X179128Y42416D01*
G01X179283Y41535D02*
G01X179596Y41223D01*
G01X180406Y42416D02*
G01X179989Y41327D01*
G01X180406Y42416D02*
G01X180823Y41327D01*
G01X180147Y41690D02*
G01X180665Y41690D01*
G01X181166Y42416D02*
G01X181166Y41327D01*
G01X181166Y42416D02*
G01X181633Y42416D01*
G01X181788Y42366D01*
G01X181839Y42315D01*
G01X181892Y42211D01*
G01X181892Y42053D01*
G01X181839Y41949D01*
G01X181788Y41898D01*
G01X181633Y41845D01*
G01X181166Y41845D01*
G01X182235Y42211D02*
G01X182339Y42261D01*
G01X182494Y42416D01*
G01X182494Y41327D01*
G01X174805Y55630D02*
G01X174701Y55579D01*
G01X174596Y55475D01*
G01X174543Y55371D01*
G01X174492Y55216D01*
G01X174492Y54957D01*
G01X174543Y54799D01*
G01X174596Y54695D01*
G01X174701Y54591D01*
G01X174805Y54540D01*
G01X175013Y54540D01*
G01X175115Y54591D01*
G01X175219Y54695D01*
G01X175272Y54799D01*
G01X175323Y54957D01*
G01X175323Y55216D01*
G01X175272Y55371D01*
G01X175219Y55475D01*
G01X175115Y55579D01*
G01X175013Y55630D01*
G01X174805Y55630D01*
G01X174960Y54748D02*
G01X175272Y54436D01*
G01X176082Y55630D02*
G01X175666Y54540D01*
G01X176082Y55630D02*
G01X176499Y54540D01*
G01X175823Y54903D02*
G01X176341Y54903D01*
G01X176842Y55630D02*
G01X176842Y54540D01*
G01X176842Y55630D02*
G01X177568Y54540D01*
G01X177568Y55630D02*
G01X177568Y54540D01*
G01X177911Y55424D02*
G01X178015Y55475D01*
G01X178170Y55630D01*
G01X178170Y54540D01*
G01X166677Y55630D02*
G01X166572Y55579D01*
G01X166468Y55475D01*
G01X166415Y55370D01*
G01X166364Y55216D01*
G01X166364Y54956D01*
G01X166415Y54799D01*
G01X166468Y54695D01*
G01X166572Y54591D01*
G01X166677Y54540D01*
G01X166885Y54540D01*
G01X166987Y54591D01*
G01X167091Y54695D01*
G01X167144Y54799D01*
G01X167195Y54956D01*
G01X167195Y55216D01*
G01X167144Y55370D01*
G01X167091Y55475D01*
G01X166987Y55579D01*
G01X166885Y55630D01*
G01X166677Y55630D01*
G01X166832Y54748D02*
G01X167144Y54436D01*
G01X167954Y55630D02*
G01X167538Y54540D01*
G01X167954Y55630D02*
G01X168371Y54540D01*
G01X167695Y54903D02*
G01X168213Y54903D01*
G01X168714Y55630D02*
G01X168714Y54540D01*
G01X168714Y55630D02*
G01X169440Y54540D01*
G01X169440Y55630D02*
G01X169440Y54540D01*
G01X169834Y55370D02*
G01X169834Y55424D01*
G01X169887Y55528D01*
G01X169938Y55579D01*
G01X170042Y55630D01*
G01X170250Y55630D01*
G01X170355Y55579D01*
G01X170405Y55528D01*
G01X170459Y55424D01*
G01X170459Y55320D01*
G01X170405Y55216D01*
G01X170301Y55058D01*
G01X169783Y54540D01*
G01X170509Y54540D01*
G01X158549Y55630D02*
G01X158445Y55579D01*
G01X158340Y55475D01*
G01X158287Y55371D01*
G01X158236Y55216D01*
G01X158236Y54956D01*
G01X158287Y54799D01*
G01X158340Y54695D01*
G01X158445Y54591D01*
G01X158549Y54540D01*
G01X158757Y54540D01*
G01X158859Y54591D01*
G01X158963Y54695D01*
G01X159016Y54799D01*
G01X159067Y54956D01*
G01X159067Y55216D01*
G01X159016Y55371D01*
G01X158963Y55475D01*
G01X158859Y55579D01*
G01X158757Y55630D01*
G01X158549Y55630D01*
G01X158704Y54748D02*
G01X159016Y54436D01*
G01X159826Y55630D02*
G01X159410Y54540D01*
G01X159826Y55630D02*
G01X160243Y54540D01*
G01X159567Y54903D02*
G01X160085Y54903D01*
G01X160586Y55630D02*
G01X160586Y54540D01*
G01X160586Y55630D02*
G01X161312Y54540D01*
G01X161312Y55630D02*
G01X161312Y54540D01*
G01X161759Y55630D02*
G01X162331Y55630D01*
G01X162018Y55216D01*
G01X162173Y55216D01*
G01X162277Y55162D01*
G01X162331Y55111D01*
G01X162382Y54956D01*
G01X162382Y54852D01*
G01X162331Y54695D01*
G01X162227Y54591D01*
G01X162072Y54540D01*
G01X161914Y54540D01*
G01X161759Y54591D01*
G01X161706Y54644D01*
G01X161655Y54748D01*
G01X150421Y55630D02*
G01X150317Y55579D01*
G01X150212Y55475D01*
G01X150159Y55371D01*
G01X150108Y55216D01*
G01X150108Y54957D01*
G01X150159Y54799D01*
G01X150212Y54695D01*
G01X150317Y54591D01*
G01X150421Y54540D01*
G01X150629Y54540D01*
G01X150731Y54591D01*
G01X150835Y54695D01*
G01X150888Y54799D01*
G01X150939Y54957D01*
G01X150939Y55216D01*
G01X150888Y55371D01*
G01X150835Y55475D01*
G01X150731Y55579D01*
G01X150629Y55630D01*
G01X150421Y55630D01*
G01X150576Y54748D02*
G01X150888Y54436D01*
G01X151698Y55630D02*
G01X151282Y54540D01*
G01X151698Y55630D02*
G01X152115Y54540D01*
G01X151439Y54903D02*
G01X151957Y54903D01*
G01X152458Y55630D02*
G01X152458Y54540D01*
G01X152458Y55630D02*
G01X153184Y54540D01*
G01X153184Y55630D02*
G01X153184Y54540D01*
G01X154045Y55630D02*
G01X153527Y54903D01*
G01X154307Y54903D01*
G01X154045Y55630D02*
G01X154045Y54540D01*
G01X142293Y55630D02*
G01X142188Y55579D01*
G01X142084Y55475D01*
G01X142031Y55371D01*
G01X141980Y55216D01*
G01X141980Y54957D01*
G01X142031Y54799D01*
G01X142084Y54695D01*
G01X142188Y54591D01*
G01X142293Y54540D01*
G01X142501Y54540D01*
G01X142603Y54591D01*
G01X142707Y54695D01*
G01X142760Y54799D01*
G01X142811Y54957D01*
G01X142811Y55216D01*
G01X142760Y55371D01*
G01X142707Y55475D01*
G01X142603Y55579D01*
G01X142501Y55630D01*
G01X142293Y55630D01*
G01X142448Y54748D02*
G01X142760Y54436D01*
G01X143570Y55630D02*
G01X143154Y54540D01*
G01X143570Y55630D02*
G01X143987Y54540D01*
G01X143311Y54903D02*
G01X143829Y54903D01*
G01X144330Y55630D02*
G01X144330Y54540D01*
G01X144330Y55630D02*
G01X145056Y54540D01*
G01X145056Y55630D02*
G01X145056Y54540D01*
G01X146021Y55630D02*
G01X145503Y55630D01*
G01X145450Y55162D01*
G01X145503Y55216D01*
G01X145658Y55266D01*
G01X145816Y55266D01*
G01X145971Y55216D01*
G01X146075Y55111D01*
G01X146125Y54957D01*
G01X146125Y54852D01*
G01X146075Y54695D01*
G01X145971Y54591D01*
G01X145816Y54540D01*
G01X145658Y54540D01*
G01X145503Y54591D01*
G01X145450Y54644D01*
G01X145399Y54748D01*
G01X133794Y53217D02*
G01X133690Y53166D01*
G01X133586Y53062D01*
G01X133532Y52958D01*
G01X133482Y52803D01*
G01X133482Y52544D01*
G01X133532Y52386D01*
G01X133586Y52282D01*
G01X133690Y52178D01*
G01X133794Y52127D01*
G01X134002Y52127D01*
G01X134104Y52178D01*
G01X134208Y52282D01*
G01X134261Y52386D01*
G01X134312Y52544D01*
G01X134312Y52803D01*
G01X134261Y52958D01*
G01X134208Y53062D01*
G01X134104Y53166D01*
G01X134002Y53217D01*
G01X133794Y53217D01*
G01X133949Y52335D02*
G01X134261Y52023D01*
G01X135072Y53217D02*
G01X134655Y52127D01*
G01X135072Y53217D02*
G01X135488Y52127D01*
G01X134812Y52490D02*
G01X135331Y52490D01*
G01X135831Y53217D02*
G01X135831Y52127D01*
G01X135831Y53217D02*
G01X136557Y52127D01*
G01X136557Y53217D02*
G01X136557Y52127D01*
G01X137523Y53062D02*
G01X137472Y53166D01*
G01X137317Y53217D01*
G01X137213Y53217D01*
G01X137055Y53166D01*
G01X136951Y53011D01*
G01X136900Y52749D01*
G01X136900Y52490D01*
G01X136951Y52282D01*
G01X137055Y52178D01*
G01X137213Y52127D01*
G01X137264Y52127D01*
G01X137419Y52178D01*
G01X137523Y52282D01*
G01X137576Y52440D01*
G01X137576Y52490D01*
G01X137523Y52645D01*
G01X137419Y52749D01*
G01X137264Y52803D01*
G01X137213Y52803D01*
G01X137055Y52749D01*
G01X136951Y52645D01*
G01X136900Y52490D01*
G01X126037Y55630D02*
G01X125933Y55579D01*
G01X125828Y55475D01*
G01X125775Y55370D01*
G01X125724Y55216D01*
G01X125724Y54956D01*
G01X125775Y54799D01*
G01X125828Y54695D01*
G01X125933Y54591D01*
G01X126037Y54540D01*
G01X126245Y54540D01*
G01X126347Y54591D01*
G01X126451Y54695D01*
G01X126504Y54799D01*
G01X126555Y54956D01*
G01X126555Y55216D01*
G01X126504Y55370D01*
G01X126451Y55475D01*
G01X126347Y55579D01*
G01X126245Y55630D01*
G01X126037Y55630D01*
G01X126192Y54748D02*
G01X126504Y54436D01*
G01X127314Y55630D02*
G01X126898Y54540D01*
G01X127314Y55630D02*
G01X127731Y54540D01*
G01X127055Y54903D02*
G01X127573Y54903D01*
G01X128074Y55630D02*
G01X128074Y54540D01*
G01X128074Y55630D02*
G01X128800Y54540D01*
G01X128800Y55630D02*
G01X128800Y54540D01*
G01X129870Y55630D02*
G01X129351Y54540D01*
G01X129143Y55630D02*
G01X129870Y55630D01*
G01X117912Y55627D02*
G01X117807Y55576D01*
G01X117703Y55472D01*
G01X117650Y55368D01*
G01X117599Y55213D01*
G01X117599Y54954D01*
G01X117650Y54796D01*
G01X117703Y54692D01*
G01X117807Y54588D01*
G01X117912Y54537D01*
G01X118120Y54537D01*
G01X118221Y54588D01*
G01X118326Y54692D01*
G01X118379Y54796D01*
G01X118430Y54954D01*
G01X118430Y55213D01*
G01X118379Y55368D01*
G01X118326Y55472D01*
G01X118221Y55576D01*
G01X118120Y55627D01*
G01X117912Y55627D01*
G01X118067Y54746D02*
G01X118379Y54433D01*
G01X119189Y55627D02*
G01X118773Y54537D01*
G01X119189Y55627D02*
G01X119606Y54537D01*
G01X118930Y54901D02*
G01X119448Y54901D01*
G01X119949Y55627D02*
G01X119949Y54537D01*
G01X119949Y55627D02*
G01X120675Y54537D01*
G01X120675Y55627D02*
G01X120675Y54537D01*
G01X121277Y55627D02*
G01X121122Y55576D01*
G01X121069Y55472D01*
G01X121069Y55368D01*
G01X121122Y55264D01*
G01X121226Y55213D01*
G01X121435Y55160D01*
G01X121590Y55109D01*
G01X121694Y55005D01*
G01X121744Y54901D01*
G01X121744Y54746D01*
G01X121694Y54641D01*
G01X121640Y54588D01*
G01X121485Y54537D01*
G01X121277Y54537D01*
G01X121122Y54588D01*
G01X121069Y54641D01*
G01X121018Y54746D01*
G01X121018Y54901D01*
G01X121069Y55005D01*
G01X121173Y55109D01*
G01X121330Y55160D01*
G01X121536Y55213D01*
G01X121640Y55264D01*
G01X121694Y55368D01*
G01X121694Y55472D01*
G01X121640Y55576D01*
G01X121485Y55627D01*
G01X121277Y55627D01*
G01X170746Y42416D02*
G01X170642Y42366D01*
G01X170538Y42261D01*
G01X170485Y42157D01*
G01X170434Y42002D01*
G01X170434Y41743D01*
G01X170485Y41586D01*
G01X170538Y41482D01*
G01X170642Y41378D01*
G01X170746Y41327D01*
G01X170955Y41327D01*
G01X171056Y41378D01*
G01X171160Y41482D01*
G01X171214Y41586D01*
G01X171265Y41743D01*
G01X171265Y42002D01*
G01X171214Y42157D01*
G01X171160Y42261D01*
G01X171056Y42366D01*
G01X170955Y42416D01*
G01X170746Y42416D01*
G01X170901Y41535D02*
G01X171214Y41223D01*
G01X172024Y42416D02*
G01X171607Y41327D01*
G01X172024Y42416D02*
G01X172441Y41327D01*
G01X171765Y41690D02*
G01X172283Y41690D01*
G01X172784Y42416D02*
G01X172784Y41327D01*
G01X172784Y42416D02*
G01X173251Y42416D01*
G01X173406Y42366D01*
G01X173457Y42315D01*
G01X173510Y42211D01*
G01X173510Y42053D01*
G01X173457Y41949D01*
G01X173406Y41898D01*
G01X173251Y41845D01*
G01X172784Y41845D01*
G01X173904Y42157D02*
G01X173904Y42211D01*
G01X173957Y42315D01*
G01X174008Y42366D01*
G01X174112Y42416D01*
G01X174320Y42416D01*
G01X174424Y42366D01*
G01X174475Y42315D01*
G01X174528Y42211D01*
G01X174528Y42107D01*
G01X174475Y42002D01*
G01X174371Y41845D01*
G01X173853Y41327D01*
G01X174579Y41327D01*
G01X162618Y42416D02*
G01X162514Y42366D01*
G01X162410Y42261D01*
G01X162357Y42157D01*
G01X162306Y42002D01*
G01X162306Y41743D01*
G01X162357Y41586D01*
G01X162410Y41482D01*
G01X162514Y41378D01*
G01X162618Y41327D01*
G01X162827Y41327D01*
G01X162928Y41378D01*
G01X163032Y41482D01*
G01X163086Y41586D01*
G01X163137Y41743D01*
G01X163137Y42002D01*
G01X163086Y42157D01*
G01X163032Y42261D01*
G01X162928Y42366D01*
G01X162827Y42416D01*
G01X162618Y42416D01*
G01X162773Y41535D02*
G01X163086Y41223D01*
G01X163896Y42416D02*
G01X163479Y41327D01*
G01X163896Y42416D02*
G01X164313Y41327D01*
G01X163637Y41690D02*
G01X164155Y41690D01*
G01X164655Y42416D02*
G01X164655Y41327D01*
G01X164655Y42416D02*
G01X165123Y42416D01*
G01X165278Y42366D01*
G01X165329Y42315D01*
G01X165382Y42211D01*
G01X165382Y42053D01*
G01X165329Y41949D01*
G01X165278Y41898D01*
G01X165123Y41845D01*
G01X164655Y41845D01*
G01X165829Y42416D02*
G01X166400Y42416D01*
G01X166088Y42002D01*
G01X166243Y42002D01*
G01X166347Y41949D01*
G01X166400Y41898D01*
G01X166451Y41743D01*
G01X166451Y41639D01*
G01X166400Y41482D01*
G01X166296Y41378D01*
G01X166141Y41327D01*
G01X165984Y41327D01*
G01X165829Y41378D01*
G01X165776Y41431D01*
G01X165725Y41535D01*
G01X154236Y42416D02*
G01X154132Y42366D01*
G01X154028Y42261D01*
G01X153975Y42157D01*
G01X153924Y42002D01*
G01X153924Y41743D01*
G01X153975Y41586D01*
G01X154028Y41482D01*
G01X154132Y41378D01*
G01X154236Y41327D01*
G01X154445Y41327D01*
G01X154546Y41378D01*
G01X154650Y41482D01*
G01X154704Y41586D01*
G01X154755Y41743D01*
G01X154755Y42002D01*
G01X154704Y42157D01*
G01X154650Y42261D01*
G01X154546Y42366D01*
G01X154445Y42416D01*
G01X154236Y42416D01*
G01X154391Y41535D02*
G01X154704Y41223D01*
G01X155514Y42416D02*
G01X155097Y41327D01*
G01X155514Y42416D02*
G01X155931Y41327D01*
G01X155255Y41690D02*
G01X155773Y41690D01*
G01X156274Y42416D02*
G01X156274Y41327D01*
G01X156274Y42416D02*
G01X156741Y42416D01*
G01X156896Y42366D01*
G01X156947Y42315D01*
G01X157000Y42211D01*
G01X157000Y42053D01*
G01X156947Y41949D01*
G01X156896Y41898D01*
G01X156741Y41845D01*
G01X156274Y41845D01*
G01X157861Y42416D02*
G01X157343Y41690D01*
G01X158123Y41690D01*
G01X157861Y42416D02*
G01X157861Y41327D01*
G01X146362Y42416D02*
G01X146258Y42366D01*
G01X146154Y42261D01*
G01X146101Y42157D01*
G01X146050Y42002D01*
G01X146050Y41743D01*
G01X146101Y41586D01*
G01X146154Y41482D01*
G01X146258Y41378D01*
G01X146362Y41327D01*
G01X146571Y41327D01*
G01X146672Y41378D01*
G01X146776Y41482D01*
G01X146830Y41586D01*
G01X146881Y41743D01*
G01X146881Y42002D01*
G01X146830Y42157D01*
G01X146776Y42261D01*
G01X146672Y42366D01*
G01X146571Y42416D01*
G01X146362Y42416D01*
G01X146517Y41535D02*
G01X146830Y41223D01*
G01X147640Y42416D02*
G01X147224Y41327D01*
G01X147640Y42416D02*
G01X148057Y41327D01*
G01X147381Y41690D02*
G01X147899Y41690D01*
G01X148400Y42416D02*
G01X148400Y41327D01*
G01X148400Y42416D02*
G01X148867Y42416D01*
G01X149022Y42366D01*
G01X149073Y42315D01*
G01X149126Y42211D01*
G01X149126Y42053D01*
G01X149073Y41949D01*
G01X149022Y41898D01*
G01X148867Y41845D01*
G01X148400Y41845D01*
G01X150091Y42416D02*
G01X149573Y42416D01*
G01X149520Y41949D01*
G01X149573Y42002D01*
G01X149728Y42053D01*
G01X149885Y42053D01*
G01X150040Y42002D01*
G01X150145Y41898D01*
G01X150195Y41743D01*
G01X150195Y41639D01*
G01X150145Y41482D01*
G01X150040Y41378D01*
G01X149885Y41327D01*
G01X149728Y41327D01*
G01X149573Y41378D01*
G01X149520Y41431D01*
G01X149469Y41535D01*
G01X137980Y42416D02*
G01X137876Y42366D01*
G01X137772Y42261D01*
G01X137719Y42157D01*
G01X137668Y42002D01*
G01X137668Y41743D01*
G01X137719Y41586D01*
G01X137772Y41482D01*
G01X137876Y41378D01*
G01X137980Y41327D01*
G01X138189Y41327D01*
G01X138290Y41378D01*
G01X138394Y41482D01*
G01X138448Y41586D01*
G01X138499Y41743D01*
G01X138499Y42002D01*
G01X138448Y42157D01*
G01X138394Y42261D01*
G01X138290Y42366D01*
G01X138189Y42416D01*
G01X137980Y42416D01*
G01X138135Y41535D02*
G01X138448Y41223D01*
G01X139258Y42416D02*
G01X138841Y41327D01*
G01X139258Y42416D02*
G01X139675Y41327D01*
G01X138999Y41690D02*
G01X139517Y41690D01*
G01X140018Y42416D02*
G01X140018Y41327D01*
G01X140018Y42416D02*
G01X140485Y42416D01*
G01X140640Y42366D01*
G01X140691Y42315D01*
G01X140744Y42211D01*
G01X140744Y42053D01*
G01X140691Y41949D01*
G01X140640Y41898D01*
G01X140485Y41845D01*
G01X140018Y41845D01*
G01X141709Y42261D02*
G01X141658Y42366D01*
G01X141503Y42416D01*
G01X141399Y42416D01*
G01X141242Y42366D01*
G01X141138Y42211D01*
G01X141087Y41949D01*
G01X141087Y41690D01*
G01X141138Y41482D01*
G01X141242Y41378D01*
G01X141399Y41327D01*
G01X141450Y41327D01*
G01X141605Y41378D01*
G01X141709Y41482D01*
G01X141762Y41639D01*
G01X141762Y41690D01*
G01X141709Y41845D01*
G01X141605Y41949D01*
G01X141450Y42002D01*
G01X141399Y42002D01*
G01X141242Y41949D01*
G01X141138Y41845D01*
G01X141087Y41690D01*
G01X130104Y42419D02*
G01X129999Y42368D01*
G01X129895Y42264D01*
G01X129842Y42160D01*
G01X129791Y42005D01*
G01X129791Y41746D01*
G01X129842Y41588D01*
G01X129895Y41484D01*
G01X129999Y41380D01*
G01X130104Y41329D01*
G01X130312Y41329D01*
G01X130413Y41380D01*
G01X130518Y41484D01*
G01X130571Y41588D01*
G01X130622Y41746D01*
G01X130622Y42005D01*
G01X130571Y42160D01*
G01X130518Y42264D01*
G01X130413Y42368D01*
G01X130312Y42419D01*
G01X130104Y42419D01*
G01X130259Y41538D02*
G01X130571Y41225D01*
G01X131381Y42419D02*
G01X130965Y41329D01*
G01X131381Y42419D02*
G01X131798Y41329D01*
G01X131122Y41693D02*
G01X131640Y41693D01*
G01X132141Y42419D02*
G01X132141Y41329D01*
G01X132141Y42419D02*
G01X132608Y42419D01*
G01X132763Y42368D01*
G01X132814Y42317D01*
G01X132867Y42213D01*
G01X132867Y42056D01*
G01X132814Y41952D01*
G01X132763Y41901D01*
G01X132608Y41847D01*
G01X132141Y41847D01*
G01X133936Y42419D02*
G01X133418Y41329D01*
G01X133210Y42419D02*
G01X133936Y42419D01*
G01X121979Y42416D02*
G01X121874Y42366D01*
G01X121770Y42261D01*
G01X121717Y42157D01*
G01X121666Y42002D01*
G01X121666Y41743D01*
G01X121717Y41586D01*
G01X121770Y41482D01*
G01X121874Y41378D01*
G01X121979Y41327D01*
G01X122187Y41327D01*
G01X122288Y41378D01*
G01X122393Y41482D01*
G01X122446Y41586D01*
G01X122497Y41743D01*
G01X122497Y42002D01*
G01X122446Y42157D01*
G01X122393Y42261D01*
G01X122288Y42366D01*
G01X122187Y42416D01*
G01X121979Y42416D01*
G01X122133Y41535D02*
G01X122446Y41223D01*
G01X123256Y42416D02*
G01X122840Y41327D01*
G01X123256Y42416D02*
G01X123673Y41327D01*
G01X122997Y41690D02*
G01X123515Y41690D01*
G01X124016Y42416D02*
G01X124016Y41327D01*
G01X124016Y42416D02*
G01X124483Y42416D01*
G01X124638Y42366D01*
G01X124689Y42315D01*
G01X124742Y42211D01*
G01X124742Y42053D01*
G01X124689Y41949D01*
G01X124638Y41898D01*
G01X124483Y41845D01*
G01X124016Y41845D01*
G01X125344Y42416D02*
G01X125189Y42366D01*
G01X125136Y42261D01*
G01X125136Y42157D01*
G01X125189Y42053D01*
G01X125293Y42002D01*
G01X125502Y41949D01*
G01X125656Y41898D01*
G01X125761Y41794D01*
G01X125811Y41690D01*
G01X125811Y41535D01*
G01X125761Y41431D01*
G01X125707Y41378D01*
G01X125552Y41327D01*
G01X125344Y41327D01*
G01X125189Y41378D01*
G01X125136Y41431D01*
G01X125085Y41535D01*
G01X125085Y41690D01*
G01X125136Y41794D01*
G01X125240Y41898D01*
G01X125397Y41949D01*
G01X125603Y42002D01*
G01X125707Y42053D01*
G01X125761Y42157D01*
G01X125761Y42261D01*
G01X125707Y42366D01*
G01X125552Y42416D01*
G01X125344Y42416D01*
G01X10216Y48515D02*
G01X10112Y48464D01*
G01X10008Y48360D01*
G01X9954Y48256D01*
G01X9903Y48101D01*
G01X9903Y47842D01*
G01X9954Y47684D01*
G01X10008Y47580D01*
G01X10112Y47476D01*
G01X10216Y47425D01*
G01X10424Y47425D01*
G01X10526Y47476D01*
G01X10630Y47580D01*
G01X10683Y47684D01*
G01X10734Y47842D01*
G01X10734Y48101D01*
G01X10683Y48256D01*
G01X10630Y48360D01*
G01X10526Y48464D01*
G01X10424Y48515D01*
G01X10216Y48515D01*
G01X10371Y47634D02*
G01X10683Y47321D01*
G01X11077Y48515D02*
G01X11077Y47425D01*
G01X11077Y48515D02*
G01X11806Y47425D01*
G01X11806Y48515D02*
G01X11806Y47425D01*
G01X12149Y48515D02*
G01X12149Y47425D01*
G01X12149Y48515D02*
G01X12616Y48515D01*
G01X12771Y48464D01*
G01X12824Y48413D01*
G01X12875Y48309D01*
G01X12875Y48205D01*
G01X12824Y48101D01*
G01X12771Y48048D01*
G01X12616Y47997D01*
G01X12149Y47997D01*
G01X12512Y47997D02*
G01X12875Y47425D01*
G01X10214Y39881D02*
G01X10110Y39830D01*
G01X10005Y39726D01*
G01X9952Y39621D01*
G01X9901Y39467D01*
G01X9901Y39207D01*
G01X9952Y39050D01*
G01X10005Y38946D01*
G01X10110Y38842D01*
G01X10214Y38791D01*
G01X10422Y38791D01*
G01X10524Y38842D01*
G01X10628Y38946D01*
G01X10681Y39050D01*
G01X10732Y39207D01*
G01X10732Y39467D01*
G01X10681Y39621D01*
G01X10628Y39726D01*
G01X10524Y39830D01*
G01X10422Y39881D01*
G01X10214Y39881D01*
G01X10369Y38999D02*
G01X10681Y38687D01*
G01X11075Y39881D02*
G01X11075Y38791D01*
G01X11075Y39881D02*
G01X11804Y38791D01*
G01X11804Y39881D02*
G01X11804Y38791D01*
G01X12457Y39881D02*
G01X12302Y39830D01*
G01X12198Y39675D01*
G01X12147Y39413D01*
G01X12147Y39258D01*
G01X12198Y38999D01*
G01X12302Y38842D01*
G01X12457Y38791D01*
G01X12561Y38791D01*
G01X12718Y38842D01*
G01X12822Y38999D01*
G01X12873Y39258D01*
G01X12873Y39413D01*
G01X12822Y39675D01*
G01X12718Y39830D01*
G01X12561Y39881D01*
G01X12457Y39881D01*
G01X24948Y48515D02*
G01X24844Y48464D01*
G01X24740Y48360D01*
G01X24686Y48256D01*
G01X24635Y48101D01*
G01X24635Y47842D01*
G01X24686Y47684D01*
G01X24740Y47580D01*
G01X24844Y47476D01*
G01X24948Y47425D01*
G01X25156Y47425D01*
G01X25258Y47476D01*
G01X25362Y47580D01*
G01X25415Y47684D01*
G01X25466Y47842D01*
G01X25466Y48101D01*
G01X25415Y48256D01*
G01X25362Y48360D01*
G01X25258Y48464D01*
G01X25156Y48515D01*
G01X24948Y48515D01*
G01X25103Y47634D02*
G01X25415Y47321D01*
G01X25809Y48515D02*
G01X25809Y47425D01*
G01X25809Y48515D02*
G01X26538Y47425D01*
G01X26538Y48515D02*
G01X26538Y47425D01*
G01X26881Y48515D02*
G01X26881Y47425D01*
G01X26881Y47425D02*
G01X27503Y47425D01*
G01X25200Y39881D02*
G01X25096Y39830D01*
G01X24991Y39726D01*
G01X24938Y39621D01*
G01X24887Y39467D01*
G01X24887Y39207D01*
G01X24938Y39050D01*
G01X24991Y38946D01*
G01X25096Y38842D01*
G01X25200Y38791D01*
G01X25408Y38791D01*
G01X25510Y38842D01*
G01X25614Y38946D01*
G01X25667Y39050D01*
G01X25718Y39207D01*
G01X25718Y39467D01*
G01X25667Y39621D01*
G01X25614Y39726D01*
G01X25510Y39830D01*
G01X25408Y39881D01*
G01X25200Y39881D01*
G01X25355Y38999D02*
G01X25667Y38687D01*
G01X26061Y39881D02*
G01X26061Y38791D01*
G01X26061Y39881D02*
G01X26790Y38791D01*
G01X26790Y39881D02*
G01X26790Y38791D01*
G01X27133Y39675D02*
G01X27237Y39726D01*
G01X27392Y39881D01*
G01X27392Y38791D01*
G01X9964Y31495D02*
G01X9860Y31445D01*
G01X9756Y31341D01*
G01X9702Y31236D01*
G01X9652Y31081D01*
G01X9652Y30822D01*
G01X9702Y30665D01*
G01X9756Y30561D01*
G01X9860Y30457D01*
G01X9964Y30406D01*
G01X10172Y30406D01*
G01X10274Y30457D01*
G01X10378Y30561D01*
G01X10431Y30665D01*
G01X10482Y30822D01*
G01X10482Y31081D01*
G01X10431Y31236D01*
G01X10378Y31341D01*
G01X10274Y31445D01*
G01X10172Y31495D01*
G01X9964Y31495D01*
G01X10119Y30614D02*
G01X10431Y30302D01*
G01X10825Y31495D02*
G01X10825Y30406D01*
G01X10825Y31495D02*
G01X11554Y30406D01*
G01X11554Y31495D02*
G01X11554Y30406D01*
G01X11948Y31236D02*
G01X11948Y31290D01*
G01X12001Y31394D01*
G01X12052Y31445D01*
G01X12156Y31495D01*
G01X12364Y31495D01*
G01X12468Y31445D01*
G01X12519Y31394D01*
G01X12573Y31290D01*
G01X12573Y31186D01*
G01X12519Y31081D01*
G01X12415Y30924D01*
G01X11897Y30406D01*
G01X12623Y30406D01*
G01X10216Y22353D02*
G01X10112Y22302D01*
G01X10008Y22198D01*
G01X9954Y22094D01*
G01X9903Y21939D01*
G01X9903Y21680D01*
G01X9954Y21522D01*
G01X10008Y21418D01*
G01X10112Y21314D01*
G01X10216Y21263D01*
G01X10424Y21263D01*
G01X10526Y21314D01*
G01X10630Y21418D01*
G01X10683Y21522D01*
G01X10734Y21680D01*
G01X10734Y21939D01*
G01X10683Y22094D01*
G01X10630Y22198D01*
G01X10526Y22302D01*
G01X10424Y22353D01*
G01X10216Y22353D01*
G01X10371Y21472D02*
G01X10683Y21159D01*
G01X11077Y22353D02*
G01X11077Y21263D01*
G01X11077Y22353D02*
G01X11806Y21263D01*
G01X11806Y22353D02*
G01X11806Y21263D01*
G01X12253Y22353D02*
G01X12824Y22353D01*
G01X12512Y21939D01*
G01X12667Y21939D01*
G01X12771Y21886D01*
G01X12824Y21835D01*
G01X12875Y21680D01*
G01X12875Y21576D01*
G01X12824Y21418D01*
G01X12720Y21314D01*
G01X12563Y21263D01*
G01X12408Y21263D01*
G01X12253Y21314D01*
G01X12200Y21368D01*
G01X12149Y21472D01*
G01X24948Y13717D02*
G01X24844Y13666D01*
G01X24740Y13562D01*
G01X24686Y13458D01*
G01X24635Y13303D01*
G01X24635Y13044D01*
G01X24686Y12886D01*
G01X24740Y12782D01*
G01X24844Y12678D01*
G01X24948Y12627D01*
G01X25156Y12627D01*
G01X25258Y12678D01*
G01X25362Y12782D01*
G01X25415Y12886D01*
G01X25466Y13044D01*
G01X25466Y13303D01*
G01X25415Y13458D01*
G01X25362Y13562D01*
G01X25258Y13666D01*
G01X25156Y13717D01*
G01X24948Y13717D01*
G01X25103Y12836D02*
G01X25415Y12523D01*
G01X25809Y13717D02*
G01X25809Y12627D01*
G01X25809Y13717D02*
G01X26538Y12627D01*
G01X26538Y13717D02*
G01X26538Y12627D01*
G01X27399Y13717D02*
G01X26881Y12991D01*
G01X27658Y12991D01*
G01X27399Y13717D02*
G01X27399Y12627D01*
G01X10216Y13463D02*
G01X10112Y13412D01*
G01X10008Y13308D01*
G01X9954Y13204D01*
G01X9903Y13049D01*
G01X9903Y12790D01*
G01X9954Y12633D01*
G01X10008Y12528D01*
G01X10112Y12424D01*
G01X10216Y12373D01*
G01X10424Y12373D01*
G01X10526Y12424D01*
G01X10630Y12528D01*
G01X10683Y12633D01*
G01X10734Y12790D01*
G01X10734Y13049D01*
G01X10683Y13204D01*
G01X10630Y13308D01*
G01X10526Y13412D01*
G01X10424Y13463D01*
G01X10216Y13463D01*
G01X10371Y12582D02*
G01X10683Y12269D01*
G01X11077Y13463D02*
G01X11077Y12373D01*
G01X11077Y13463D02*
G01X11806Y12373D01*
G01X11806Y13463D02*
G01X11806Y12373D01*
G01X12771Y13463D02*
G01X12253Y13463D01*
G01X12200Y12996D01*
G01X12253Y13049D01*
G01X12408Y13100D01*
G01X12563Y13100D01*
G01X12720Y13049D01*
G01X12824Y12945D01*
G01X12875Y12790D01*
G01X12875Y12686D01*
G01X12824Y12528D01*
G01X12720Y12424D01*
G01X12563Y12373D01*
G01X12408Y12373D01*
G01X12253Y12424D01*
G01X12200Y12478D01*
G01X12149Y12582D01*
G01X24948Y4827D02*
G01X24844Y4776D01*
G01X24739Y4672D01*
G01X24686Y4568D01*
G01X24635Y4413D01*
G01X24635Y4154D01*
G01X24686Y3997D01*
G01X24739Y3892D01*
G01X24844Y3788D01*
G01X24948Y3737D01*
G01X25156Y3737D01*
G01X25258Y3788D01*
G01X25362Y3892D01*
G01X25415Y3997D01*
G01X25466Y4154D01*
G01X25466Y4413D01*
G01X25415Y4568D01*
G01X25362Y4672D01*
G01X25258Y4776D01*
G01X25156Y4827D01*
G01X24948Y4827D01*
G01X25103Y3946D02*
G01X25415Y3633D01*
G01X25809Y4827D02*
G01X25809Y3737D01*
G01X25809Y4827D02*
G01X26538Y3737D01*
G01X26538Y4827D02*
G01X26538Y3737D01*
G01X27503Y4672D02*
G01X27452Y4776D01*
G01X27295Y4827D01*
G01X27191Y4827D01*
G01X27036Y4776D01*
G01X26932Y4621D01*
G01X26881Y4360D01*
G01X26881Y4101D01*
G01X26932Y3892D01*
G01X27036Y3788D01*
G01X27191Y3737D01*
G01X27244Y3737D01*
G01X27399Y3788D01*
G01X27503Y3892D01*
G01X27556Y4050D01*
G01X27556Y4101D01*
G01X27503Y4256D01*
G01X27399Y4360D01*
G01X27244Y4413D01*
G01X27191Y4413D01*
G01X27036Y4360D01*
G01X26932Y4256D01*
G01X26881Y4101D01*
G01X10216Y4827D02*
G01X10112Y4776D01*
G01X10008Y4672D01*
G01X9954Y4568D01*
G01X9903Y4413D01*
G01X9903Y4154D01*
G01X9954Y3996D01*
G01X10008Y3892D01*
G01X10112Y3788D01*
G01X10216Y3737D01*
G01X10424Y3737D01*
G01X10526Y3788D01*
G01X10630Y3892D01*
G01X10683Y3996D01*
G01X10734Y4154D01*
G01X10734Y4413D01*
G01X10683Y4568D01*
G01X10630Y4672D01*
G01X10526Y4776D01*
G01X10424Y4827D01*
G01X10216Y4827D01*
G01X10371Y3946D02*
G01X10683Y3633D01*
G01X11077Y4827D02*
G01X11077Y3737D01*
G01X11077Y4827D02*
G01X11806Y3737D01*
G01X11806Y4827D02*
G01X11806Y3737D01*
G01X12875Y4827D02*
G01X12354Y3737D01*
G01X12149Y4827D02*
G01X12875Y4827D01*
G01X24945Y22355D02*
G01X24841Y22305D01*
G01X24737Y22201D01*
G01X24686Y22096D01*
G01X24633Y21941D01*
G01X24633Y21680D01*
G01X24686Y21525D01*
G01X24737Y21421D01*
G01X24841Y21317D01*
G01X24945Y21266D01*
G01X25154Y21266D01*
G01X25258Y21317D01*
G01X25362Y21421D01*
G01X25413Y21525D01*
G01X25463Y21680D01*
G01X25463Y21941D01*
G01X25413Y22096D01*
G01X25362Y22201D01*
G01X25258Y22305D01*
G01X25154Y22355D01*
G01X24945Y22355D01*
G01X25100Y21474D02*
G01X25413Y21162D01*
G01X25806Y22355D02*
G01X25806Y21266D01*
G01X25806Y22355D02*
G01X26535Y21266D01*
G01X26535Y22355D02*
G01X26535Y21266D01*
G01X27137Y22355D02*
G01X26982Y22305D01*
G01X26929Y22201D01*
G01X26929Y22096D01*
G01X26982Y21992D01*
G01X27086Y21941D01*
G01X27292Y21888D01*
G01X27450Y21837D01*
G01X27554Y21733D01*
G01X27605Y21629D01*
G01X27605Y21474D01*
G01X27554Y21370D01*
G01X27501Y21317D01*
G01X27346Y21266D01*
G01X27137Y21266D01*
G01X26982Y21317D01*
G01X26929Y21370D01*
G01X26878Y21474D01*
G01X26878Y21629D01*
G01X26929Y21733D01*
G01X27033Y21837D01*
G01X27191Y21888D01*
G01X27396Y21941D01*
G01X27501Y21992D01*
G01X27554Y22096D01*
G01X27554Y22201D01*
G01X27501Y22305D01*
G01X27346Y22355D01*
G01X27137Y22355D01*
G01X24950Y31495D02*
G01X24846Y31445D01*
G01X24742Y31340D01*
G01X24688Y31236D01*
G01X24638Y31081D01*
G01X24638Y30822D01*
G01X24688Y30665D01*
G01X24742Y30561D01*
G01X24846Y30457D01*
G01X24950Y30406D01*
G01X25158Y30406D01*
G01X25260Y30457D01*
G01X25364Y30561D01*
G01X25417Y30665D01*
G01X25468Y30822D01*
G01X25468Y31081D01*
G01X25417Y31236D01*
G01X25364Y31340D01*
G01X25260Y31445D01*
G01X25158Y31495D01*
G01X24950Y31495D01*
G01X25105Y30614D02*
G01X25417Y30302D01*
G01X25811Y31495D02*
G01X25811Y30406D01*
G01X25811Y31495D02*
G01X26540Y30406D01*
G01X26540Y31495D02*
G01X26540Y30406D01*
G01X27559Y31132D02*
G01X27505Y30977D01*
G01X27401Y30873D01*
G01X27246Y30822D01*
G01X27193Y30822D01*
G01X27038Y30873D01*
G01X26934Y30977D01*
G01X26883Y31132D01*
G01X26883Y31186D01*
G01X26934Y31340D01*
G01X27038Y31445D01*
G01X27193Y31495D01*
G01X27246Y31495D01*
G01X27401Y31445D01*
G01X27505Y31340D01*
G01X27559Y31132D01*
G01X27559Y30873D01*
G01X27505Y30614D01*
G01X27401Y30457D01*
G01X27246Y30406D01*
G01X27142Y30406D01*
G01X26987Y30457D01*
G01X26934Y30561D01*
G01X62798Y47750D02*
G01X62694Y47699D01*
G01X62590Y47595D01*
G01X62536Y47491D01*
G01X62485Y47336D01*
G01X62485Y47077D01*
G01X62536Y46919D01*
G01X62590Y46815D01*
G01X62694Y46711D01*
G01X62798Y46660D01*
G01X63006Y46660D01*
G01X63108Y46711D01*
G01X63212Y46815D01*
G01X63265Y46919D01*
G01X63316Y47077D01*
G01X63316Y47336D01*
G01X63265Y47491D01*
G01X63212Y47595D01*
G01X63108Y47699D01*
G01X63006Y47750D01*
G01X62798Y47750D01*
G01X62953Y46868D02*
G01X63265Y46556D01*
G01X63659Y47750D02*
G01X63659Y46660D01*
G01X63659Y47750D02*
G01X64126Y47750D01*
G01X64284Y47699D01*
G01X64335Y47648D01*
G01X64388Y47544D01*
G01X64388Y47440D01*
G01X64335Y47336D01*
G01X64284Y47282D01*
G01X64126Y47232D01*
G01X63659Y47232D01*
G01X64022Y47232D02*
G01X64388Y46660D01*
G01X53143Y47750D02*
G01X53042Y47696D01*
G01X52938Y47592D01*
G01X52884Y47491D01*
G01X52833Y47333D01*
G01X52833Y47074D01*
G01X52884Y46919D01*
G01X52938Y46815D01*
G01X53042Y46711D01*
G01X53143Y46658D01*
G01X53352Y46658D01*
G01X53456Y46711D01*
G01X53560Y46815D01*
G01X53613Y46919D01*
G01X53664Y47074D01*
G01X53664Y47333D01*
G01X53613Y47491D01*
G01X53560Y47592D01*
G01X53456Y47696D01*
G01X53352Y47750D01*
G01X53143Y47750D01*
G01X53301Y46866D02*
G01X53613Y46553D01*
G01X54007Y47750D02*
G01X54007Y46658D01*
G01X54007Y47750D02*
G01X54474Y47750D01*
G01X54629Y47696D01*
G01X54683Y47646D01*
G01X54733Y47542D01*
G01X54733Y47437D01*
G01X54683Y47333D01*
G01X54629Y47282D01*
G01X54474Y47229D01*
G01X54007Y47229D02*
G01X54474Y47229D01*
G01X54629Y47178D01*
G01X54683Y47125D01*
G01X54733Y47021D01*
G01X54733Y46866D01*
G01X54683Y46762D01*
G01X54629Y46711D01*
G01X54474Y46658D01*
G01X54007Y46658D01*
G01X71434Y47750D02*
G01X71330Y47699D01*
G01X71226Y47595D01*
G01X71172Y47491D01*
G01X71121Y47336D01*
G01X71121Y47077D01*
G01X71172Y46919D01*
G01X71226Y46815D01*
G01X71330Y46711D01*
G01X71434Y46660D01*
G01X71642Y46660D01*
G01X71744Y46711D01*
G01X71848Y46815D01*
G01X71901Y46919D01*
G01X71952Y47077D01*
G01X71952Y47336D01*
G01X71901Y47491D01*
G01X71848Y47595D01*
G01X71744Y47699D01*
G01X71642Y47750D01*
G01X71434Y47750D01*
G01X71589Y46868D02*
G01X71901Y46556D01*
G01X73075Y47491D02*
G01X73024Y47595D01*
G01X72920Y47699D01*
G01X72816Y47750D01*
G01X72607Y47750D01*
G01X72503Y47699D01*
G01X72399Y47595D01*
G01X72348Y47491D01*
G01X72295Y47336D01*
G01X72295Y47077D01*
G01X72348Y46919D01*
G01X72399Y46815D01*
G01X72503Y46711D01*
G01X72607Y46660D01*
G01X72816Y46660D01*
G01X72920Y46711D01*
G01X73024Y46815D01*
G01X73075Y46919D01*
G01X73075Y47077D01*
G01X72816Y47077D02*
G01X73075Y47077D01*
G01X214627Y70613D02*
G01X214627Y69523D01*
G01X214627Y70613D02*
G01X214990Y70613D01*
G01X215148Y70562D01*
G01X215249Y70458D01*
G01X215303Y70354D01*
G01X215353Y70199D01*
G01X215353Y69940D01*
G01X215303Y69782D01*
G01X215249Y69678D01*
G01X215148Y69574D01*
G01X214990Y69523D01*
G01X214627Y69523D01*
G01X215750Y70354D02*
G01X215750Y70407D01*
G01X215800Y70511D01*
G01X215854Y70562D01*
G01X215958Y70613D01*
G01X216164Y70613D01*
G01X216268Y70562D01*
G01X216321Y70511D01*
G01X216372Y70407D01*
G01X216372Y70303D01*
G01X216321Y70199D01*
G01X216217Y70041D01*
G01X215696Y69523D01*
G01X216425Y69523D01*
G01X200911Y52694D02*
G01X200911Y51604D01*
G01X200911Y52694D02*
G01X201274Y52694D01*
G01X201432Y52643D01*
G01X201533Y52539D01*
G01X201587Y52435D01*
G01X201638Y52280D01*
G01X201638Y52021D01*
G01X201587Y51863D01*
G01X201533Y51759D01*
G01X201432Y51655D01*
G01X201274Y51604D01*
G01X200911Y51604D01*
G01X201980Y52488D02*
G01X202085Y52539D01*
G01X202242Y52694D01*
G01X202242Y51604D01*
G01X201221Y70868D02*
G01X201117Y70818D01*
G01X201013Y70714D01*
G01X200960Y70609D01*
G01X200909Y70454D01*
G01X200909Y70195D01*
G01X200960Y70038D01*
G01X201013Y69934D01*
G01X201117Y69830D01*
G01X201221Y69779D01*
G01X201430Y69779D01*
G01X201531Y69830D01*
G01X201635Y69934D01*
G01X201689Y70038D01*
G01X201740Y70195D01*
G01X201740Y70454D01*
G01X201689Y70609D01*
G01X201635Y70714D01*
G01X201531Y70818D01*
G01X201430Y70868D01*
G01X201221Y70868D01*
G01X201376Y69987D02*
G01X201689Y69675D01*
G01X202082Y70868D02*
G01X202082Y69779D01*
G01X202811Y70868D02*
G01X202811Y69779D01*
G01X202082Y70350D02*
G01X202811Y70350D01*
G01X203205Y70609D02*
G01X203205Y70663D01*
G01X203258Y70767D01*
G01X203309Y70818D01*
G01X203413Y70868D01*
G01X203622Y70868D01*
G01X203726Y70818D01*
G01X203777Y70767D01*
G01X203830Y70663D01*
G01X203830Y70559D01*
G01X203777Y70454D01*
G01X203672Y70297D01*
G01X203154Y69779D01*
G01X203881Y69779D01*
G01X203451Y65373D02*
G01X203502Y65269D01*
G01X203606Y65165D01*
G01X203710Y65111D01*
G01X203865Y65060D01*
G01X204124Y65060D01*
G01X204282Y65111D01*
G01X204386Y65165D01*
G01X204490Y65269D01*
G01X204541Y65373D01*
G01X204541Y65581D01*
G01X204490Y65683D01*
G01X204386Y65787D01*
G01X204282Y65840D01*
G01X204124Y65891D01*
G01X203865Y65891D01*
G01X203710Y65840D01*
G01X203606Y65787D01*
G01X203502Y65683D01*
G01X203451Y65581D01*
G01X203451Y65373D01*
G01X204332Y65528D02*
G01X204645Y65840D01*
G01X203451Y66234D02*
G01X204541Y66234D01*
G01X203451Y66963D02*
G01X204541Y66963D01*
G01X203969Y66234D02*
G01X203969Y66963D01*
G01X203657Y67306D02*
G01X203606Y67410D01*
G01X203451Y67565D01*
G01X204541Y67565D01*
G01X201934Y47642D02*
G01X201830Y47589D01*
G01X201726Y47485D01*
G01X201675Y47383D01*
G01X201675Y47175D01*
G01X201726Y47071D01*
G01X201830Y46967D01*
G01X201934Y46913D01*
G01X202089Y46862D01*
G01X202348Y46862D01*
G01X202506Y46913D01*
G01X202610Y46967D01*
G01X202714Y47071D01*
G01X202765Y47175D01*
G01X202765Y47383D01*
G01X202714Y47485D01*
G01X202610Y47589D01*
G01X202506Y47642D01*
G01X201675Y47985D02*
G01X202765Y47985D01*
G01X201675Y48711D02*
G01X202765Y48711D01*
G01X202193Y47985D02*
G01X202193Y48711D01*
G01X201675Y49159D02*
G01X201675Y49730D01*
G01X202089Y49418D01*
G01X202089Y49575D01*
G01X202142Y49679D01*
G01X202193Y49730D01*
G01X202348Y49783D01*
G01X202452Y49783D01*
G01X202610Y49730D01*
G01X202714Y49626D01*
G01X202765Y49471D01*
G01X202765Y49313D01*
G01X202714Y49159D01*
G01X202661Y49108D01*
G01X202556Y49054D01*
G01X244617Y71624D02*
G01X244563Y71728D01*
G01X244459Y71832D01*
G01X244358Y71883D01*
G01X244149Y71883D01*
G01X244045Y71832D01*
G01X243941Y71728D01*
G01X243888Y71624D01*
G01X243837Y71469D01*
G01X243837Y71210D01*
G01X243888Y71052D01*
G01X243941Y70948D01*
G01X244045Y70844D01*
G01X244149Y70793D01*
G01X244358Y70793D01*
G01X244459Y70844D01*
G01X244563Y70948D01*
G01X244617Y71052D01*
G01X244960Y71677D02*
G01X245064Y71728D01*
G01X245219Y71883D01*
G01X245219Y70793D01*
G01X239029Y70100D02*
G01X238975Y70204D01*
G01X238871Y70308D01*
G01X238770Y70359D01*
G01X238561Y70359D01*
G01X238457Y70308D01*
G01X238353Y70204D01*
G01X238300Y70100D01*
G01X238249Y69945D01*
G01X238249Y69686D01*
G01X238300Y69528D01*
G01X238353Y69424D01*
G01X238457Y69320D01*
G01X238561Y69269D01*
G01X238770Y69269D01*
G01X238871Y69320D01*
G01X238975Y69424D01*
G01X239029Y69528D01*
G01X239422Y70100D02*
G01X239422Y70153D01*
G01X239476Y70257D01*
G01X239527Y70308D01*
G01X239631Y70359D01*
G01X239839Y70359D01*
G01X239943Y70308D01*
G01X239994Y70257D01*
G01X240047Y70153D01*
G01X240047Y70049D01*
G01X239994Y69945D01*
G01X239890Y69787D01*
G01X239372Y69269D01*
G01X240098Y69269D01*
G01X179067Y61301D02*
G01X180157Y61301D01*
G01X179067Y61301D02*
G01X179067Y61769D01*
G01X179118Y61924D01*
G01X179169Y61977D01*
G01X179273Y62028D01*
G01X179377Y62028D01*
G01X179481Y61977D01*
G01X179534Y61924D01*
G01X179585Y61769D01*
G01X179585Y61301D01*
G01X179585Y61665D02*
G01X180157Y62028D01*
G01X179067Y62736D02*
G01X180157Y62736D01*
G01X179067Y62371D02*
G01X179067Y63100D01*
G01X179067Y63443D02*
G01X180157Y63443D01*
G01X179067Y63443D02*
G01X179067Y63910D01*
G01X179118Y64065D01*
G01X179169Y64118D01*
G01X179273Y64169D01*
G01X179430Y64169D01*
G01X179534Y64118D01*
G01X179585Y64065D01*
G01X179639Y63910D01*
G01X179639Y63443D01*
G01X179273Y64512D02*
G01X179222Y64616D01*
G01X179067Y64771D01*
G01X180157Y64771D01*
G01X170939Y61342D02*
G01X172029Y61342D01*
G01X170939Y61342D02*
G01X170939Y61809D01*
G01X170990Y61964D01*
G01X171041Y62018D01*
G01X171145Y62068D01*
G01X171249Y62068D01*
G01X171353Y62018D01*
G01X171406Y61964D01*
G01X171457Y61809D01*
G01X171457Y61342D01*
G01X171457Y61705D02*
G01X172029Y62068D01*
G01X170939Y62777D02*
G01X172029Y62777D01*
G01X170939Y62411D02*
G01X170939Y63140D01*
G01X170939Y63483D02*
G01X172029Y63483D01*
G01X170939Y63483D02*
G01X170939Y63951D01*
G01X170990Y64105D01*
G01X171041Y64159D01*
G01X171145Y64210D01*
G01X171302Y64210D01*
G01X171406Y64159D01*
G01X171457Y64105D01*
G01X171511Y63951D01*
G01X171511Y63483D01*
G01X171198Y64606D02*
G01X171145Y64606D01*
G01X171041Y64657D01*
G01X170990Y64707D01*
G01X170939Y64812D01*
G01X170939Y65020D01*
G01X170990Y65124D01*
G01X171041Y65177D01*
G01X171145Y65228D01*
G01X171249Y65228D01*
G01X171353Y65177D01*
G01X171511Y65073D01*
G01X172029Y64553D01*
G01X172029Y65279D01*
G01X162811Y61342D02*
G01X163901Y61342D01*
G01X162811Y61342D02*
G01X162811Y61809D01*
G01X162862Y61964D01*
G01X162913Y62018D01*
G01X163017Y62068D01*
G01X163121Y62068D01*
G01X163225Y62018D01*
G01X163278Y61964D01*
G01X163329Y61809D01*
G01X163329Y61342D01*
G01X163329Y61705D02*
G01X163901Y62068D01*
G01X162811Y62777D02*
G01X163901Y62777D01*
G01X162811Y62411D02*
G01X162811Y63140D01*
G01X162811Y63483D02*
G01X163901Y63483D01*
G01X162811Y63483D02*
G01X162811Y63951D01*
G01X162862Y64105D01*
G01X162913Y64159D01*
G01X163017Y64210D01*
G01X163174Y64210D01*
G01X163278Y64159D01*
G01X163329Y64105D01*
G01X163383Y63951D01*
G01X163383Y63483D01*
G01X162811Y64657D02*
G01X162811Y65228D01*
G01X163225Y64916D01*
G01X163225Y65073D01*
G01X163278Y65177D01*
G01X163329Y65228D01*
G01X163484Y65279D01*
G01X163588Y65279D01*
G01X163746Y65228D01*
G01X163850Y65124D01*
G01X163901Y64969D01*
G01X163901Y64812D01*
G01X163850Y64657D01*
G01X163797Y64606D01*
G01X163692Y64553D01*
G01X155191Y61289D02*
G01X156281Y61289D01*
G01X155191Y61289D02*
G01X155191Y61756D01*
G01X155242Y61911D01*
G01X155293Y61964D01*
G01X155397Y62015D01*
G01X155501Y62015D01*
G01X155605Y61964D01*
G01X155659Y61911D01*
G01X155709Y61756D01*
G01X155709Y61289D01*
G01X155709Y61652D02*
G01X156281Y62015D01*
G01X155191Y62724D02*
G01X156281Y62724D01*
G01X155191Y62358D02*
G01X155191Y63087D01*
G01X155191Y63430D02*
G01X156281Y63430D01*
G01X155191Y63430D02*
G01X155191Y63897D01*
G01X155242Y64052D01*
G01X155293Y64105D01*
G01X155397Y64156D01*
G01X155554Y64156D01*
G01X155659Y64105D01*
G01X155709Y64052D01*
G01X155763Y63897D01*
G01X155763Y63430D01*
G01X155191Y65020D02*
G01X155918Y64499D01*
G01X155918Y65279D01*
G01X155191Y65020D02*
G01X156281Y65020D01*
G01X146809Y61342D02*
G01X147899Y61342D01*
G01X146809Y61342D02*
G01X146809Y61809D01*
G01X146860Y61964D01*
G01X146911Y62018D01*
G01X147015Y62068D01*
G01X147119Y62068D01*
G01X147223Y62018D01*
G01X147277Y61964D01*
G01X147327Y61809D01*
G01X147327Y61342D01*
G01X147327Y61705D02*
G01X147899Y62068D01*
G01X146809Y62777D02*
G01X147899Y62777D01*
G01X146809Y62411D02*
G01X146809Y63140D01*
G01X146809Y63483D02*
G01X147899Y63483D01*
G01X146809Y63483D02*
G01X146809Y63951D01*
G01X146860Y64105D01*
G01X146911Y64159D01*
G01X147015Y64210D01*
G01X147172Y64210D01*
G01X147277Y64159D01*
G01X147327Y64105D01*
G01X147381Y63951D01*
G01X147381Y63483D01*
G01X146809Y65177D02*
G01X146809Y64657D01*
G01X147277Y64606D01*
G01X147223Y64657D01*
G01X147172Y64812D01*
G01X147172Y64969D01*
G01X147223Y65124D01*
G01X147327Y65228D01*
G01X147482Y65279D01*
G01X147586Y65279D01*
G01X147744Y65228D01*
G01X147848Y65124D01*
G01X147899Y64969D01*
G01X147899Y64812D01*
G01X147848Y64657D01*
G01X147795Y64606D01*
G01X147691Y64552D01*
G01X138935Y61393D02*
G01X140025Y61393D01*
G01X138935Y61393D02*
G01X138935Y61860D01*
G01X138986Y62015D01*
G01X139037Y62068D01*
G01X139141Y62119D01*
G01X139245Y62119D01*
G01X139349Y62068D01*
G01X139402Y62015D01*
G01X139453Y61860D01*
G01X139453Y61393D01*
G01X139453Y61756D02*
G01X140025Y62119D01*
G01X138935Y62828D02*
G01X140025Y62828D01*
G01X138935Y62462D02*
G01X138935Y63191D01*
G01X138935Y63534D02*
G01X140025Y63534D01*
G01X138935Y63534D02*
G01X138935Y64001D01*
G01X138986Y64156D01*
G01X139037Y64210D01*
G01X139141Y64260D01*
G01X139298Y64260D01*
G01X139402Y64210D01*
G01X139453Y64156D01*
G01X139507Y64001D01*
G01X139507Y63534D01*
G01X139090Y65228D02*
G01X138986Y65175D01*
G01X138935Y65020D01*
G01X138935Y64916D01*
G01X138986Y64758D01*
G01X139141Y64657D01*
G01X139402Y64603D01*
G01X139662Y64603D01*
G01X139870Y64657D01*
G01X139974Y64758D01*
G01X140025Y64916D01*
G01X140025Y64967D01*
G01X139974Y65124D01*
G01X139870Y65228D01*
G01X139712Y65279D01*
G01X139662Y65279D01*
G01X139507Y65228D01*
G01X139402Y65124D01*
G01X139349Y64967D01*
G01X139349Y64916D01*
G01X139402Y64758D01*
G01X139507Y64657D01*
G01X139662Y64603D01*
G01X130556Y61339D02*
G01X131645Y61339D01*
G01X130556Y61339D02*
G01X130556Y61807D01*
G01X130606Y61962D01*
G01X130657Y62015D01*
G01X130761Y62066D01*
G01X130865Y62066D01*
G01X130970Y62015D01*
G01X131023Y61962D01*
G01X131074Y61807D01*
G01X131074Y61339D01*
G01X131074Y61703D02*
G01X131645Y62066D01*
G01X130556Y62775D02*
G01X131645Y62775D01*
G01X130556Y62409D02*
G01X130556Y63138D01*
G01X130556Y63481D02*
G01X131645Y63481D01*
G01X130556Y63481D02*
G01X130556Y63948D01*
G01X130606Y64103D01*
G01X130657Y64156D01*
G01X130761Y64207D01*
G01X130919Y64207D01*
G01X131023Y64156D01*
G01X131074Y64103D01*
G01X131127Y63948D01*
G01X131127Y63481D01*
G01X130556Y65276D02*
G01X131645Y64758D01*
G01X130556Y64550D02*
G01X130556Y65276D01*
G01X122170Y61343D02*
G01X123260Y61343D01*
G01X122170Y61343D02*
G01X122170Y61810D01*
G01X122221Y61965D01*
G01X122272Y62019D01*
G01X122376Y62069D01*
G01X122480Y62069D01*
G01X122584Y62019D01*
G01X122638Y61965D01*
G01X122689Y61810D01*
G01X122689Y61343D01*
G01X122689Y61706D02*
G01X123260Y62069D01*
G01X122170Y62778D02*
G01X123260Y62778D01*
G01X122170Y62412D02*
G01X122170Y63141D01*
G01X122170Y63484D02*
G01X123260Y63484D01*
G01X122170Y63484D02*
G01X122170Y63952D01*
G01X122221Y64106D01*
G01X122272Y64160D01*
G01X122376Y64211D01*
G01X122534Y64211D01*
G01X122638Y64160D01*
G01X122689Y64106D01*
G01X122742Y63952D01*
G01X122742Y63484D01*
G01X122170Y64813D02*
G01X122221Y64658D01*
G01X122325Y64607D01*
G01X122430Y64607D01*
G01X122534Y64658D01*
G01X122584Y64762D01*
G01X122638Y64970D01*
G01X122689Y65125D01*
G01X122793Y65229D01*
G01X122897Y65280D01*
G01X123052Y65280D01*
G01X123156Y65229D01*
G01X123209Y65178D01*
G01X123260Y65021D01*
G01X123260Y64813D01*
G01X123209Y64658D01*
G01X123156Y64607D01*
G01X123052Y64554D01*
G01X122897Y64554D01*
G01X122793Y64607D01*
G01X122689Y64708D01*
G01X122638Y64866D01*
G01X122584Y65074D01*
G01X122534Y65178D01*
G01X122430Y65229D01*
G01X122325Y65229D01*
G01X122221Y65178D01*
G01X122170Y65021D01*
G01X122170Y64813D01*
G01X8633Y53087D02*
G01X8633Y51997D01*
G01X8633Y53087D02*
G01X9101Y53087D01*
G01X9256Y53036D01*
G01X9309Y52985D01*
G01X9360Y52881D01*
G01X9360Y52777D01*
G01X9309Y52673D01*
G01X9256Y52620D01*
G01X9101Y52569D01*
G01X8633Y52569D01*
G01X8997Y52569D02*
G01X9360Y51997D01*
G01X10069Y53087D02*
G01X10069Y51997D01*
G01X9703Y53087D02*
G01X10432Y53087D01*
G01X10775Y53087D02*
G01X10775Y51997D01*
G01X10775Y53087D02*
G01X11501Y51997D01*
G01X11501Y53087D02*
G01X11501Y51997D01*
G01X11844Y53087D02*
G01X11844Y51997D01*
G01X11844Y53087D02*
G01X12311Y53087D01*
G01X12469Y53036D01*
G01X12520Y52985D01*
G01X12570Y52881D01*
G01X12570Y52777D01*
G01X12520Y52673D01*
G01X12469Y52620D01*
G01X12311Y52569D01*
G01X11844Y52569D01*
G01X12207Y52569D02*
G01X12570Y51997D01*
G01X23873Y52833D02*
G01X23873Y51743D01*
G01X23873Y52833D02*
G01X24341Y52833D01*
G01X24496Y52782D01*
G01X24549Y52731D01*
G01X24600Y52627D01*
G01X24600Y52523D01*
G01X24549Y52419D01*
G01X24496Y52366D01*
G01X24341Y52315D01*
G01X23873Y52315D01*
G01X24237Y52315D02*
G01X24600Y51743D01*
G01X25308Y52833D02*
G01X25308Y51743D01*
G01X24943Y52833D02*
G01X25672Y52833D01*
G01X26015Y52833D02*
G01X26015Y51743D01*
G01X26015Y52833D02*
G01X26741Y51743D01*
G01X26741Y52833D02*
G01X26741Y51743D01*
G01X27084Y52833D02*
G01X27084Y51743D01*
G01X27084Y51743D02*
G01X27709Y51743D01*
G01X8631Y44707D02*
G01X8631Y43617D01*
G01X8631Y44707D02*
G01X9099Y44707D01*
G01X9254Y44656D01*
G01X9307Y44605D01*
G01X9358Y44501D01*
G01X9358Y44397D01*
G01X9307Y44293D01*
G01X9254Y44239D01*
G01X9099Y44188D01*
G01X8631Y44188D01*
G01X8995Y44188D02*
G01X9358Y43617D01*
G01X10066Y44707D02*
G01X10066Y43617D01*
G01X9701Y44707D02*
G01X10430Y44707D01*
G01X10773Y44707D02*
G01X10773Y43617D01*
G01X10773Y44707D02*
G01X11499Y43617D01*
G01X11499Y44707D02*
G01X11499Y43617D01*
G01X12154Y44707D02*
G01X11997Y44656D01*
G01X11895Y44501D01*
G01X11842Y44239D01*
G01X11842Y44084D01*
G01X11895Y43825D01*
G01X11997Y43668D01*
G01X12154Y43617D01*
G01X12258Y43617D01*
G01X12413Y43668D01*
G01X12518Y43825D01*
G01X12568Y44084D01*
G01X12568Y44239D01*
G01X12518Y44501D01*
G01X12413Y44656D01*
G01X12258Y44707D01*
G01X12154Y44707D01*
G01X23871Y44453D02*
G01X23871Y43363D01*
G01X23871Y44453D02*
G01X24339Y44453D01*
G01X24494Y44402D01*
G01X24547Y44351D01*
G01X24598Y44247D01*
G01X24598Y44143D01*
G01X24547Y44039D01*
G01X24494Y43985D01*
G01X24339Y43934D01*
G01X23871Y43934D01*
G01X24235Y43934D02*
G01X24598Y43363D01*
G01X25306Y44453D02*
G01X25306Y43363D01*
G01X24941Y44453D02*
G01X25670Y44453D01*
G01X26013Y44453D02*
G01X26013Y43363D01*
G01X26013Y44453D02*
G01X26739Y43363D01*
G01X26739Y44453D02*
G01X26739Y43363D01*
G01X27082Y44247D02*
G01X27186Y44298D01*
G01X27341Y44453D01*
G01X27341Y43363D01*
G01X8631Y36326D02*
G01X8631Y35236D01*
G01X8631Y36326D02*
G01X9098Y36326D01*
G01X9253Y36275D01*
G01X9306Y36224D01*
G01X9357Y36120D01*
G01X9357Y36016D01*
G01X9306Y35912D01*
G01X9253Y35858D01*
G01X9098Y35808D01*
G01X8631Y35808D01*
G01X8994Y35808D02*
G01X9357Y35236D01*
G01X10066Y36326D02*
G01X10066Y35236D01*
G01X9700Y36326D02*
G01X10429Y36326D01*
G01X10772Y36326D02*
G01X10772Y35236D01*
G01X10772Y36326D02*
G01X11498Y35236D01*
G01X11498Y36326D02*
G01X11498Y35236D01*
G01X11895Y36067D02*
G01X11895Y36120D01*
G01X11945Y36224D01*
G01X11996Y36275D01*
G01X12100Y36326D01*
G01X12309Y36326D01*
G01X12413Y36275D01*
G01X12466Y36224D01*
G01X12517Y36120D01*
G01X12517Y36016D01*
G01X12466Y35912D01*
G01X12362Y35754D01*
G01X11841Y35236D01*
G01X12568Y35236D01*
G01X8633Y27433D02*
G01X8633Y26343D01*
G01X8633Y27433D02*
G01X9101Y27433D01*
G01X9256Y27382D01*
G01X9309Y27331D01*
G01X9360Y27227D01*
G01X9360Y27123D01*
G01X9309Y27019D01*
G01X9256Y26966D01*
G01X9101Y26915D01*
G01X8633Y26915D01*
G01X8997Y26915D02*
G01X9360Y26343D01*
G01X10068Y27433D02*
G01X10068Y26343D01*
G01X9703Y27433D02*
G01X10432Y27433D01*
G01X10775Y27433D02*
G01X10775Y26343D01*
G01X10775Y27433D02*
G01X11501Y26343D01*
G01X11501Y27433D02*
G01X11501Y26343D01*
G01X11948Y27433D02*
G01X12520Y27433D01*
G01X12207Y27019D01*
G01X12365Y27019D01*
G01X12469Y26966D01*
G01X12520Y26915D01*
G01X12570Y26760D01*
G01X12570Y26656D01*
G01X12520Y26498D01*
G01X12415Y26394D01*
G01X12261Y26343D01*
G01X12103Y26343D01*
G01X11948Y26394D01*
G01X11897Y26448D01*
G01X11844Y26552D01*
G01X23619Y18289D02*
G01X23619Y17199D01*
G01X23619Y18289D02*
G01X24087Y18289D01*
G01X24242Y18238D01*
G01X24295Y18187D01*
G01X24346Y18083D01*
G01X24346Y17979D01*
G01X24295Y17875D01*
G01X24242Y17822D01*
G01X24087Y17771D01*
G01X23619Y17771D01*
G01X23983Y17771D02*
G01X24346Y17199D01*
G01X25055Y18289D02*
G01X25055Y17199D01*
G01X24689Y18289D02*
G01X25418Y18289D01*
G01X25761Y18289D02*
G01X25761Y17199D01*
G01X25761Y18289D02*
G01X26487Y17199D01*
G01X26487Y18289D02*
G01X26487Y17199D01*
G01X27351Y18289D02*
G01X26830Y17563D01*
G01X27610Y17563D01*
G01X27351Y18289D02*
G01X27351Y17199D01*
G01X8633Y18289D02*
G01X8633Y17199D01*
G01X8633Y18289D02*
G01X9101Y18289D01*
G01X9256Y18238D01*
G01X9309Y18187D01*
G01X9360Y18083D01*
G01X9360Y17979D01*
G01X9309Y17875D01*
G01X9256Y17822D01*
G01X9101Y17771D01*
G01X8633Y17771D01*
G01X8997Y17771D02*
G01X9360Y17199D01*
G01X10069Y18289D02*
G01X10069Y17199D01*
G01X9703Y18289D02*
G01X10432Y18289D01*
G01X10775Y18289D02*
G01X10775Y17199D01*
G01X10775Y18289D02*
G01X11501Y17199D01*
G01X11501Y18289D02*
G01X11501Y17199D01*
G01X12469Y18289D02*
G01X11948Y18289D01*
G01X11897Y17822D01*
G01X11948Y17875D01*
G01X12103Y17926D01*
G01X12261Y17926D01*
G01X12416Y17875D01*
G01X12520Y17771D01*
G01X12570Y17616D01*
G01X12570Y17512D01*
G01X12520Y17354D01*
G01X12416Y17250D01*
G01X12261Y17199D01*
G01X12103Y17199D01*
G01X11948Y17250D01*
G01X11897Y17304D01*
G01X11844Y17408D01*
G01X23619Y9653D02*
G01X23619Y8563D01*
G01X23619Y9653D02*
G01X24087Y9653D01*
G01X24242Y9602D01*
G01X24295Y9551D01*
G01X24346Y9447D01*
G01X24346Y9343D01*
G01X24295Y9239D01*
G01X24242Y9186D01*
G01X24087Y9135D01*
G01X23619Y9135D01*
G01X23983Y9135D02*
G01X24346Y8563D01*
G01X25054Y9653D02*
G01X25054Y8563D01*
G01X24689Y9653D02*
G01X25418Y9653D01*
G01X25761Y9653D02*
G01X25761Y8563D01*
G01X25761Y9653D02*
G01X26487Y8563D01*
G01X26487Y9653D02*
G01X26487Y8563D01*
G01X27455Y9498D02*
G01X27401Y9602D01*
G01X27246Y9653D01*
G01X27142Y9653D01*
G01X26985Y9602D01*
G01X26883Y9447D01*
G01X26830Y9186D01*
G01X26830Y8927D01*
G01X26883Y8718D01*
G01X26985Y8614D01*
G01X27142Y8563D01*
G01X27193Y8563D01*
G01X27351Y8614D01*
G01X27455Y8718D01*
G01X27506Y8876D01*
G01X27506Y8927D01*
G01X27455Y9082D01*
G01X27351Y9186D01*
G01X27193Y9239D01*
G01X27142Y9239D01*
G01X26985Y9186D01*
G01X26883Y9082D01*
G01X26830Y8927D01*
G01X8887Y9653D02*
G01X8887Y8563D01*
G01X8887Y9653D02*
G01X9355Y9653D01*
G01X9510Y9602D01*
G01X9563Y9551D01*
G01X9614Y9447D01*
G01X9614Y9343D01*
G01X9563Y9239D01*
G01X9510Y9186D01*
G01X9355Y9135D01*
G01X8887Y9135D01*
G01X9251Y9135D02*
G01X9614Y8563D01*
G01X10323Y9653D02*
G01X10323Y8563D01*
G01X9957Y9653D02*
G01X10686Y9653D01*
G01X11029Y9653D02*
G01X11029Y8563D01*
G01X11029Y9653D02*
G01X11755Y8563D01*
G01X11755Y9653D02*
G01X11755Y8563D01*
G01X12824Y9653D02*
G01X12306Y8563D01*
G01X12098Y9653D02*
G01X12824Y9653D01*
G01X23370Y27430D02*
G01X23370Y26340D01*
G01X23370Y27430D02*
G01X23837Y27430D01*
G01X23992Y27379D01*
G01X24045Y27328D01*
G01X24096Y27224D01*
G01X24096Y27120D01*
G01X24045Y27016D01*
G01X23992Y26963D01*
G01X23837Y26912D01*
G01X23370Y26912D01*
G01X23733Y26912D02*
G01X24096Y26340D01*
G01X24805Y27430D02*
G01X24805Y26340D01*
G01X24439Y27430D02*
G01X25168Y27430D01*
G01X25511Y27430D02*
G01X25511Y26340D01*
G01X25511Y27430D02*
G01X26237Y26340D01*
G01X26237Y27430D02*
G01X26237Y26340D01*
G01X26839Y27430D02*
G01X26684Y27379D01*
G01X26633Y27275D01*
G01X26633Y27171D01*
G01X26684Y27067D01*
G01X26788Y27016D01*
G01X26997Y26963D01*
G01X27152Y26912D01*
G01X27256Y26808D01*
G01X27307Y26704D01*
G01X27307Y26549D01*
G01X27256Y26445D01*
G01X27205Y26391D01*
G01X27047Y26340D01*
G01X26839Y26340D01*
G01X26684Y26391D01*
G01X26633Y26445D01*
G01X26580Y26549D01*
G01X26580Y26704D01*
G01X26633Y26808D01*
G01X26735Y26912D01*
G01X26893Y26963D01*
G01X27101Y27016D01*
G01X27205Y27067D01*
G01X27256Y27171D01*
G01X27256Y27275D01*
G01X27205Y27379D01*
G01X27047Y27430D01*
G01X26839Y27430D01*
G01X23619Y36323D02*
G01X23619Y35233D01*
G01X23619Y36323D02*
G01X24087Y36323D01*
G01X24242Y36272D01*
G01X24295Y36221D01*
G01X24346Y36117D01*
G01X24346Y36013D01*
G01X24295Y35909D01*
G01X24242Y35856D01*
G01X24087Y35805D01*
G01X23619Y35805D01*
G01X23983Y35805D02*
G01X24346Y35233D01*
G01X25055Y36323D02*
G01X25055Y35233D01*
G01X24689Y36323D02*
G01X25418Y36323D01*
G01X25761Y36323D02*
G01X25761Y35233D01*
G01X25761Y36323D02*
G01X26487Y35233D01*
G01X26487Y36323D02*
G01X26487Y35233D01*
G01X27506Y35960D02*
G01X27455Y35805D01*
G01X27351Y35701D01*
G01X27193Y35650D01*
G01X27142Y35650D01*
G01X26985Y35701D01*
G01X26883Y35805D01*
G01X26830Y35960D01*
G01X26830Y36013D01*
G01X26883Y36168D01*
G01X26985Y36272D01*
G01X27142Y36323D01*
G01X27193Y36323D01*
G01X27351Y36272D01*
G01X27455Y36168D01*
G01X27506Y35960D01*
G01X27506Y35701D01*
G01X27455Y35442D01*
G01X27351Y35284D01*
G01X27193Y35233D01*
G01X27089Y35233D01*
G01X26934Y35284D01*
G01X26883Y35388D01*
G01X62487Y49527D02*
G01X62487Y48438D01*
G01X62487Y49527D02*
G01X62954Y49527D01*
G01X63109Y49477D01*
G01X63162Y49426D01*
G01X63213Y49322D01*
G01X63213Y49218D01*
G01X63162Y49113D01*
G01X63109Y49060D01*
G01X62954Y49009D01*
G01X62487Y49009D01*
G01X62850Y49009D02*
G01X63213Y48438D01*
G01X63556Y49527D02*
G01X63556Y48438D01*
G01X63556Y49527D02*
G01X64023Y49527D01*
G01X64181Y49477D01*
G01X64232Y49426D01*
G01X64285Y49322D01*
G01X64285Y49218D01*
G01X64232Y49113D01*
G01X64181Y49060D01*
G01X64023Y49009D01*
G01X63556Y49009D01*
G01X63922Y49009D02*
G01X64285Y48438D01*
G01X71629Y49528D02*
G01X71629Y48438D01*
G01X71629Y49528D02*
G01X72097Y49528D01*
G01X72252Y49477D01*
G01X72305Y49426D01*
G01X72356Y49322D01*
G01X72356Y49218D01*
G01X72305Y49114D01*
G01X72252Y49061D01*
G01X72097Y49010D01*
G01X71629Y49010D01*
G01X71993Y49010D02*
G01X72356Y48438D01*
G01X73479Y49269D02*
G01X73428Y49373D01*
G01X73324Y49477D01*
G01X73219Y49528D01*
G01X73011Y49528D01*
G01X72907Y49477D01*
G01X72803Y49373D01*
G01X72752Y49269D01*
G01X72699Y49114D01*
G01X72699Y48855D01*
G01X72752Y48697D01*
G01X72803Y48593D01*
G01X72907Y48489D01*
G01X73011Y48438D01*
G01X73219Y48438D01*
G01X73324Y48489D01*
G01X73428Y48593D01*
G01X73479Y48697D01*
G01X73479Y48855D01*
G01X73219Y48855D02*
G01X73479Y48855D01*
G01X53343Y49527D02*
G01X53343Y48438D01*
G01X53343Y49527D02*
G01X53810Y49527D01*
G01X53965Y49477D01*
G01X54018Y49426D01*
G01X54069Y49322D01*
G01X54069Y49218D01*
G01X54018Y49113D01*
G01X53965Y49060D01*
G01X53810Y49009D01*
G01X53343Y49009D01*
G01X53706Y49009D02*
G01X54069Y48438D01*
G01X54412Y49527D02*
G01X54412Y48438D01*
G01X54412Y49527D02*
G01X54879Y49527D01*
G01X55037Y49477D01*
G01X55088Y49426D01*
G01X55141Y49322D01*
G01X55141Y49218D01*
G01X55088Y49113D01*
G01X55037Y49060D01*
G01X54879Y49009D01*
G01X54412Y49009D02*
G01X54879Y49009D01*
G01X55037Y48956D01*
G01X55088Y48905D01*
G01X55141Y48801D01*
G01X55141Y48646D01*
G01X55088Y48542D01*
G01X55037Y48489D01*
G01X54879Y48438D01*
G01X54412Y48438D01*
G01X230139Y57400D02*
G01X230085Y57504D01*
G01X229981Y57608D01*
G01X229880Y57659D01*
G01X229671Y57659D01*
G01X229567Y57608D01*
G01X229463Y57504D01*
G01X229410Y57400D01*
G01X229359Y57245D01*
G01X229359Y56986D01*
G01X229410Y56828D01*
G01X229463Y56724D01*
G01X229567Y56620D01*
G01X229671Y56569D01*
G01X229880Y56569D01*
G01X229981Y56620D01*
G01X230085Y56724D01*
G01X230139Y56828D01*
G01X230482Y57659D02*
G01X230482Y56569D01*
G01X231208Y57659D02*
G01X231208Y56569D01*
G01X230482Y57141D02*
G01X231208Y57141D01*
G01X231604Y57400D02*
G01X231604Y57453D01*
G01X231655Y57557D01*
G01X231708Y57608D01*
G01X231810Y57659D01*
G01X232018Y57659D01*
G01X232123Y57608D01*
G01X232176Y57557D01*
G01X232227Y57453D01*
G01X232227Y57349D01*
G01X232176Y57245D01*
G01X232072Y57087D01*
G01X231551Y56569D01*
G01X232280Y56569D01*
G01X209801Y55881D02*
G01X209801Y54791D01*
G01X209801Y54791D02*
G01X210423Y54791D01*
G01X210766Y55675D02*
G01X210870Y55726D01*
G01X211028Y55881D01*
G01X211028Y54791D01*
G54D52*
G01X209555Y59605D02*
G01X209486Y59739D01*
G01X209349Y59876D01*
G01X209214Y59945D01*
G01X208940Y59945D01*
G01X208805Y59876D01*
G01X208668Y59739D01*
G01X208600Y59605D01*
G01X208531Y59399D01*
G01X208531Y59058D01*
G01X208600Y58853D01*
G01X208668Y58718D01*
G01X208805Y58581D01*
G01X208940Y58512D01*
G01X209214Y58512D01*
G01X209349Y58581D01*
G01X209486Y58718D01*
G01X209555Y58853D01*
G01X210413Y59945D02*
G01X210276Y59876D01*
G01X210141Y59739D01*
G01X210073Y59605D01*
G01X210004Y59399D01*
G01X210004Y59058D01*
G01X210073Y58853D01*
G01X210141Y58718D01*
G01X210276Y58581D01*
G01X210413Y58512D01*
G01X210685Y58512D01*
G01X210822Y58581D01*
G01X210959Y58718D01*
G01X211028Y58853D01*
G01X211096Y59058D01*
G01X211096Y59399D01*
G01X211028Y59605D01*
G01X210959Y59739D01*
G01X210822Y59876D01*
G01X210685Y59945D01*
G01X210413Y59945D01*
G01X211546Y59945D02*
G01X211546Y58512D01*
G01X211996Y59945D02*
G01X211996Y58512D01*
G01X211996Y58512D02*
G01X212813Y58512D01*
G54D43*
G01X228343Y75185D02*
G01X228343Y74095D01*
G01X228343Y75185D02*
G01X228810Y75185D01*
G01X228965Y75134D01*
G01X229019Y75083D01*
G01X229069Y74979D01*
G01X229069Y74875D01*
G01X229019Y74771D01*
G01X228965Y74718D01*
G01X228810Y74667D01*
G01X228343Y74667D01*
G01X228706Y74667D02*
G01X229069Y74095D01*
G01X229412Y75185D02*
G01X229412Y74095D01*
G01X230141Y75185D02*
G01X230141Y74095D01*
G01X229412Y74667D02*
G01X230141Y74667D01*
G01X231107Y75030D02*
G01X231056Y75134D01*
G01X230898Y75185D01*
G01X230794Y75185D01*
G01X230639Y75134D01*
G01X230535Y74979D01*
G01X230484Y74718D01*
G01X230484Y74458D01*
G01X230535Y74250D01*
G01X230639Y74146D01*
G01X230794Y74095D01*
G01X230847Y74095D01*
G01X231002Y74146D01*
G01X231107Y74250D01*
G01X231160Y74408D01*
G01X231160Y74458D01*
G01X231107Y74613D01*
G01X231002Y74718D01*
G01X230847Y74771D01*
G01X230794Y74771D01*
G01X230639Y74718D01*
G01X230535Y74613D01*
G01X230484Y74458D01*
G01X95249Y69595D02*
G01X95249Y68506D01*
G01X95249Y69595D02*
G01X95717Y69595D01*
G01X95872Y69545D01*
G01X95925Y69494D01*
G01X95976Y69390D01*
G01X95976Y69286D01*
G01X95925Y69181D01*
G01X95872Y69128D01*
G01X95717Y69077D01*
G01X95249Y69077D01*
G01X95613Y69077D02*
G01X95976Y68506D01*
G01X96372Y69336D02*
G01X96372Y69390D01*
G01X96423Y69494D01*
G01X96476Y69545D01*
G01X96580Y69595D01*
G01X96786Y69595D01*
G01X96890Y69545D01*
G01X96944Y69494D01*
G01X96994Y69390D01*
G01X96994Y69286D01*
G01X96944Y69181D01*
G01X96839Y69024D01*
G01X96319Y68506D01*
G01X97048Y68506D01*
G01X97391Y69390D02*
G01X97495Y69440D01*
G01X97650Y69595D01*
G01X97650Y68506D01*
G01X90423Y69595D02*
G01X90423Y68506D01*
G01X90423Y69595D02*
G01X90891Y69595D01*
G01X91046Y69545D01*
G01X91099Y69494D01*
G01X91150Y69390D01*
G01X91150Y69285D01*
G01X91099Y69181D01*
G01X91046Y69128D01*
G01X90891Y69077D01*
G01X90423Y69077D01*
G01X90787Y69077D02*
G01X91150Y68506D01*
G01X92222Y69440D02*
G01X92118Y69545D01*
G01X91960Y69595D01*
G01X91754Y69595D01*
G01X91597Y69545D01*
G01X91493Y69440D01*
G01X91493Y69336D01*
G01X91546Y69232D01*
G01X91597Y69181D01*
G01X91701Y69128D01*
G01X92013Y69024D01*
G01X92118Y68973D01*
G01X92168Y68922D01*
G01X92222Y68818D01*
G01X92222Y68661D01*
G01X92118Y68556D01*
G01X91960Y68506D01*
G01X91754Y68506D01*
G01X91597Y68556D01*
G01X91493Y68661D01*
G01X92928Y69595D02*
G01X92928Y68506D01*
G01X92565Y69595D02*
G01X93291Y69595D01*
G01X48513Y69849D02*
G01X48513Y68760D01*
G01X48513Y69849D02*
G01X48981Y69849D01*
G01X49136Y69799D01*
G01X49189Y69748D01*
G01X49240Y69644D01*
G01X49240Y69539D01*
G01X49189Y69435D01*
G01X49136Y69382D01*
G01X48981Y69331D01*
G01X48513Y69331D01*
G01X48877Y69331D02*
G01X49240Y68760D01*
G01X49636Y69590D02*
G01X49636Y69644D01*
G01X49687Y69748D01*
G01X49740Y69799D01*
G01X49844Y69849D01*
G01X50050Y69849D01*
G01X50154Y69799D01*
G01X50208Y69748D01*
G01X50258Y69644D01*
G01X50258Y69539D01*
G01X50208Y69435D01*
G01X50103Y69278D01*
G01X49583Y68760D01*
G01X50312Y68760D01*
G01X50705Y69590D02*
G01X50705Y69644D01*
G01X50759Y69748D01*
G01X50810Y69799D01*
G01X50914Y69849D01*
G01X51122Y69849D01*
G01X51226Y69799D01*
G01X51277Y69748D01*
G01X51330Y69644D01*
G01X51330Y69539D01*
G01X51277Y69435D01*
G01X51173Y69278D01*
G01X50655Y68760D01*
G01X51381Y68760D01*
G01X51818Y69745D02*
G01X51818Y68656D01*
G01X51818Y69745D02*
G01X52286Y69745D01*
G01X52441Y69694D01*
G01X52494Y69644D01*
G01X52545Y69540D01*
G01X52545Y69435D01*
G01X52494Y69331D01*
G01X52441Y69278D01*
G01X52286Y69227D01*
G01X51818Y69227D02*
G01X52286Y69227D01*
G01X52441Y69174D01*
G01X52494Y69123D01*
G01X52545Y69019D01*
G01X52545Y68864D01*
G01X52494Y68760D01*
G01X52441Y68706D01*
G01X52286Y68656D01*
G01X51818Y68656D01*
G01X53253Y69745D02*
G01X53253Y68656D01*
G01X52888Y69745D02*
G01X53617Y69745D01*
G01X53960Y69745D02*
G01X53960Y68656D01*
G01X53960Y69745D02*
G01X54686Y68656D01*
G01X54686Y69745D02*
G01X54686Y68656D01*
G01X55029Y69540D02*
G01X55133Y69590D01*
G01X55288Y69745D01*
G01X55288Y68656D01*
G01X60197Y69598D02*
G01X60197Y68508D01*
G01X60197Y69598D02*
G01X60665Y69598D01*
G01X60820Y69547D01*
G01X60873Y69496D01*
G01X60924Y69392D01*
G01X60924Y69288D01*
G01X60873Y69184D01*
G01X60820Y69131D01*
G01X60665Y69080D01*
G01X60197Y69080D01*
G01X60561Y69080D02*
G01X60924Y68508D01*
G01X61320Y69339D02*
G01X61320Y69392D01*
G01X61371Y69496D01*
G01X61424Y69547D01*
G01X61528Y69598D01*
G01X61734Y69598D01*
G01X61838Y69547D01*
G01X61892Y69496D01*
G01X61942Y69392D01*
G01X61942Y69288D01*
G01X61892Y69184D01*
G01X61787Y69026D01*
G01X61267Y68508D01*
G01X61996Y68508D01*
G01X62443Y69598D02*
G01X63014Y69598D01*
G01X62702Y69184D01*
G01X62857Y69184D01*
G01X62961Y69131D01*
G01X63014Y69080D01*
G01X63065Y68925D01*
G01X63065Y68821D01*
G01X63014Y68663D01*
G01X62910Y68559D01*
G01X62753Y68508D01*
G01X62598Y68508D01*
G01X62443Y68559D01*
G01X62389Y68612D01*
G01X62339Y68717D01*
G01X64771Y69642D02*
G01X64771Y68552D01*
G01X64771Y69642D02*
G01X65239Y69642D01*
G01X65394Y69591D01*
G01X65447Y69540D01*
G01X65498Y69436D01*
G01X65498Y69332D01*
G01X65447Y69228D01*
G01X65394Y69174D01*
G01X65239Y69124D01*
G01X64771Y69124D02*
G01X65239Y69124D01*
G01X65394Y69070D01*
G01X65447Y69019D01*
G01X65498Y68915D01*
G01X65498Y68760D01*
G01X65447Y68656D01*
G01X65394Y68603D01*
G01X65239Y68552D01*
G01X64771Y68552D01*
G01X66206Y69642D02*
G01X66206Y68552D01*
G01X65841Y69642D02*
G01X66570Y69642D01*
G01X66912Y69642D02*
G01X66912Y68552D01*
G01X66912Y69642D02*
G01X67639Y68552D01*
G01X67639Y69642D02*
G01X67639Y68552D01*
G01X68035Y69383D02*
G01X68035Y69436D01*
G01X68086Y69540D01*
G01X68137Y69591D01*
G01X68241Y69642D01*
G01X68449Y69642D01*
G01X68553Y69591D01*
G01X68607Y69540D01*
G01X68657Y69436D01*
G01X68657Y69332D01*
G01X68607Y69228D01*
G01X68502Y69070D01*
G01X67982Y68552D01*
G01X68708Y68552D01*
G54D52*
G01X74185Y76055D02*
G01X74132Y76159D01*
G01X74028Y76263D01*
G01X73924Y76314D01*
G01X73718Y76314D01*
G01X73614Y76263D01*
G01X73510Y76159D01*
G01X73456Y76055D01*
G01X73406Y75900D01*
G01X73406Y75641D01*
G01X73456Y75483D01*
G01X73510Y75379D01*
G01X73614Y75275D01*
G01X73718Y75224D01*
G01X73924Y75224D01*
G01X74028Y75275D01*
G01X74132Y75379D01*
G01X74185Y75483D01*
G01X74185Y75641D01*
G01X73924Y75641D02*
G01X74185Y75641D01*
G01X74528Y76314D02*
G01X74528Y75224D01*
G01X74528Y76314D02*
G01X75255Y75224D01*
G01X75255Y76314D02*
G01X75255Y75224D01*
G01X75598Y76314D02*
G01X75598Y75224D01*
G01X75598Y76314D02*
G01X75961Y76314D01*
G01X76118Y76263D01*
G01X76222Y76159D01*
G01X76273Y76055D01*
G01X76324Y75900D01*
G01X76324Y75641D01*
G01X76273Y75483D01*
G01X76222Y75379D01*
G01X76118Y75275D01*
G01X75961Y75224D01*
G01X75598Y75224D01*
G01X77292Y76314D02*
G01X76771Y76314D01*
G01X76720Y75846D01*
G01X76771Y75900D01*
G01X76928Y75950D01*
G01X77083Y75950D01*
G01X77238Y75900D01*
G01X77343Y75795D01*
G01X77396Y75641D01*
G01X77396Y75536D01*
G01X77343Y75379D01*
G01X77238Y75275D01*
G01X77083Y75224D01*
G01X76928Y75224D01*
G01X76771Y75275D01*
G01X76720Y75328D01*
G01X76667Y75432D01*
G01X77739Y76314D02*
G01X78153Y75224D01*
G01X78569Y76314D02*
G01X78153Y75224D01*
G01X79275Y76314D02*
G01X79275Y75224D01*
G01X78912Y76314D02*
G01X79639Y76314D01*
G01X79982Y76314D02*
G01X80711Y75224D01*
G01X80711Y76314D02*
G01X79982Y75224D01*
G01X81053Y76314D02*
G01X81053Y75224D01*
G01X81053Y76314D02*
G01X81521Y76314D01*
G01X81676Y76263D01*
G01X81729Y76212D01*
G01X81780Y76108D01*
G01X81780Y76004D01*
G01X81729Y75900D01*
G01X81676Y75846D01*
G01X81521Y75795D01*
G01X81053Y75795D01*
G01X81417Y75795D02*
G01X81780Y75224D01*
G01X82123Y76314D02*
G01X82852Y75224D01*
G01X82852Y76314D02*
G01X82123Y75224D01*
G01X83195Y76314D02*
G01X83195Y75224D01*
G01X83195Y76314D02*
G01X83662Y76314D01*
G01X83817Y76263D01*
G01X83868Y76212D01*
G01X83921Y76108D01*
G01X83921Y76004D01*
G01X83868Y75900D01*
G01X83817Y75846D01*
G01X83662Y75795D01*
G01X83195Y75795D01*
G01X83558Y75795D02*
G01X83921Y75224D01*
G01X84990Y76159D02*
G01X84886Y76263D01*
G01X84731Y76314D01*
G01X84523Y76314D01*
G01X84368Y76263D01*
G01X84264Y76159D01*
G01X84264Y76055D01*
G01X84315Y75950D01*
G01X84368Y75900D01*
G01X84472Y75846D01*
G01X84782Y75742D01*
G01X84886Y75691D01*
G01X84940Y75641D01*
G01X84990Y75536D01*
G01X84990Y75379D01*
G01X84886Y75275D01*
G01X84731Y75224D01*
G01X84523Y75224D01*
G01X84368Y75275D01*
G01X84264Y75379D01*
G01X85697Y76314D02*
G01X85697Y75224D01*
G01X85333Y76314D02*
G01X86062Y76314D01*
G01X213867Y46227D02*
G01X213867Y44289D01*
G01X213867Y46227D02*
G01X215160Y44289D01*
G01X215160Y46227D02*
G01X215160Y44289D01*
G01X215770Y46227D02*
G01X215770Y44289D01*
G01X216379Y46227D02*
G01X217672Y44289D01*
G01X217672Y46227D02*
G01X216379Y44289D01*
G01X218282Y46227D02*
G01X218282Y44289D01*
G01X218891Y46227D02*
G01X218891Y44289D01*
G01X218891Y46227D02*
G01X220093Y46227D01*
G01X218891Y45305D02*
G01X219630Y45305D01*
G01X218891Y44289D02*
G01X220093Y44289D01*
G01X223509Y45768D02*
G01X223417Y45951D01*
G01X223232Y46136D01*
G01X223047Y46227D01*
G01X222678Y46227D01*
G01X222493Y46136D01*
G01X222308Y45951D01*
G01X222216Y45768D01*
G01X222125Y45491D01*
G01X222125Y45029D01*
G01X222216Y44752D01*
G01X222308Y44566D01*
G01X222493Y44381D01*
G01X222678Y44289D01*
G01X223047Y44289D01*
G01X223232Y44381D01*
G01X223417Y44566D01*
G01X223509Y44752D01*
G01X224119Y46227D02*
G01X224119Y44289D01*
G01X224119Y44289D02*
G01X225226Y44289D01*
G01X226392Y46227D02*
G01X226206Y46136D01*
G01X226021Y45951D01*
G01X225930Y45768D01*
G01X225836Y45491D01*
G01X225836Y45029D01*
G01X225930Y44752D01*
G01X226021Y44566D01*
G01X226206Y44381D01*
G01X226392Y44289D01*
G01X226760Y44289D01*
G01X226946Y44381D01*
G01X227128Y44566D01*
G01X227222Y44752D01*
G01X227314Y45029D01*
G01X227314Y45491D01*
G01X227222Y45768D01*
G01X227128Y45951D01*
G01X226946Y46136D01*
G01X226760Y46227D01*
G01X226392Y46227D01*
G01X229310Y45768D02*
G01X229216Y45951D01*
G01X229033Y46136D01*
G01X228848Y46227D01*
G01X228477Y46227D01*
G01X228294Y46136D01*
G01X228109Y45951D01*
G01X228017Y45768D01*
G01X227923Y45491D01*
G01X227923Y45029D01*
G01X228017Y44752D01*
G01X228109Y44566D01*
G01X228294Y44381D01*
G01X228477Y44289D01*
G01X228848Y44289D01*
G01X229033Y44381D01*
G01X229216Y44566D01*
G01X229310Y44752D01*
G01X229920Y46227D02*
G01X229920Y44289D01*
G01X231213Y46227D02*
G01X229920Y44935D01*
G01X230380Y45397D02*
G01X231213Y44289D01*
G01X233245Y46227D02*
G01X233984Y44289D01*
G01X234723Y46227D02*
G01X233984Y44289D01*
G01X235333Y45029D02*
G01X236440Y45029D01*
G01X236440Y45211D01*
G01X236349Y45397D01*
G01X236255Y45491D01*
G01X236069Y45582D01*
G01X235792Y45582D01*
G01X235609Y45491D01*
G01X235424Y45305D01*
G01X235333Y45029D01*
G01X235333Y44843D01*
G01X235424Y44566D01*
G01X235609Y44381D01*
G01X235792Y44289D01*
G01X236069Y44289D01*
G01X236255Y44381D01*
G01X236440Y44566D01*
G01X237050Y45582D02*
G01X237050Y44289D01*
G01X237050Y45029D02*
G01X237141Y45305D01*
G01X237327Y45491D01*
G01X237512Y45582D01*
G01X237789Y45582D01*
G01X239821Y45859D02*
G01X240006Y45951D01*
G01X240283Y46227D01*
G01X240283Y44289D01*
G01X240984Y44752D02*
G01X240893Y44658D01*
G01X240984Y44566D01*
G01X241076Y44658D01*
G01X240984Y44752D01*
G01X242241Y46227D02*
G01X241962Y46136D01*
G01X241779Y45859D01*
G01X241685Y45397D01*
G01X241685Y45120D01*
G01X241779Y44658D01*
G01X241962Y44381D01*
G01X242241Y44289D01*
G01X242424Y44289D01*
G01X242701Y44381D01*
G01X242887Y44658D01*
G01X242978Y45120D01*
G01X242978Y45397D01*
G01X242887Y45859D01*
G01X242701Y46136D01*
G01X242424Y46227D01*
G01X242241Y46227D01*
G01X243682Y45768D02*
G01X243682Y45859D01*
G01X243773Y46045D01*
G01X243867Y46136D01*
G01X244050Y46227D01*
G01X244421Y46227D01*
G01X244604Y46136D01*
G01X244698Y46045D01*
G01X244789Y45859D01*
G01X244789Y45674D01*
G01X244698Y45491D01*
G01X244512Y45211D01*
G01X243588Y44289D01*
G01X244883Y44289D01*
G01X213867Y43179D02*
G01X214606Y42257D01*
G01X214606Y41241D01*
G01X215343Y43179D02*
G01X214606Y42257D01*
G01X216415Y42534D02*
G01X216232Y42443D01*
G01X216046Y42257D01*
G01X215952Y41981D01*
G01X215952Y41795D01*
G01X216046Y41518D01*
G01X216232Y41333D01*
G01X216415Y41241D01*
G01X216692Y41241D01*
G01X216877Y41333D01*
G01X217062Y41518D01*
G01X217154Y41795D01*
G01X217154Y41981D01*
G01X217062Y42257D01*
G01X216877Y42443D01*
G01X216692Y42534D01*
G01X216415Y42534D01*
G01X218873Y43179D02*
G01X218873Y41241D01*
G01X218873Y42257D02*
G01X218688Y42443D01*
G01X218503Y42534D01*
G01X218226Y42534D01*
G01X218040Y42443D01*
G01X217857Y42257D01*
G01X217763Y41981D01*
G01X217763Y41795D01*
G01X217857Y41518D01*
G01X218040Y41333D01*
G01X218226Y41241D01*
G01X218503Y41241D01*
G01X218688Y41333D01*
G01X218873Y41518D01*
G01X220590Y42534D02*
G01X220590Y41241D01*
G01X220590Y42257D02*
G01X220405Y42443D01*
G01X220220Y42534D01*
G01X219943Y42534D01*
G01X219760Y42443D01*
G01X219574Y42257D01*
G01X219483Y41981D01*
G01X219483Y41795D01*
G01X219574Y41518D01*
G01X219760Y41333D01*
G01X219943Y41241D01*
G01X220220Y41241D01*
G01X220405Y41333D01*
G01X220590Y41518D01*
G01X221200Y43179D02*
G01X221200Y41241D01*
G01X221200Y41241D02*
G01X222308Y41241D01*
G01X222917Y41981D02*
G01X224027Y41981D01*
G01X224027Y42163D01*
G01X223933Y42349D01*
G01X223842Y42443D01*
G01X223656Y42534D01*
G01X223379Y42534D01*
G01X223194Y42443D01*
G01X223011Y42257D01*
G01X222917Y41981D01*
G01X222917Y41795D01*
G01X223011Y41518D01*
G01X223194Y41333D01*
G01X223379Y41241D01*
G01X223656Y41241D01*
G01X223842Y41333D01*
G01X224027Y41518D01*
G01X224637Y41981D02*
G01X225744Y41981D01*
G01X225744Y42163D01*
G01X225653Y42349D01*
G01X225559Y42443D01*
G01X225376Y42534D01*
G01X225096Y42534D01*
G01X224914Y42443D01*
G01X224728Y42257D01*
G01X224637Y41981D01*
G01X224637Y41795D01*
G01X224728Y41518D01*
G01X224914Y41333D01*
G01X225096Y41241D01*
G01X225376Y41241D01*
G01X225559Y41333D01*
G01X225744Y41518D01*
G54D43*
G01X241825Y42410D02*
G01X241771Y42514D01*
G01X241667Y42618D01*
G01X241563Y42671D01*
G01X241357Y42671D01*
G01X241253Y42618D01*
G01X241149Y42514D01*
G01X241096Y42410D01*
G01X241045Y42255D01*
G01X241045Y41996D01*
G01X241096Y41838D01*
G01X241149Y41734D01*
G01X241253Y41630D01*
G01X241357Y41579D01*
G01X241563Y41579D01*
G01X241667Y41630D01*
G01X241771Y41734D01*
G01X241825Y41838D01*
G01X241825Y41996D01*
G01X241563Y41996D02*
G01X241825Y41996D01*
G01X242168Y42671D02*
G01X242168Y41579D01*
G01X242168Y42671D02*
G01X242894Y41579D01*
G01X242894Y42671D02*
G01X242894Y41579D01*
G01X243237Y42671D02*
G01X243237Y41579D01*
G01X243237Y42671D02*
G01X243600Y42671D01*
G01X243758Y42618D01*
G01X243859Y42514D01*
G01X243913Y42410D01*
G01X243964Y42255D01*
G01X243964Y41996D01*
G01X243913Y41838D01*
G01X243859Y41734D01*
G01X243758Y41630D01*
G01X243600Y41579D01*
G01X243237Y41579D01*
G01X199387Y43735D02*
G01X199491Y43785D01*
G01X199646Y43943D01*
G01X199646Y42851D01*
G01X200248Y43943D02*
G01X200093Y43890D01*
G01X200040Y43785D01*
G01X200040Y43681D01*
G01X200093Y43577D01*
G01X200197Y43526D01*
G01X200406Y43476D01*
G01X200560Y43422D01*
G01X200665Y43318D01*
G01X200715Y43214D01*
G01X200715Y43059D01*
G01X200665Y42955D01*
G01X200611Y42904D01*
G01X200456Y42851D01*
G01X200248Y42851D01*
G01X200093Y42904D01*
G01X200040Y42955D01*
G01X199989Y43059D01*
G01X199989Y43214D01*
G01X200040Y43318D01*
G01X200144Y43422D01*
G01X200301Y43476D01*
G01X200507Y43526D01*
G01X200611Y43577D01*
G01X200665Y43681D01*
G01X200665Y43785D01*
G01X200611Y43890D01*
G01X200456Y43943D01*
G01X200248Y43943D01*
G01X201371Y43943D02*
G01X201216Y43890D01*
G01X201112Y43735D01*
G01X201058Y43476D01*
G01X201058Y43318D01*
G01X201112Y43059D01*
G01X201216Y42904D01*
G01X201371Y42851D01*
G01X201475Y42851D01*
G01X201630Y42904D01*
G01X201734Y43059D01*
G01X201787Y43318D01*
G01X201787Y43476D01*
G01X201734Y43735D01*
G01X201630Y43890D01*
G01X201475Y43943D01*
G01X201371Y43943D01*
G01X202130Y43943D02*
G01X202544Y42851D01*
G01X202961Y43943D02*
G01X202544Y42851D01*
G01X62229Y11447D02*
G01X63319Y11447D01*
G01X62229Y11447D02*
G01X62229Y11917D01*
G01X62280Y12072D01*
G01X62333Y12123D01*
G01X62438Y12176D01*
G01X62542Y12176D01*
G01X62643Y12123D01*
G01X62697Y12072D01*
G01X62748Y11917D01*
G01X62748Y11447D01*
G01X62748Y11813D02*
G01X63319Y12176D01*
G01X62488Y13299D02*
G01X62384Y13246D01*
G01X62280Y13141D01*
G01X62229Y13037D01*
G01X62229Y12832D01*
G01X62280Y12727D01*
G01X62384Y12623D01*
G01X62488Y12570D01*
G01X62643Y12519D01*
G01X62905Y12519D01*
G01X63060Y12570D01*
G01X63164Y12623D01*
G01X63268Y12727D01*
G01X63319Y12832D01*
G01X63319Y13037D01*
G01X63268Y13141D01*
G01X63164Y13246D01*
G01X63060Y13299D01*
G01X62905Y13299D01*
G01X62905Y13037D02*
G01X62905Y13299D01*
G01X62229Y13642D02*
G01X63319Y13642D01*
G01X62229Y13642D02*
G01X62229Y14109D01*
G01X62280Y14264D01*
G01X62333Y14317D01*
G01X62438Y14368D01*
G01X62542Y14368D01*
G01X62643Y14317D01*
G01X62697Y14264D01*
G01X62748Y14109D01*
G01X62748Y13642D01*
G01X62748Y14005D02*
G01X63319Y14368D01*
G01X62229Y14711D02*
G01X63319Y14711D01*
G01X62229Y14711D02*
G01X62229Y15179D01*
G01X62280Y15333D01*
G01X62333Y15387D01*
G01X62438Y15438D01*
G01X62542Y15438D01*
G01X62643Y15387D01*
G01X62697Y15333D01*
G01X62748Y15179D01*
G01X62748Y14711D02*
G01X62748Y15179D01*
G01X62801Y15333D01*
G01X62852Y15387D01*
G01X62956Y15438D01*
G01X63113Y15438D01*
G01X63215Y15387D01*
G01X63268Y15333D01*
G01X63319Y15179D01*
G01X63319Y14711D01*
G01X62229Y16042D02*
G01X62280Y15885D01*
G01X62384Y15834D01*
G01X62488Y15834D01*
G01X62593Y15885D01*
G01X62643Y15989D01*
G01X62697Y16197D01*
G01X62748Y16352D01*
G01X62852Y16456D01*
G01X62956Y16509D01*
G01X63113Y16509D01*
G01X63215Y16456D01*
G01X63268Y16405D01*
G01X63319Y16248D01*
G01X63319Y16042D01*
G01X63268Y15885D01*
G01X63215Y15834D01*
G01X63113Y15780D01*
G01X62956Y15780D01*
G01X62852Y15834D01*
G01X62748Y15938D01*
G01X62697Y16093D01*
G01X62643Y16301D01*
G01X62593Y16405D01*
G01X62488Y16456D01*
G01X62384Y16456D01*
G01X62280Y16405D01*
G01X62229Y16248D01*
G01X62229Y16042D01*
G01X90167Y11197D02*
G01X91259Y11197D01*
G01X90167Y11197D02*
G01X90167Y11665D01*
G01X90218Y11822D01*
G01X90271Y11873D01*
G01X90376Y11926D01*
G01X90480Y11926D01*
G01X90584Y11873D01*
G01X90635Y11822D01*
G01X90688Y11665D01*
G01X90688Y11197D01*
G01X90688Y11561D02*
G01X91259Y11926D01*
G01X90426Y13046D02*
G01X90322Y12996D01*
G01X90218Y12892D01*
G01X90167Y12787D01*
G01X90167Y12579D01*
G01X90218Y12475D01*
G01X90322Y12371D01*
G01X90426Y12320D01*
G01X90584Y12269D01*
G01X90843Y12269D01*
G01X90998Y12320D01*
G01X91102Y12371D01*
G01X91206Y12475D01*
G01X91259Y12579D01*
G01X91259Y12787D01*
G01X91206Y12892D01*
G01X91102Y12996D01*
G01X90998Y13046D01*
G01X90843Y13046D01*
G01X90843Y12787D02*
G01X90843Y13046D01*
G01X90167Y13389D02*
G01X91259Y13389D01*
G01X90167Y13389D02*
G01X90167Y13857D01*
G01X90218Y14014D01*
G01X90271Y14065D01*
G01X90376Y14118D01*
G01X90480Y14118D01*
G01X90584Y14065D01*
G01X90635Y14014D01*
G01X90688Y13857D01*
G01X90688Y13389D01*
G01X90688Y13755D02*
G01X91259Y14118D01*
G01X90167Y14461D02*
G01X91259Y14461D01*
G01X90167Y14461D02*
G01X90167Y14929D01*
G01X90218Y15084D01*
G01X90271Y15137D01*
G01X90376Y15188D01*
G01X90480Y15188D01*
G01X90584Y15137D01*
G01X90635Y15084D01*
G01X90688Y14929D01*
G01X90688Y14461D02*
G01X90688Y14929D01*
G01X90739Y15084D01*
G01X90790Y15137D01*
G01X90894Y15188D01*
G01X91051Y15188D01*
G01X91155Y15137D01*
G01X91206Y15084D01*
G01X91259Y14929D01*
G01X91259Y14461D01*
G01X90167Y16257D02*
G01X91259Y15739D01*
G01X90167Y15531D02*
G01X90167Y16257D01*
G01X118109Y11247D02*
G01X119201Y11247D01*
G01X118109Y11247D02*
G01X118109Y11714D01*
G01X118160Y11871D01*
G01X118213Y11922D01*
G01X118318Y11976D01*
G01X118422Y11976D01*
G01X118526Y11922D01*
G01X118577Y11871D01*
G01X118630Y11714D01*
G01X118630Y11247D01*
G01X118630Y11610D02*
G01X119201Y11976D01*
G01X118368Y13096D02*
G01X118264Y13045D01*
G01X118160Y12941D01*
G01X118109Y12837D01*
G01X118109Y12628D01*
G01X118160Y12524D01*
G01X118264Y12420D01*
G01X118368Y12369D01*
G01X118526Y12319D01*
G01X118785Y12319D01*
G01X118940Y12369D01*
G01X119044Y12420D01*
G01X119148Y12524D01*
G01X119201Y12628D01*
G01X119201Y12837D01*
G01X119148Y12941D01*
G01X119044Y13045D01*
G01X118940Y13096D01*
G01X118785Y13096D01*
G01X118785Y12837D02*
G01X118785Y13096D01*
G01X118109Y13439D02*
G01X119201Y13439D01*
G01X118109Y13439D02*
G01X118109Y13906D01*
G01X118160Y14063D01*
G01X118213Y14114D01*
G01X118318Y14168D01*
G01X118422Y14168D01*
G01X118526Y14114D01*
G01X118577Y14063D01*
G01X118630Y13906D01*
G01X118630Y13439D01*
G01X118630Y13804D02*
G01X119201Y14168D01*
G01X118109Y14511D02*
G01X119201Y14511D01*
G01X118109Y14511D02*
G01X118109Y14978D01*
G01X118160Y15133D01*
G01X118213Y15186D01*
G01X118318Y15237D01*
G01X118422Y15237D01*
G01X118526Y15186D01*
G01X118577Y15133D01*
G01X118630Y14978D01*
G01X118630Y14511D02*
G01X118630Y14978D01*
G01X118681Y15133D01*
G01X118732Y15186D01*
G01X118836Y15237D01*
G01X118993Y15237D01*
G01X119097Y15186D01*
G01X119148Y15133D01*
G01X119201Y14978D01*
G01X119201Y14511D01*
G01X118264Y16205D02*
G01X118160Y16151D01*
G01X118109Y15996D01*
G01X118109Y15892D01*
G01X118160Y15735D01*
G01X118318Y15633D01*
G01X118577Y15580D01*
G01X118836Y15580D01*
G01X119044Y15633D01*
G01X119148Y15735D01*
G01X119201Y15892D01*
G01X119201Y15943D01*
G01X119148Y16101D01*
G01X119044Y16205D01*
G01X118889Y16256D01*
G01X118836Y16256D01*
G01X118681Y16205D01*
G01X118577Y16101D01*
G01X118526Y15943D01*
G01X118526Y15892D01*
G01X118577Y15735D01*
G01X118681Y15633D01*
G01X118836Y15580D01*
G01X145933Y10921D02*
G01X147025Y10921D01*
G01X145933Y10921D02*
G01X145933Y11388D01*
G01X145986Y11545D01*
G01X146037Y11596D01*
G01X146141Y11650D01*
G01X146245Y11650D01*
G01X146349Y11596D01*
G01X146400Y11545D01*
G01X146453Y11388D01*
G01X146453Y10921D01*
G01X146453Y11286D02*
G01X147025Y11650D01*
G01X146194Y12772D02*
G01X146090Y12719D01*
G01X145986Y12615D01*
G01X145933Y12511D01*
G01X145933Y12302D01*
G01X145986Y12201D01*
G01X146090Y12097D01*
G01X146194Y12043D01*
G01X146349Y11993D01*
G01X146608Y11993D01*
G01X146766Y12043D01*
G01X146870Y12097D01*
G01X146972Y12201D01*
G01X147025Y12302D01*
G01X147025Y12511D01*
G01X146972Y12615D01*
G01X146870Y12719D01*
G01X146766Y12772D01*
G01X146608Y12772D01*
G01X146608Y12511D02*
G01X146608Y12772D01*
G01X145933Y13115D02*
G01X147025Y13115D01*
G01X145933Y13115D02*
G01X145933Y13583D01*
G01X145986Y13737D01*
G01X146037Y13788D01*
G01X146141Y13842D01*
G01X146245Y13842D01*
G01X146349Y13788D01*
G01X146400Y13737D01*
G01X146453Y13583D01*
G01X146453Y13115D01*
G01X146453Y13478D02*
G01X147025Y13842D01*
G01X145933Y14185D02*
G01X147025Y14185D01*
G01X145933Y14185D02*
G01X145933Y14652D01*
G01X145986Y14807D01*
G01X146037Y14860D01*
G01X146141Y14911D01*
G01X146245Y14911D01*
G01X146349Y14860D01*
G01X146400Y14807D01*
G01X146453Y14652D01*
G01X146453Y14185D02*
G01X146453Y14652D01*
G01X146504Y14807D01*
G01X146558Y14860D01*
G01X146662Y14911D01*
G01X146817Y14911D01*
G01X146921Y14860D01*
G01X146972Y14807D01*
G01X147025Y14652D01*
G01X147025Y14185D01*
G01X145933Y15879D02*
G01X145933Y15358D01*
G01X146400Y15307D01*
G01X146349Y15358D01*
G01X146299Y15515D01*
G01X146299Y15670D01*
G01X146349Y15825D01*
G01X146453Y15930D01*
G01X146608Y15983D01*
G01X146713Y15983D01*
G01X146870Y15930D01*
G01X146972Y15825D01*
G01X147025Y15670D01*
G01X147025Y15515D01*
G01X146972Y15358D01*
G01X146921Y15307D01*
G01X146817Y15254D01*
G01X174243Y10888D02*
G01X175335Y10888D01*
G01X174243Y10888D02*
G01X174243Y11356D01*
G01X174294Y11513D01*
G01X174347Y11564D01*
G01X174451Y11617D01*
G01X174556Y11617D01*
G01X174660Y11564D01*
G01X174711Y11513D01*
G01X174764Y11356D01*
G01X174764Y10888D01*
G01X174764Y11252D02*
G01X175335Y11617D01*
G01X174502Y12738D02*
G01X174398Y12687D01*
G01X174294Y12583D01*
G01X174243Y12478D01*
G01X174243Y12270D01*
G01X174294Y12166D01*
G01X174398Y12062D01*
G01X174502Y12011D01*
G01X174660Y11960D01*
G01X174919Y11960D01*
G01X175074Y12011D01*
G01X175178Y12062D01*
G01X175282Y12166D01*
G01X175335Y12270D01*
G01X175335Y12478D01*
G01X175282Y12583D01*
G01X175178Y12687D01*
G01X175074Y12738D01*
G01X174919Y12738D01*
G01X174919Y12478D02*
G01X174919Y12738D01*
G01X174243Y13080D02*
G01X175335Y13080D01*
G01X174243Y13080D02*
G01X174243Y13548D01*
G01X174294Y13705D01*
G01X174347Y13756D01*
G01X174451Y13809D01*
G01X174556Y13809D01*
G01X174660Y13756D01*
G01X174711Y13705D01*
G01X174764Y13548D01*
G01X174764Y13080D01*
G01X174764Y13446D02*
G01X175335Y13809D01*
G01X174243Y14152D02*
G01X175335Y14152D01*
G01X174243Y14152D02*
G01X174243Y14620D01*
G01X174294Y14775D01*
G01X174347Y14828D01*
G01X174451Y14879D01*
G01X174556Y14879D01*
G01X174660Y14828D01*
G01X174711Y14775D01*
G01X174764Y14620D01*
G01X174764Y14152D02*
G01X174764Y14620D01*
G01X174815Y14775D01*
G01X174865Y14828D01*
G01X174970Y14879D01*
G01X175127Y14879D01*
G01X175231Y14828D01*
G01X175282Y14775D01*
G01X175335Y14620D01*
G01X175335Y14152D01*
G01X174243Y15742D02*
G01X174970Y15222D01*
G01X174970Y16001D01*
G01X174243Y15742D02*
G01X175335Y15742D01*
G01X202183Y11196D02*
G01X203275Y11196D01*
G01X202183Y11196D02*
G01X202183Y11663D01*
G01X202234Y11821D01*
G01X202287Y11871D01*
G01X202391Y11925D01*
G01X202496Y11925D01*
G01X202600Y11871D01*
G01X202650Y11821D01*
G01X202704Y11663D01*
G01X202704Y11196D01*
G01X202704Y11559D02*
G01X203275Y11925D01*
G01X202442Y13045D02*
G01X202338Y12994D01*
G01X202234Y12890D01*
G01X202183Y12786D01*
G01X202183Y12578D01*
G01X202234Y12473D01*
G01X202338Y12369D01*
G01X202442Y12318D01*
G01X202600Y12268D01*
G01X202859Y12268D01*
G01X203014Y12318D01*
G01X203118Y12369D01*
G01X203222Y12473D01*
G01X203275Y12578D01*
G01X203275Y12786D01*
G01X203222Y12890D01*
G01X203118Y12994D01*
G01X203014Y13045D01*
G01X202859Y13045D01*
G01X202859Y12786D02*
G01X202859Y13045D01*
G01X202183Y13388D02*
G01X203275Y13388D01*
G01X202183Y13388D02*
G01X202183Y13855D01*
G01X202234Y14013D01*
G01X202287Y14063D01*
G01X202391Y14117D01*
G01X202496Y14117D01*
G01X202600Y14063D01*
G01X202650Y14013D01*
G01X202704Y13855D01*
G01X202704Y13388D01*
G01X202704Y13754D02*
G01X203275Y14117D01*
G01X202183Y14460D02*
G01X203275Y14460D01*
G01X202183Y14460D02*
G01X202183Y14927D01*
G01X202234Y15082D01*
G01X202287Y15135D01*
G01X202391Y15186D01*
G01X202496Y15186D01*
G01X202600Y15135D01*
G01X202650Y15082D01*
G01X202704Y14927D01*
G01X202704Y14460D02*
G01X202704Y14927D01*
G01X202755Y15082D01*
G01X202805Y15135D01*
G01X202910Y15186D01*
G01X203067Y15186D01*
G01X203171Y15135D01*
G01X203222Y15082D01*
G01X203275Y14927D01*
G01X203275Y14460D01*
G01X202183Y15633D02*
G01X202183Y16205D01*
G01X202600Y15892D01*
G01X202600Y16050D01*
G01X202650Y16154D01*
G01X202704Y16205D01*
G01X202859Y16255D01*
G01X202963Y16255D01*
G01X203118Y16205D01*
G01X203222Y16101D01*
G01X203275Y15946D01*
G01X203275Y15788D01*
G01X203222Y15633D01*
G01X203171Y15582D01*
G01X203067Y15529D01*
G01X230123Y10942D02*
G01X231215Y10942D01*
G01X230123Y10942D02*
G01X230123Y11409D01*
G01X230174Y11567D01*
G01X230227Y11617D01*
G01X230331Y11671D01*
G01X230435Y11671D01*
G01X230540Y11617D01*
G01X230590Y11567D01*
G01X230644Y11409D01*
G01X230644Y10942D01*
G01X230644Y11305D02*
G01X231215Y11671D01*
G01X230382Y12791D02*
G01X230278Y12740D01*
G01X230174Y12636D01*
G01X230123Y12532D01*
G01X230123Y12324D01*
G01X230174Y12219D01*
G01X230278Y12115D01*
G01X230382Y12064D01*
G01X230540Y12014D01*
G01X230799Y12014D01*
G01X230954Y12064D01*
G01X231058Y12115D01*
G01X231162Y12219D01*
G01X231215Y12324D01*
G01X231215Y12532D01*
G01X231162Y12636D01*
G01X231058Y12740D01*
G01X230954Y12791D01*
G01X230799Y12791D01*
G01X230799Y12532D02*
G01X230799Y12791D01*
G01X230123Y13134D02*
G01X231215Y13134D01*
G01X230123Y13134D02*
G01X230123Y13601D01*
G01X230174Y13759D01*
G01X230227Y13809D01*
G01X230331Y13863D01*
G01X230435Y13863D01*
G01X230540Y13809D01*
G01X230590Y13759D01*
G01X230644Y13601D01*
G01X230644Y13134D01*
G01X230644Y13500D02*
G01X231215Y13863D01*
G01X230123Y14206D02*
G01X231215Y14206D01*
G01X230123Y14206D02*
G01X230123Y14673D01*
G01X230174Y14828D01*
G01X230227Y14881D01*
G01X230331Y14932D01*
G01X230435Y14932D01*
G01X230540Y14881D01*
G01X230590Y14828D01*
G01X230644Y14673D01*
G01X230644Y14206D02*
G01X230644Y14673D01*
G01X230695Y14828D01*
G01X230745Y14881D01*
G01X230849Y14932D01*
G01X231007Y14932D01*
G01X231111Y14881D01*
G01X231162Y14828D01*
G01X231215Y14673D01*
G01X231215Y14206D01*
G01X230382Y15328D02*
G01X230331Y15328D01*
G01X230227Y15379D01*
G01X230174Y15430D01*
G01X230123Y15534D01*
G01X230123Y15742D01*
G01X230174Y15847D01*
G01X230227Y15900D01*
G01X230331Y15951D01*
G01X230435Y15951D01*
G01X230540Y15900D01*
G01X230695Y15796D01*
G01X231215Y15275D01*
G01X231215Y16001D01*
G01X258063Y10647D02*
G01X259155Y10647D01*
G01X258063Y10647D02*
G01X258063Y11115D01*
G01X258116Y11272D01*
G01X258167Y11323D01*
G01X258271Y11376D01*
G01X258375Y11376D01*
G01X258480Y11323D01*
G01X258530Y11272D01*
G01X258584Y11115D01*
G01X258584Y10647D01*
G01X258584Y11010D02*
G01X259155Y11376D01*
G01X258325Y12496D02*
G01X258220Y12446D01*
G01X258116Y12341D01*
G01X258063Y12237D01*
G01X258063Y12029D01*
G01X258116Y11925D01*
G01X258220Y11823D01*
G01X258325Y11770D01*
G01X258480Y11719D01*
G01X258739Y11719D01*
G01X258896Y11770D01*
G01X259000Y11823D01*
G01X259102Y11925D01*
G01X259155Y12029D01*
G01X259155Y12237D01*
G01X259102Y12341D01*
G01X259000Y12446D01*
G01X258896Y12496D01*
G01X258739Y12496D01*
G01X258739Y12237D02*
G01X258739Y12496D01*
G01X258063Y12839D02*
G01X259155Y12839D01*
G01X258063Y12839D02*
G01X258063Y13309D01*
G01X258116Y13464D01*
G01X258167Y13515D01*
G01X258271Y13568D01*
G01X258375Y13568D01*
G01X258480Y13515D01*
G01X258530Y13464D01*
G01X258584Y13309D01*
G01X258584Y12839D01*
G01X258584Y13205D02*
G01X259155Y13568D01*
G01X258063Y13911D02*
G01X259155Y13911D01*
G01X258063Y13911D02*
G01X258063Y14378D01*
G01X258116Y14533D01*
G01X258167Y14587D01*
G01X258271Y14638D01*
G01X258375Y14638D01*
G01X258480Y14587D01*
G01X258530Y14533D01*
G01X258584Y14378D01*
G01X258584Y13911D02*
G01X258584Y14378D01*
G01X258634Y14533D01*
G01X258688Y14587D01*
G01X258792Y14638D01*
G01X258947Y14638D01*
G01X259051Y14587D01*
G01X259102Y14533D01*
G01X259155Y14378D01*
G01X259155Y13911D01*
G01X258271Y14980D02*
G01X258220Y15085D01*
G01X258063Y15240D01*
G01X259155Y15240D01*
G54D10*
G75*
G01X236572Y48653D02*
G3X236572Y48650I-76J-1D01*
G01*
G75*
G01X235066Y51218D02*
G3X235066Y51198I-1136J-10D01*
G01*
G54D49*
G75*
G01X106284Y50039D02*
G2X106283Y47499I-1130J-1270D01*
G01*
G75*
G01X104024Y50039D02*
G3X104024Y47499I1130J-1270D01*
G01*
G54D10*
G75*
G01X228854Y70358D02*
G3X230886Y70358I1016J0D01*
G01*
G75*
G01X39624Y67564D02*
G2X39624Y69596I0J1016D01*
G01*
G75*
G01X173988Y70105D02*
G2X173988Y72137I0J1016D01*
G01*
G75*
G01X97536Y46228D02*
G3X95504Y46228I-1016J0D01*
G01*
G75*
G01X81851Y58166D02*
G3X80327Y56642I0J-1524D01*
G01*
G75*
G01X80327Y56642D02*
G3X81851Y55118I1524J0D01*
G01*
G75*
G01X174858Y47752D02*
G3X181716Y47752I3429J-1201D01*
G01*
G75*
G01X181753Y56138D02*
G3X174895Y56138I-3429J1201D01*
G01*
G75*
G01X173625Y56138D02*
G3X166767Y56138I-3429J1201D01*
G01*
G75*
G01X165497Y56138D02*
G3X158639Y56138I-3429J1201D01*
G01*
G75*
G01X157369Y56138D02*
G3X150511Y56138I-3429J1201D01*
G01*
G75*
G01X149241Y56138D02*
G3X142383Y56138I-3429J1201D01*
G01*
G75*
G01X141113Y56138D02*
G3X134255Y56138I-3429J1201D01*
G01*
G75*
G01X132987Y56137D02*
G3X126129Y56137I-3429J1201D01*
G01*
G75*
G01X124860Y56135D02*
G3X118002Y56135I-3429J1201D01*
G01*
G75*
G01X166728Y47753D02*
G3X173586Y47753I3429J-1201D01*
G01*
G75*
G01X158600Y47753D02*
G3X165458Y47753I3429J-1201D01*
G01*
G75*
G01X150472Y47753D02*
G3X157330Y47753I3429J-1201D01*
G01*
G75*
G01X142344Y47753D02*
G3X149202Y47753I3429J-1201D01*
G01*
G75*
G01X134216Y47753D02*
G3X141074Y47753I3429J-1201D01*
G01*
G75*
G01X126090Y47752D02*
G3X132948Y47752I3429J-1201D01*
G01*
G75*
G01X117965Y47749D02*
G3X124823Y47749I3429J-1201D01*
G01*
G75*
G01X13462Y47350D02*
G3X13462Y54208I1201J3429D01*
G01*
G75*
G01X13460Y38716D02*
G3X13460Y45574I1201J3429D01*
G01*
G75*
G01X28192Y47351D02*
G3X28192Y54209I1201J3429D01*
G01*
G75*
G01X28190Y38717D02*
G3X28190Y45575I1201J3429D01*
G01*
G75*
G01X13462Y30332D02*
G3X13462Y37190I1201J3429D01*
G01*
G75*
G01X13462Y21442D02*
G3X13462Y28300I1201J3429D01*
G01*
G75*
G01X28192Y12554D02*
G3X28192Y19412I1201J3429D01*
G01*
G75*
G01X13460Y12300D02*
G3X13460Y19158I1201J3429D01*
G01*
G75*
G01X28192Y3664D02*
G3X28192Y10522I1201J3429D01*
G01*
G75*
G01X13460Y3664D02*
G3X13460Y10522I1201J3429D01*
G01*
G75*
G01X28192Y21444D02*
G3X28192Y28302I1201J3429D01*
G01*
G75*
G01X28194Y30332D02*
G3X28194Y37190I1201J3429D01*
G01*
G75*
G01X58422Y45972D02*
G3X64518Y45972I3048J-1515D01*
G01*
G75*
G01X49024Y45972D02*
G3X55120Y45972I3048J-1515D01*
G01*
G75*
G01X67312Y45972D02*
G3X73408Y45972I3048J-1515D01*
G01*
G75*
G01X205378Y71375D02*
G3X198520Y71375I-3429J1201D01*
G01*
G54D11*
G75*
G01X200098Y68181D02*
G3X200098Y68179I-200J-1D01*
G01*
G54D10*
G75*
G01X244663Y74708D02*
G3X244663Y74779I4000J36D01*
G01*
G75*
G01X207518Y66548D02*
G2X213614Y66548I3048J1608D01*
G01*
G75*
G01X213614Y61468D02*
G2X207518Y61468I-3048J-1608D01*
G01*
G54D50*
G75*
G01X91447Y71788D02*
G3X91425Y71788I-11J1360D01*
G01*
G75*
G01X91488Y71260D02*
G3X91455Y71260I-17J1887D01*
G01*
G75*
G01X54366Y71938D02*
G3X54344Y71938I-11J1360D01*
G01*
G75*
G01X54407Y71409D02*
G3X54374Y71409I-17J1887D01*
G01*
G75*
G01X66556Y71939D02*
G3X66534Y71939I-11J1360D01*
G01*
G75*
G01X66597Y71411D02*
G3X66564Y71411I-17J1887D01*
G01*
G54D10*
G75*
G01X224392Y13713D02*
G03X224392Y13713I-9251J0D01*
G01*
G75*
G01X196392Y13713D02*
G03X196392Y13713I-9251J0D01*
G01*
G75*
G01X168392Y13713D02*
G03X168392Y13713I-9251J0D01*
G01*
G75*
G01X140392Y13713D02*
G03X140392Y13713I-9251J0D01*
G01*
G75*
G01X84393Y13713D02*
G03X84393Y13713I-9251J0D01*
G01*
G75*
G01X56393Y13713D02*
G03X56393Y13713I-9251J0D01*
G01*
G75*
G01X112392Y13713D02*
G03X112392Y13713I-9251J0D01*
G01*
G75*
G01X252392Y13713D02*
G03X252392Y13713I-9251J0D01*
G01*
G75*
G01X115186Y69851D02*
G03X115186Y69851I-8000J0D01*
G01*
G75*
G01X81344Y59182D02*
G03X81344Y59182I-508J0D01*
G01*
G75*
G01X216639Y13712D02*
G03X216639Y13712I-1500J0D01*
G01*
G75*
G01X244640Y13712D02*
G03X244640Y13712I-1500J0D01*
G01*
G75*
G01X188640Y13712D02*
G03X188640Y13712I-1500J0D01*
G01*
G75*
G01X104640Y13712D02*
G03X104640Y13712I-1500J0D01*
G01*
G75*
G01X160639Y13712D02*
G03X160639Y13712I-1500J0D01*
G01*
G75*
G01X132638Y13712D02*
G03X132638Y13712I-1500J0D01*
G01*
G75*
G01X76639Y13712D02*
G03X76639Y13712I-1500J0D01*
G01*
G75*
G01X48640Y13712D02*
G03X48640Y13712I-1500J0D01*
G01*
G75*
G01X213278Y48768D02*
G03X213278Y48768I-4999J0D01*
G01*

%LPD*%
G36*
G01X209803Y43941D02*
G01X211835Y45211D01*
G01X204723Y45211D01*
G01X205739Y44449D01*
G01X207263Y43941D01*
G01X208787Y43687D01*
G01X209803Y43941D01*
G37*

%LPD*%
G36*
G01X245663Y77455D02*
G01X251663Y77455D01*
G01X251663Y77455D01*
G01X251607Y77507D01*
G01X251551Y77558D01*
G01X251494Y77608D01*
G01X251435Y77657D01*
G01X251376Y77705D01*
G01X251316Y77752D01*
G01X251256Y77798D01*
G01X251194Y77843D01*
G01X251132Y77886D01*
G01X251069Y77929D01*
G01X251005Y77971D01*
G01X250941Y78011D01*
G01X250875Y78050D01*
G01X250810Y78088D01*
G01X250743Y78125D01*
G01X250676Y78161D01*
G01X250608Y78196D01*
G01X250540Y78229D01*
G01X250471Y78261D01*
G01X250401Y78292D01*
G01X250331Y78322D01*
G01X250261Y78351D01*
G01X250190Y78378D01*
G01X250118Y78404D01*
G01X250046Y78429D01*
G01X249974Y78453D01*
G01X249901Y78475D01*
G01X249828Y78496D01*
G01X249755Y78516D01*
G01X249681Y78534D01*
G01X249607Y78551D01*
G01X249532Y78567D01*
G01X249458Y78582D01*
G01X249383Y78595D01*
G01X249307Y78607D01*
G01X249232Y78618D01*
G01X249157Y78627D01*
G01X249081Y78635D01*
G01X249005Y78641D01*
G01X248929Y78647D01*
G01X248853Y78651D01*
G01X248777Y78653D01*
G01X248701Y78655D01*
G01X248625Y78655D01*
G01X248549Y78653D01*
G01X248473Y78651D01*
G01X248397Y78647D01*
G01X248321Y78641D01*
G01X248245Y78635D01*
G01X248169Y78627D01*
G01X248094Y78618D01*
G01X248018Y78607D01*
G01X247943Y78595D01*
G01X247868Y78582D01*
G01X247794Y78567D01*
G01X247719Y78551D01*
G01X247645Y78534D01*
G01X247571Y78516D01*
G01X247498Y78496D01*
G01X247425Y78475D01*
G01X247352Y78453D01*
G01X247280Y78429D01*
G01X247208Y78404D01*
G01X247136Y78378D01*
G01X247065Y78351D01*
G01X246995Y78322D01*
G01X246925Y78292D01*
G01X246855Y78261D01*
G01X246786Y78229D01*
G01X246718Y78196D01*
G01X246650Y78161D01*
G01X246583Y78125D01*
G01X246516Y78088D01*
G01X246450Y78050D01*
G01X246385Y78011D01*
G01X246321Y77971D01*
G01X246257Y77929D01*
G01X246194Y77886D01*
G01X246132Y77843D01*
G01X246070Y77798D01*
G01X246009Y77752D01*
G01X245950Y77705D01*
G01X245891Y77657D01*
G01X245832Y77608D01*
G01X245775Y77558D01*
G01X245719Y77507D01*
G01X245663Y77455D01*
G01X245663Y77455D01*
G37*
M00*
M02*
