;PTH Drill file created by EasyEDA 
M48
METRIC,LZ,000.000
;Holesize 1 = 0.500 METRIC
T01C0.500
;Holesize 2 = 0.501 METRIC
T02C0.501
;Holesize 3 = 0.701 METRIC
T03C0.701
;Holesize 4 = 0.712 METRIC
T04C0.712
;Holesize 5 = 0.762 METRIC
T05C0.762
;Holesize 6 = 0.803 METRIC
T06C0.803
;Holesize 7 = 0.813 METRIC
T07C0.813
;Holesize 8 = 0.900 METRIC
T08C0.900
;Holesize 9 = 0.915 METRIC
T09C0.915
;Holesize 10 = 1.000 METRIC
T10C1.000
;Holesize 11 = 1.016 METRIC
T11C1.016
;Holesize 12 = 1.067 METRIC
T12C1.067
;Holesize 13 = 1.101 METRIC
T13C1.101
;Holesize 14 = 1.200 METRIC
T14C1.200
;Holesize 15 = 1.301 METRIC
T15C1.301
;Holesize 16 = 1.501 METRIC
T16C1.501
;Holesize 17 = 1.600 METRIC
T17C1.600
%
G05
G90
T01
X067566Y063500G85X067566Y063500
X067566Y066040G85X067566Y066040
T02
X125096Y058672
X133219Y058672
X141347Y058672
X149475Y058672
X157603Y058672
X165721Y058672
X173922Y058672
X181990Y058672
X161681Y045092
X112127Y090100
X110493Y089150
X049784Y044704
X077724Y043688
X105664Y042672
X133603Y041656
X189681Y044956
X217680Y046226
X245619Y047242
X042927Y022604
X041914Y021332
X040898Y020316
X071375Y022858
X070359Y021588
X069343Y020318
X099315Y022858
X098301Y021586
X097283Y020318
X127255Y022858
X126239Y021588
X125223Y020318
X239269Y022604
X238255Y021332
X237237Y020064
X211329Y022858
X210313Y021588
X209299Y020316
X183135Y022858
X181105Y020316
X155195Y022858
X154179Y021588
X153163Y020318
X239267Y039624
X211327Y039624
X183135Y039622
X127253Y039624
X155193Y039624
X099313Y039624
X071373Y039624
X042928Y039622
X041909Y038608
X238251Y038608
X040893Y037592
X237237Y037590
X107187Y038608
X097281Y037592
X210311Y038608
X209295Y037592
X182119Y038606
X181103Y037590
X182119Y021588
X070357Y038608
X098297Y038608
X154177Y038608
X153161Y037592
X126237Y038608
X125221Y037592
X069341Y037592
X251459Y036576
X250191Y035558
X241299Y032512
X243077Y033528
X248157Y034544
X063245Y040640
X063247Y015746
X091441Y015746
X119127Y015746
X147067Y015492
X175261Y015492
X203199Y015748
X231141Y015492
X259587Y040640
X259589Y015238
X231139Y040640
X203199Y040640
X175259Y040640
X147065Y040640
X119125Y040640
X091439Y040640
X240281Y031498
X248159Y028954
X243081Y028954
X220219Y028954
X215141Y028954
X192279Y028954
X187201Y028954
X164085Y028954
X159007Y028954
X136145Y028954
X131067Y028954
X108205Y028954
X103127Y028954
X080265Y028954
X075185Y028954
X052325Y028954
X047247Y028954
X222249Y035557
X223773Y036576
X220217Y034544
X215135Y033529
X213359Y032512
X195833Y036576
X194055Y035558
X192277Y034544
X187195Y033529
X185163Y032512
X184147Y031498
X167893Y036576
X166369Y035558
X164083Y034544
X159001Y033529
X157223Y032512
X156207Y031498
X139951Y036577
X138175Y035558
X136143Y034544
X131061Y033529
X129283Y032514
X128267Y031498
X111759Y036576
X110235Y035559
X108203Y034544
X103121Y033529
X101343Y032514
X100327Y031498
X083819Y036576
X082041Y035559
X080263Y034544
X075181Y033529
X073403Y032514
X072387Y031498
X043939Y031498
X045209Y032514
X047241Y033529
X052323Y034544
X054356Y035560
X055879Y036576
X250953Y008634
X249429Y007618
X246887Y006604
X244350Y005586
X242063Y004570
X240539Y003554
X222759Y008634
X221235Y007618
X218949Y006602
X216409Y005586
X214123Y004570
X212599Y003554
X194819Y008634
X193295Y007618
X191009Y006602
X188215Y005586
X186183Y004570
X184405Y003554
X166879Y008634
X165355Y007618
X163069Y006602
X160275Y005586
X157989Y004570
X156465Y003554
X138939Y008634
X137415Y007618
X128525Y003554
X130049Y004570
X132335Y005586
X134875Y006602
X054865Y008634
X053341Y007618
X051055Y006602
X048261Y005586
X045975Y004570
X044705Y003554
X072645Y003554
X074169Y004570
X076455Y005586
X078995Y006602
X081281Y007618
X082805Y008634
X100585Y003554
X102109Y004570
X104395Y005586
X106935Y006602
X109475Y007618
X110745Y008634
X025404Y054860
X024388Y046478
X023370Y038352
X022356Y029460
X021338Y020318
X020322Y011936
X010418Y055114
X009402Y046732
X008382Y038354
X007366Y029464
X006352Y020318
X005334Y011938
X023370Y075436
X025404Y074164
X024386Y083056
X022354Y071626
X021338Y079246
X020322Y084326
X005336Y086612
X006352Y081786
X007368Y076706
X010416Y069086
X009400Y080516
X008384Y077976
X110493Y095246
X112127Y092597
X050293Y091946
X050295Y085086
X051563Y086358
X051563Y089406
X119127Y059180
X077725Y080008
X063755Y078484
X106933Y062225
X091439Y058420
X091441Y064768
X097281Y058420
X101345Y058420
X105917Y058420
X087420Y060958
X087420Y064770
X116329Y037590
X212345Y031494
T03
X181990Y056007
X180720Y056007
X179450Y056007
X179452Y066927
X180722Y066927
X181992Y066927
X171322Y066929
X172592Y066929
X173862Y066929
X162940Y066929
X164210Y066929
X165480Y066929
X155066Y066929
X156336Y066929
X157606Y066929
X146938Y066929
X148208Y066929
X149478Y066929
X138810Y066929
X140080Y066929
X141350Y066929
X130682Y066929
X131952Y066929
X133222Y066929
X122554Y066929
X123824Y066929
X125094Y066929
X173860Y056008
X172590Y056008
X171320Y056008
X165732Y056008
X164462Y056008
X163192Y056008
X157604Y056008
X156334Y056008
X155064Y056008
X149476Y056008
X148206Y056008
X146936Y056008
X141348Y056008
X140078Y056008
X138808Y056008
X133220Y056008
X131950Y056008
X130680Y056008
X125096Y056005
X123826Y056005
X122556Y056005
X017149Y047876
X017149Y046606
X017149Y045336
X017149Y056257
X017149Y054987
X017149Y053717
X032133Y047622
X032133Y046352
X032133Y045082
X032133Y056004
X032133Y054734
X032133Y053464
X032133Y030605
X032133Y029335
X032133Y028065
X017149Y030857
X017149Y029587
X017149Y028317
X032133Y021461
X032133Y020191
X032133Y018921
X017149Y021461
X017149Y020191
X017149Y018921
X032133Y013335
X032133Y012065
X032133Y010795
X017149Y013331
X017149Y012061
X017149Y010791
X017149Y039494
X017149Y038224
X017149Y036954
X032133Y039495
X032133Y038225
X032133Y036955
T04
X236981Y069596
X242061Y069596
X221743Y078738
X221743Y073658
X240285Y090168
X240285Y095248
X172721Y095248
X172721Y090168
T05
X226823Y063498
X229363Y066038
X226823Y068578
T06
X104902Y062228
X104902Y064768
X104902Y067308
X104902Y069848
X104902Y072388
X104902Y074928
X104902Y077468
X104902Y080008
X104902Y082548
X104902Y085088
X104902Y087628
X104902Y090168
X104902Y092708
X104902Y095248
X097282Y095248
X097282Y092708
X097282Y090168
X097282Y087628
X097282Y085088
X097282Y082548
X097282Y080008
X097282Y077468
X097282Y074928
X097282Y072388
X097282Y069848
X097282Y067308
X097282Y064768
X097282Y062228
T07
X107190Y050543
X104649Y050544
X102109Y050544
X098046Y050543
X095505Y050546
X092965Y050546
X196345Y095246
X196345Y090166
X196345Y092706
X229108Y083566
X229108Y081026
X229108Y078486
X229108Y075946
X236728Y075946
X236728Y078486
X236728Y081026
X236728Y083566
X031498Y094486
X031498Y091946
X031498Y079246
X031498Y076706
X031498Y089406
X031498Y086866
X031498Y081786
X031498Y084326
X031498Y074166
X031498Y071626
X031498Y069086
X031498Y066546
X046738Y066546
X046738Y069086
X046738Y071626
X046738Y074166
X046738Y076706
X046738Y079246
X046738Y081786
X046738Y084326
X046738Y086866
X046738Y089406
X046738Y091946
X046738Y094486
X165606Y087377
X163066Y087377
X150366Y087377
X147826Y087377
X160526Y087377
X157986Y087377
X152906Y087377
X155446Y087377
X147826Y079757
X150366Y079757
X152906Y079757
X155446Y079757
X157986Y079757
X160526Y079757
X163066Y079757
X165606Y079757
X075186Y066037
X075186Y063497
X075186Y060957
X075186Y058417
X082806Y058417
X082806Y060957
X082806Y063497
X082806Y066037
X116332Y050546
X113791Y050546
X111251Y050546
T08
X244093Y062992
X233933Y062992
X218187Y068578
X218187Y058418
X219965Y093470
X230125Y093470
T09
X217681Y021244
X220241Y020614
X222210Y018864
X223142Y016405
X222822Y013794
X221331Y011625
X219002Y010406
X216360Y010406
X214031Y011625
X212540Y013794
X212220Y016405
X213152Y018864
X215121Y020614
X189681Y021244
X192241Y020614
X194210Y018864
X195142Y016405
X194822Y013794
X193331Y011625
X191002Y010406
X188360Y010406
X186031Y011625
X184540Y013794
X184220Y016405
X185152Y018864
X187121Y020614
X161681Y021244
X164241Y020614
X166210Y018864
X167142Y016405
X166822Y013794
X165331Y011625
X163002Y010406
X160360Y010406
X158031Y011625
X156540Y013794
X156220Y016405
X157152Y018864
X159121Y020614
X133681Y021244
X136242Y020614
X138210Y018864
X139142Y016405
X138822Y013794
X137331Y011625
X135002Y010406
X132360Y010406
X130031Y011625
X128540Y013794
X128220Y016405
X129152Y018864
X131121Y020614
X077681Y021244
X080242Y020614
X082210Y018864
X083142Y016405
X082822Y013794
X081331Y011625
X079002Y010406
X076361Y010406
X074031Y011625
X072540Y013794
X072220Y016405
X073153Y018864
X075121Y020614
X049681Y021244
X052242Y020614
X054210Y018864
X055142Y016405
X054822Y013794
X053331Y011625
X051002Y010406
X048361Y010406
X046031Y011625
X044540Y013794
X044220Y016405
X045153Y018864
X047121Y020614
X105681Y021244
X108242Y020614
X110210Y018864
X111142Y016405
X110822Y013794
X109331Y011625
X107002Y010406
X104360Y010406
X102031Y011625
X100540Y013794
X100220Y016405
X101152Y018864
X103121Y020614
X245681Y021244
X248241Y020614
X250210Y018864
X251142Y016405
X250822Y013794
X249331Y011625
X247002Y010406
X244360Y010406
X242031Y011625
X240540Y013794
X240220Y016405
X241152Y018864
X243121Y020614
X207517Y064008
X207517Y058928
X260857Y081788
X260857Y078740
X260857Y084836
T10
X081884Y091313
X087883Y091313
X081884Y095313
X087883Y095313
X071726Y091311
X077725Y091311
X071726Y095311
X077725Y095311
X057756Y091311
X063755Y091311
X057756Y095311
X063755Y095311
X249429Y093724
X249429Y090224
X115063Y095502
X082803Y073914
X082806Y082548
X114807Y077470
X067564Y099060
X245110Y090170
X053594Y099060
X254001Y058672
X197102Y055373
T11
X155449Y095248
X152909Y095248
T12
X178184Y095627
X180470Y095627
X182756Y095627
T13
X113287Y062226
X113287Y064766
X113287Y067306
X113287Y069846
X113287Y072386
X226315Y088644
X218695Y088644
X058421Y056131
X066422Y056131
T14
X195833Y071628
X195833Y063881
X252732Y069118G85X252732Y067020
X256778Y072616G85X254680Y072616
X259082Y067020G85X259082Y069118
T15
X195834Y083182
X195835Y078103
X195835Y080643
T16
X260857Y075184
X260857Y088138
T17
X212851Y082296
X204651Y082296
M30
