G04 ---------------------------- Layer name :TOP PASTER LAYER*
G04 EasyEDA v5.7.26, Tue, 02 Oct 2018 14:10:42 GMT*
G04 d626412caae04d108c206bade24e6f6f*
G04 Gerber Generator version 0.2*
G04 Scale: 100 percent, Rotated: No, Reflected: No *
G04 Dimensions in millimeters *
G04 leading zeros omitted , absolute positions ,3 integer and 3 decimal *
%FSLAX33Y33*%
%MOMM*%
G90*
G71D02*

%ADD16R,1.099998X0.999998*%
%ADD17R,0.999998X1.099998*%
%ADD18R,1.600200X1.800860*%
%ADD19R,1.092200X0.990600*%
%ADD20R,0.914400X1.016000*%
%ADD21R,1.016000X0.914400*%
%ADD22R,2.199996X1.099998*%

%LPD*%
G54D16*
G01X87376Y71525D03*
G01X87376Y70125D03*
G01X91437Y71527D03*
G01X91437Y70128D03*
G01X165097Y95147D03*
G01X165097Y93747D03*
G01X110490Y60803D03*
G01X110490Y62203D03*
G01X67566Y93877D03*
G01X67566Y92477D03*
G01X53596Y93874D03*
G01X53596Y92475D03*
G54D17*
G01X103226Y54860D03*
G01X104626Y54860D03*
G01X112370Y54860D03*
G01X113770Y54860D03*
G01X94082Y54860D03*
G01X95482Y54860D03*
G54D18*
G01X245237Y84075D03*
G01X242443Y84075D03*
G01X245237Y85853D03*
G01X242443Y85853D03*
G01X245237Y82297D03*
G01X242443Y82297D03*
G01X245239Y80516D03*
G01X242445Y80516D03*
G01X245237Y78741D03*
G01X242443Y78741D03*
G54D17*
G01X172366Y81278D03*
G01X170967Y81278D03*
G01X45313Y99058D03*
G01X46713Y99058D03*
G54D16*
G01X110234Y78893D03*
G01X110234Y77494D03*
G54D17*
G01X78079Y71372D03*
G01X79479Y71372D03*
G54D19*
G01X74729Y76730D03*
G01X73027Y76730D03*
G54D17*
G01X79147Y76708D03*
G01X77748Y76708D03*
G54D20*
G01X182123Y60957D03*
G01X180594Y60957D03*
G01X173921Y60960D03*
G01X172392Y60960D03*
G01X165722Y60960D03*
G01X164193Y60960D03*
G01X157736Y60960D03*
G01X156207Y60960D03*
G01X149608Y60960D03*
G01X148079Y60960D03*
G01X141480Y60960D03*
G01X139951Y60960D03*
G01X133355Y60957D03*
G01X131826Y60957D03*
G01X125224Y60960D03*
G01X123695Y60960D03*
G54D21*
G01X179580Y51562D03*
G01X179580Y50032D03*
G01X171411Y51562D03*
G01X171411Y50032D03*
G01X163248Y51562D03*
G01X163248Y50032D03*
G01X155082Y51562D03*
G01X155082Y50032D03*
G01X146918Y51562D03*
G01X146918Y50032D03*
G01X138755Y51562D03*
G01X138755Y50032D03*
G01X130591Y51562D03*
G01X130591Y50032D03*
G01X122428Y51562D03*
G01X122428Y50032D03*
G01X180596Y73152D03*
G01X180596Y71622D03*
G01X172466Y73154D03*
G01X172466Y71625D03*
G01X164338Y73154D03*
G01X164338Y71625D03*
G01X156464Y73154D03*
G01X156464Y71625D03*
G01X148336Y73154D03*
G01X148336Y71625D03*
G01X140208Y72900D03*
G01X140208Y71371D03*
G01X132080Y73154D03*
G01X132080Y71625D03*
G01X123954Y73152D03*
G01X123954Y71622D03*
G01X248160Y26154D03*
G01X248160Y27683D03*
G01X243141Y25900D03*
G01X243141Y27429D03*
G01X220220Y25902D03*
G01X220220Y27432D03*
G01X215140Y25905D03*
G01X215140Y27434D03*
G01X192280Y25902D03*
G01X192280Y27432D03*
G01X187200Y25900D03*
G01X187200Y27429D03*
G01X164084Y25902D03*
G01X164084Y27432D03*
G01X159067Y25900D03*
G01X159067Y27429D03*
G01X136146Y25902D03*
G01X136146Y27432D03*
G01X131127Y25900D03*
G01X131127Y27429D03*
G01X108204Y25902D03*
G01X108204Y27432D03*
G01X103187Y25900D03*
G01X103187Y27429D03*
G01X75186Y25905D03*
G01X75186Y27434D03*
G01X52326Y25902D03*
G01X52326Y27432D03*
G01X47246Y25902D03*
G01X47246Y27432D03*
G54D20*
G01X12192Y46730D03*
G01X13721Y46730D03*
G01X27178Y46476D03*
G01X28707Y46476D03*
G01X12192Y55115D03*
G01X13721Y55115D03*
G01X27178Y54861D03*
G01X28707Y54861D03*
G01X27178Y29461D03*
G01X28707Y29461D03*
G01X12189Y29464D03*
G01X13718Y29464D03*
G01X27178Y20320D03*
G01X28707Y20320D03*
G01X12192Y20215D03*
G01X13721Y20215D03*
G01X27178Y11986D03*
G01X28707Y11986D03*
G01X12192Y12034D03*
G01X13721Y12034D03*
G01X12189Y38354D03*
G01X13718Y38354D03*
G01X27178Y38351D03*
G01X28707Y38351D03*
G54D21*
G01X80266Y25902D03*
G01X80266Y27432D03*
G54D20*
G01X182120Y62992D03*
G01X180591Y62992D03*
G01X173918Y62992D03*
G01X172389Y62992D03*
G01X165719Y62992D03*
G01X164190Y62992D03*
G01X157736Y62992D03*
G01X156207Y62992D03*
G01X149611Y62989D03*
G01X148082Y62989D03*
G01X141480Y62992D03*
G01X139951Y62992D03*
G01X133352Y62992D03*
G01X131823Y62992D03*
G01X125227Y62989D03*
G01X123698Y62989D03*
G01X201744Y15740D03*
G01X200215Y15740D03*
G01X173804Y15488D03*
G01X172275Y15488D03*
G01X61790Y15742D03*
G01X60261Y15742D03*
G01X145613Y15483D03*
G01X144084Y15483D03*
G01X117604Y15748D03*
G01X116075Y15748D03*
G01X89918Y15748D03*
G01X88389Y15748D03*
G01X257812Y15240D03*
G01X256282Y15240D03*
G01X229679Y15488D03*
G01X228150Y15488D03*
G54D22*
G01X220130Y14142D03*
G01X220130Y15742D03*
G01X220130Y17342D03*
G01X215230Y17342D03*
G01X215230Y15742D03*
G01X215230Y14142D03*
G01X248131Y14142D03*
G01X248131Y15742D03*
G01X248131Y17342D03*
G01X243231Y17342D03*
G01X243231Y15742D03*
G01X243231Y14142D03*
G01X192132Y14142D03*
G01X192132Y15742D03*
G01X192132Y17342D03*
G01X187232Y17342D03*
G01X187232Y15742D03*
G01X187232Y14142D03*
G01X108131Y14142D03*
G01X108131Y15742D03*
G01X108131Y17342D03*
G01X103231Y17342D03*
G01X103231Y15742D03*
G01X103231Y14142D03*
G01X164131Y14142D03*
G01X164131Y15742D03*
G01X164131Y17342D03*
G01X159231Y17342D03*
G01X159231Y15742D03*
G01X159231Y14142D03*
G01X136130Y14142D03*
G01X136130Y15742D03*
G01X136130Y17342D03*
G01X131230Y17342D03*
G01X131230Y15742D03*
G01X131230Y14142D03*
G01X80130Y14142D03*
G01X80130Y15742D03*
G01X80130Y17342D03*
G01X75230Y17342D03*
G01X75230Y15742D03*
G01X75230Y14142D03*
G01X52132Y14142D03*
G01X52132Y15742D03*
G01X52132Y17342D03*
G01X47232Y17342D03*
G01X47232Y15742D03*
G01X47232Y14142D03*
G54D20*
G01X257812Y13716D03*
G01X256282Y13716D03*
G01X257812Y16764D03*
G01X256282Y16764D03*
G01X229620Y17016D03*
G01X228090Y17016D03*
G01X229615Y13970D03*
G01X228086Y13970D03*
G01X201680Y14222D03*
G01X200151Y14222D03*
G01X201678Y17272D03*
G01X200148Y17272D03*
G01X173738Y17018D03*
G01X172209Y17018D03*
G01X173738Y13970D03*
G01X172209Y13970D03*
G01X145546Y13968D03*
G01X144017Y13968D03*
G01X145544Y17018D03*
G01X144015Y17018D03*
G01X117604Y17279D03*
G01X116075Y17279D03*
G01X117604Y14231D03*
G01X116075Y14231D03*
G01X89918Y14224D03*
G01X88389Y14224D03*
G01X89918Y17272D03*
G01X88389Y17272D03*
G01X61726Y14222D03*
G01X60197Y14222D03*
G01X61724Y17272D03*
G01X60195Y17272D03*
M00*
M02*
