G04 ---------------------------- Layer name :TOP SOLDER LAYER*
G04 EasyEDA v5.7.26, Tue, 02 Oct 2018 14:10:42 GMT*
G04 d626412caae04d108c206bade24e6f6f*
G04 Gerber Generator version 0.2*
G04 Scale: 100 percent, Rotated: No, Reflected: No *
G04 Dimensions in millimeters *
G04 leading zeros omitted , absolute positions ,3 integer and 3 decimal *
%FSLAX33Y33*%
%MOMM*%
G90*
G71D02*

%ADD13C,1.203198*%
%ADD15C,1.803197*%
%ADD16R,1.303198X1.203198*%
%ADD17R,1.203198X1.303198*%
%ADD18R,1.803400X2.004060*%
%ADD19R,1.295400X1.193800*%
%ADD20R,1.117600X1.219200*%
%ADD21R,1.219200X1.117600*%
%ADD22R,2.403196X1.303198*%
%ADD23C,1.816100*%
%ADD24R,1.816100X1.816100*%
%ADD25C,2.082800*%
%ADD26R,1.903197X1.903197*%
%ADD27C,1.903197*%
%ADD28C,1.727200*%
%ADD29C,2.108200*%
%ADD30R,2.703195X2.203196*%
%ADD31C,2.362200*%
%ADD32C,1.981200*%
%ADD33C,3.003296*%
%ADD34R,1.727200X1.727200*%
%ADD35R,2.385060X1.414780*%
%ADD36C,2.403196*%
%ADD37R,1.803400X1.803400*%
%ADD38R,1.414780X2.385060*%
%ADD39R,2.402840X1.602740*%
%ADD40C,2.203196*%
%ADD41C,2.003196*%

%LPD*%
G54D13*
G01X181990Y55507D02*
G01X181990Y56506D01*
G01X180720Y55507D02*
G01X180720Y56506D01*
G01X179450Y55507D02*
G01X179450Y56506D01*
G01X179452Y67427D02*
G01X179452Y66427D01*
G01X180722Y67427D02*
G01X180722Y66427D01*
G01X181992Y67427D02*
G01X181992Y66427D01*
G01X171322Y67428D02*
G01X171322Y66429D01*
G01X172592Y67428D02*
G01X172592Y66429D01*
G01X173862Y67428D02*
G01X173862Y66429D01*
G01X162940Y67428D02*
G01X162940Y66429D01*
G01X164210Y67428D02*
G01X164210Y66429D01*
G01X165480Y67428D02*
G01X165480Y66429D01*
G01X155066Y67428D02*
G01X155066Y66429D01*
G01X156336Y67428D02*
G01X156336Y66429D01*
G01X157606Y67428D02*
G01X157606Y66429D01*
G01X146938Y67428D02*
G01X146938Y66429D01*
G01X148208Y67428D02*
G01X148208Y66429D01*
G01X149478Y67428D02*
G01X149478Y66429D01*
G01X138810Y67428D02*
G01X138810Y66429D01*
G01X140080Y67428D02*
G01X140080Y66429D01*
G01X141350Y67428D02*
G01X141350Y66429D01*
G01X130682Y67428D02*
G01X130682Y66429D01*
G01X131952Y67428D02*
G01X131952Y66429D01*
G01X133222Y67428D02*
G01X133222Y66429D01*
G01X122554Y67428D02*
G01X122554Y66429D01*
G01X123824Y67428D02*
G01X123824Y66429D01*
G01X125094Y67428D02*
G01X125094Y66429D01*
G01X173860Y55508D02*
G01X173860Y56508D01*
G01X172590Y55508D02*
G01X172590Y56508D01*
G01X171320Y55508D02*
G01X171320Y56508D01*
G01X165732Y55508D02*
G01X165732Y56508D01*
G01X164462Y55508D02*
G01X164462Y56508D01*
G01X163192Y55508D02*
G01X163192Y56508D01*
G01X157604Y55508D02*
G01X157604Y56508D01*
G01X156334Y55508D02*
G01X156334Y56508D01*
G01X155064Y55508D02*
G01X155064Y56508D01*
G01X149476Y55508D02*
G01X149476Y56508D01*
G01X148206Y55508D02*
G01X148206Y56508D01*
G01X146936Y55508D02*
G01X146936Y56508D01*
G01X141348Y55508D02*
G01X141348Y56508D01*
G01X140078Y55508D02*
G01X140078Y56508D01*
G01X138808Y55508D02*
G01X138808Y56508D01*
G01X133220Y55508D02*
G01X133220Y56508D01*
G01X131950Y55508D02*
G01X131950Y56508D01*
G01X130680Y55508D02*
G01X130680Y56508D01*
G01X125096Y55505D02*
G01X125096Y56505D01*
G01X123826Y55505D02*
G01X123826Y56505D01*
G01X122556Y55505D02*
G01X122556Y56505D01*
G01X17649Y47876D02*
G01X16649Y47876D01*
G01X17649Y46606D02*
G01X16649Y46606D01*
G01X17649Y45336D02*
G01X16649Y45336D01*
G01X17649Y56257D02*
G01X16649Y56257D01*
G01X17649Y54987D02*
G01X16649Y54987D01*
G01X17649Y53717D02*
G01X16649Y53717D01*
G01X32633Y47622D02*
G01X31633Y47622D01*
G01X32633Y46352D02*
G01X31633Y46352D01*
G01X32633Y45082D02*
G01X31633Y45082D01*
G01X32633Y56004D02*
G01X31633Y56004D01*
G01X32633Y54734D02*
G01X31633Y54734D01*
G01X32633Y53464D02*
G01X31633Y53464D01*
G01X32633Y30605D02*
G01X31633Y30605D01*
G01X32633Y29335D02*
G01X31633Y29335D01*
G01X32633Y28065D02*
G01X31633Y28065D01*
G01X17649Y30857D02*
G01X16649Y30857D01*
G01X17649Y29587D02*
G01X16649Y29587D01*
G01X17649Y28317D02*
G01X16649Y28317D01*
G01X32633Y21461D02*
G01X31633Y21461D01*
G01X32633Y20191D02*
G01X31633Y20191D01*
G01X32633Y18921D02*
G01X31633Y18921D01*
G01X17649Y21461D02*
G01X16649Y21461D01*
G01X17649Y20191D02*
G01X16649Y20191D01*
G01X17649Y18921D02*
G01X16649Y18921D01*
G01X32633Y13335D02*
G01X31633Y13335D01*
G01X32633Y12065D02*
G01X31633Y12065D01*
G01X32633Y10795D02*
G01X31633Y10795D01*
G01X17649Y13331D02*
G01X16649Y13331D01*
G01X17649Y12061D02*
G01X16649Y12061D01*
G01X17649Y10791D02*
G01X16649Y10791D01*
G01X17649Y39494D02*
G01X16649Y39494D01*
G01X17649Y38224D02*
G01X16649Y38224D01*
G01X17649Y36954D02*
G01X16649Y36954D01*
G01X32633Y39495D02*
G01X31633Y39495D01*
G01X32633Y38225D02*
G01X31633Y38225D01*
G01X32633Y36955D02*
G01X31633Y36955D01*
G54D40*
G01X196085Y78103D02*
G01X195585Y78103D01*
G01X196085Y80643D02*
G01X195585Y80643D01*
G54D41*
G01X252731Y69170D02*
G01X252731Y66970D01*
G01X256828Y72617D02*
G01X254628Y72617D01*
G01X259081Y66970D02*
G01X259081Y69170D01*
G54D16*
G01X87376Y71525D03*
G01X87376Y70125D03*
G01X91437Y71527D03*
G01X91437Y70128D03*
G54D23*
G01X178184Y95627D03*
G01X180470Y95627D03*
G54D24*
G01X182756Y95627D03*
G54D25*
G01X155449Y95248D03*
G01X152909Y95248D03*
G54D16*
G01X165097Y95147D03*
G01X165097Y93747D03*
G01X110490Y60803D03*
G01X110490Y62203D03*
G01X67566Y93877D03*
G01X67566Y92477D03*
G01X53596Y93874D03*
G01X53596Y92475D03*
G54D26*
G01X113287Y62226D03*
G54D27*
G01X113287Y64766D03*
G01X113287Y67306D03*
G01X113287Y69846D03*
G01X113287Y72386D03*
G54D28*
G01X81884Y91313D03*
G01X87883Y91313D03*
G01X81884Y95313D03*
G01X87883Y95313D03*
G01X71726Y91311D03*
G01X77725Y91311D03*
G01X71726Y95311D03*
G01X77725Y95311D03*
G01X57756Y91311D03*
G01X63755Y91311D03*
G01X57756Y95311D03*
G01X63755Y95311D03*
G54D25*
G01X244093Y62992D03*
G01X233933Y62992D03*
G01X218187Y68578D03*
G01X218187Y58418D03*
G01X219965Y93470D03*
G01X230125Y93470D03*
G54D29*
G01X226315Y88644D03*
G01X218695Y88644D03*
G54D30*
G01X195834Y83182D03*
G54D31*
G01X195833Y71628D03*
G01X195833Y63881D03*
G54D28*
G01X217681Y21244D03*
G01X220241Y20614D03*
G01X222210Y18864D03*
G01X223142Y16405D03*
G01X222822Y13794D03*
G01X221331Y11625D03*
G01X219002Y10406D03*
G01X216360Y10406D03*
G01X214031Y11625D03*
G01X212540Y13794D03*
G01X212220Y16405D03*
G01X213152Y18864D03*
G01X215121Y20614D03*
G01X189681Y21244D03*
G01X192241Y20614D03*
G01X194210Y18864D03*
G01X195142Y16405D03*
G01X194822Y13794D03*
G01X193331Y11625D03*
G01X191002Y10406D03*
G01X188360Y10406D03*
G01X186031Y11625D03*
G01X184540Y13794D03*
G01X184220Y16405D03*
G01X185152Y18864D03*
G01X187121Y20614D03*
G01X161681Y21244D03*
G01X164241Y20614D03*
G01X166210Y18864D03*
G01X167142Y16405D03*
G01X166822Y13794D03*
G01X165331Y11625D03*
G01X163002Y10406D03*
G01X160360Y10406D03*
G01X158031Y11625D03*
G01X156540Y13794D03*
G01X156220Y16405D03*
G01X157152Y18864D03*
G01X159121Y20614D03*
G01X133681Y21244D03*
G01X136242Y20614D03*
G01X138210Y18864D03*
G01X139142Y16405D03*
G01X138822Y13794D03*
G01X137331Y11625D03*
G01X135002Y10406D03*
G01X132360Y10406D03*
G01X130031Y11625D03*
G01X128540Y13794D03*
G01X128220Y16405D03*
G01X129152Y18864D03*
G01X131121Y20614D03*
G01X77681Y21244D03*
G01X80242Y20614D03*
G01X82210Y18864D03*
G01X83142Y16405D03*
G01X82822Y13794D03*
G01X81331Y11625D03*
G01X79002Y10406D03*
G01X76361Y10406D03*
G01X74031Y11625D03*
G01X72540Y13794D03*
G01X72220Y16405D03*
G01X73153Y18864D03*
G01X75121Y20614D03*
G01X49681Y21244D03*
G01X52242Y20614D03*
G01X54210Y18864D03*
G01X55142Y16405D03*
G01X54822Y13794D03*
G01X53331Y11625D03*
G01X51002Y10406D03*
G01X48361Y10406D03*
G01X46031Y11625D03*
G01X44540Y13794D03*
G01X44220Y16405D03*
G01X45153Y18864D03*
G01X47121Y20614D03*
G01X105681Y21244D03*
G01X108242Y20614D03*
G01X110210Y18864D03*
G01X111142Y16405D03*
G01X110822Y13794D03*
G01X109331Y11625D03*
G01X107002Y10406D03*
G01X104360Y10406D03*
G01X102031Y11625D03*
G01X100540Y13794D03*
G01X100220Y16405D03*
G01X101152Y18864D03*
G01X103121Y20614D03*
G01X245681Y21244D03*
G01X248241Y20614D03*
G01X250210Y18864D03*
G01X251142Y16405D03*
G01X250822Y13794D03*
G01X249331Y11625D03*
G01X247002Y10406D03*
G01X244360Y10406D03*
G01X242031Y11625D03*
G01X240540Y13794D03*
G01X240220Y16405D03*
G01X241152Y18864D03*
G01X243121Y20614D03*
G54D32*
G01X236981Y69596D03*
G01X242061Y69596D03*
G01X221743Y78738D03*
G01X221743Y73658D03*
G54D28*
G01X207517Y64008D03*
G01X207517Y58928D03*
G54D15*
G01X249429Y93724D03*
G01X249429Y90224D03*
G54D32*
G01X240285Y90168D03*
G01X240285Y95248D03*
G54D28*
G01X226823Y63498D03*
G01X229363Y66038D03*
G01X226823Y68578D03*
G54D33*
G01X212851Y82296D03*
G01X204651Y82296D03*
G54D34*
G01X107190Y50543D03*
G54D28*
G01X104649Y50544D03*
G01X102109Y50544D03*
G54D34*
G01X98046Y50543D03*
G54D28*
G01X95505Y50546D03*
G01X92965Y50546D03*
G54D17*
G01X103226Y54860D03*
G01X104626Y54860D03*
G01X112370Y54860D03*
G01X113770Y54860D03*
G01X94082Y54860D03*
G01X95482Y54860D03*
G54D35*
G01X196345Y95246D03*
G01X196345Y90166D03*
G01X196345Y92706D03*
G54D28*
G01X260857Y81788D03*
G01X260857Y78740D03*
G01X260857Y84836D03*
G54D36*
G01X260857Y75184D03*
G01X260857Y88138D03*
G54D13*
G01X67565Y63498D03*
G01X67565Y66038D03*
G54D37*
G01X229108Y83566D03*
G01X229108Y81026D03*
G01X229108Y78486D03*
G01X229108Y75946D03*
G01X236728Y75946D03*
G01X236728Y78486D03*
G01X236728Y81026D03*
G01X236728Y83566D03*
G54D35*
G01X31498Y94486D03*
G01X31498Y91946D03*
G01X31498Y79246D03*
G01X31498Y76706D03*
G01X31498Y89406D03*
G01X31498Y86866D03*
G01X31498Y81786D03*
G01X31498Y84326D03*
G01X31498Y74166D03*
G01X31498Y71626D03*
G01X31498Y69086D03*
G01X31498Y66546D03*
G01X46738Y66546D03*
G01X46738Y69086D03*
G01X46738Y71626D03*
G01X46738Y74166D03*
G01X46738Y76706D03*
G01X46738Y79246D03*
G01X46738Y81786D03*
G01X46738Y84326D03*
G01X46738Y86866D03*
G01X46738Y89406D03*
G01X46738Y91946D03*
G01X46738Y94486D03*
G54D38*
G01X165606Y87377D03*
G01X163066Y87377D03*
G01X150366Y87377D03*
G01X147826Y87377D03*
G01X160526Y87377D03*
G01X157986Y87377D03*
G01X152906Y87377D03*
G01X155446Y87377D03*
G01X147826Y79757D03*
G01X150366Y79757D03*
G01X152906Y79757D03*
G01X155446Y79757D03*
G01X157986Y79757D03*
G01X160526Y79757D03*
G01X163066Y79757D03*
G01X165606Y79757D03*
G54D26*
G01X58421Y56131D03*
G54D27*
G01X66422Y56131D03*
G54D18*
G01X245237Y84075D03*
G01X242443Y84075D03*
G01X245237Y85853D03*
G01X242443Y85853D03*
G01X245237Y82297D03*
G01X242443Y82297D03*
G01X245239Y80516D03*
G01X242445Y80516D03*
G01X245237Y78741D03*
G01X242443Y78741D03*
G54D32*
G01X172721Y95248D03*
G01X172721Y90168D03*
G54D17*
G01X172366Y81278D03*
G01X170967Y81278D03*
G01X45313Y99058D03*
G01X46713Y99058D03*
G54D16*
G01X110234Y78893D03*
G01X110234Y77494D03*
G54D37*
G01X75186Y66037D03*
G01X75186Y63497D03*
G01X75186Y60957D03*
G01X75186Y58417D03*
G01X82806Y58417D03*
G01X82806Y60957D03*
G01X82806Y63497D03*
G01X82806Y66037D03*
G54D17*
G01X78079Y71372D03*
G01X79479Y71372D03*
G54D19*
G01X74729Y76730D03*
G01X73027Y76730D03*
G54D17*
G01X79147Y76708D03*
G01X77748Y76708D03*
G54D39*
G01X104902Y62228D03*
G01X104902Y64768D03*
G01X104902Y67308D03*
G01X104902Y69848D03*
G01X104902Y72388D03*
G01X104902Y74928D03*
G01X104902Y77468D03*
G01X104902Y80008D03*
G01X104902Y82548D03*
G01X104902Y85088D03*
G01X104902Y87628D03*
G01X104902Y90168D03*
G01X104902Y92708D03*
G01X104902Y95248D03*
G01X97282Y95248D03*
G01X97282Y92708D03*
G01X97282Y90168D03*
G01X97282Y87628D03*
G01X97282Y85088D03*
G01X97282Y82548D03*
G01X97282Y80008D03*
G01X97282Y77468D03*
G01X97282Y74928D03*
G01X97282Y72388D03*
G01X97282Y69848D03*
G01X97282Y67308D03*
G01X97282Y64768D03*
G01X97282Y62228D03*
G54D20*
G01X182123Y60957D03*
G01X180594Y60957D03*
G01X173921Y60960D03*
G01X172392Y60960D03*
G01X165722Y60960D03*
G01X164193Y60960D03*
G01X157736Y60960D03*
G01X156207Y60960D03*
G01X149608Y60960D03*
G01X148079Y60960D03*
G01X141480Y60960D03*
G01X139951Y60960D03*
G01X133355Y60957D03*
G01X131826Y60957D03*
G01X125224Y60960D03*
G01X123695Y60960D03*
G54D21*
G01X179580Y51562D03*
G01X179580Y50032D03*
G01X171411Y51562D03*
G01X171411Y50032D03*
G01X163248Y51562D03*
G01X163248Y50032D03*
G01X155082Y51562D03*
G01X155082Y50032D03*
G01X146918Y51562D03*
G01X146918Y50032D03*
G01X138755Y51562D03*
G01X138755Y50032D03*
G01X130591Y51562D03*
G01X130591Y50032D03*
G01X122428Y51562D03*
G01X122428Y50032D03*
G01X180596Y73152D03*
G01X180596Y71622D03*
G01X172466Y73154D03*
G01X172466Y71625D03*
G01X164338Y73154D03*
G01X164338Y71625D03*
G01X156464Y73154D03*
G01X156464Y71625D03*
G01X148336Y73154D03*
G01X148336Y71625D03*
G01X140208Y72900D03*
G01X140208Y71371D03*
G01X132080Y73154D03*
G01X132080Y71625D03*
G01X123954Y73152D03*
G01X123954Y71622D03*
G01X248160Y26154D03*
G01X248160Y27683D03*
G01X243141Y25900D03*
G01X243141Y27429D03*
G01X220220Y25902D03*
G01X220220Y27432D03*
G01X215140Y25905D03*
G01X215140Y27434D03*
G01X192280Y25902D03*
G01X192280Y27432D03*
G01X187200Y25900D03*
G01X187200Y27429D03*
G01X164084Y25902D03*
G01X164084Y27432D03*
G01X159067Y25900D03*
G01X159067Y27429D03*
G01X136146Y25902D03*
G01X136146Y27432D03*
G01X131127Y25900D03*
G01X131127Y27429D03*
G01X108204Y25902D03*
G01X108204Y27432D03*
G01X103187Y25900D03*
G01X103187Y27429D03*
G01X75186Y25905D03*
G01X75186Y27434D03*
G01X52326Y25902D03*
G01X52326Y27432D03*
G01X47246Y25902D03*
G01X47246Y27432D03*
G54D20*
G01X12192Y46730D03*
G01X13721Y46730D03*
G01X27178Y46476D03*
G01X28707Y46476D03*
G01X12192Y55115D03*
G01X13721Y55115D03*
G01X27178Y54861D03*
G01X28707Y54861D03*
G01X27178Y29461D03*
G01X28707Y29461D03*
G01X12189Y29464D03*
G01X13718Y29464D03*
G01X27178Y20320D03*
G01X28707Y20320D03*
G01X12192Y20215D03*
G01X13721Y20215D03*
G01X27178Y11986D03*
G01X28707Y11986D03*
G01X12192Y12034D03*
G01X13721Y12034D03*
G01X12189Y38354D03*
G01X13718Y38354D03*
G01X27178Y38351D03*
G01X28707Y38351D03*
G54D21*
G01X80266Y25902D03*
G01X80266Y27432D03*
G54D20*
G01X182120Y62992D03*
G01X180591Y62992D03*
G01X173918Y62992D03*
G01X172389Y62992D03*
G01X165719Y62992D03*
G01X164190Y62992D03*
G01X157736Y62992D03*
G01X156207Y62992D03*
G01X149611Y62989D03*
G01X148082Y62989D03*
G01X141480Y62992D03*
G01X139951Y62992D03*
G01X133352Y62992D03*
G01X131823Y62992D03*
G01X125227Y62989D03*
G01X123698Y62989D03*
G01X201744Y15740D03*
G01X200215Y15740D03*
G01X173804Y15488D03*
G01X172275Y15488D03*
G01X61790Y15742D03*
G01X60261Y15742D03*
G01X145613Y15483D03*
G01X144084Y15483D03*
G01X117604Y15748D03*
G01X116075Y15748D03*
G01X89918Y15748D03*
G01X88389Y15748D03*
G01X257812Y15240D03*
G01X256282Y15240D03*
G01X229679Y15488D03*
G01X228150Y15488D03*
G54D22*
G01X220130Y14142D03*
G01X220130Y15742D03*
G01X220130Y17342D03*
G01X215230Y17342D03*
G01X215230Y15742D03*
G01X215230Y14142D03*
G01X248131Y14142D03*
G01X248131Y15742D03*
G01X248131Y17342D03*
G01X243231Y17342D03*
G01X243231Y15742D03*
G01X243231Y14142D03*
G01X192132Y14142D03*
G01X192132Y15742D03*
G01X192132Y17342D03*
G01X187232Y17342D03*
G01X187232Y15742D03*
G01X187232Y14142D03*
G01X108131Y14142D03*
G01X108131Y15742D03*
G01X108131Y17342D03*
G01X103231Y17342D03*
G01X103231Y15742D03*
G01X103231Y14142D03*
G01X164131Y14142D03*
G01X164131Y15742D03*
G01X164131Y17342D03*
G01X159231Y17342D03*
G01X159231Y15742D03*
G01X159231Y14142D03*
G01X136130Y14142D03*
G01X136130Y15742D03*
G01X136130Y17342D03*
G01X131230Y17342D03*
G01X131230Y15742D03*
G01X131230Y14142D03*
G01X80130Y14142D03*
G01X80130Y15742D03*
G01X80130Y17342D03*
G01X75230Y17342D03*
G01X75230Y15742D03*
G01X75230Y14142D03*
G01X52132Y14142D03*
G01X52132Y15742D03*
G01X52132Y17342D03*
G01X47232Y17342D03*
G01X47232Y15742D03*
G01X47232Y14142D03*
G54D20*
G01X257812Y13716D03*
G01X256282Y13716D03*
G01X257812Y16764D03*
G01X256282Y16764D03*
G01X229620Y17016D03*
G01X228090Y17016D03*
G01X229615Y13970D03*
G01X228086Y13970D03*
G01X201680Y14222D03*
G01X200151Y14222D03*
G01X201678Y17272D03*
G01X200148Y17272D03*
G01X173738Y17018D03*
G01X172209Y17018D03*
G01X173738Y13970D03*
G01X172209Y13970D03*
G01X145546Y13968D03*
G01X144017Y13968D03*
G01X145544Y17018D03*
G01X144015Y17018D03*
G01X117604Y17279D03*
G01X116075Y17279D03*
G01X117604Y14231D03*
G01X116075Y14231D03*
G01X89918Y14224D03*
G01X88389Y14224D03*
G01X89918Y17272D03*
G01X88389Y17272D03*
G01X61726Y14222D03*
G01X60197Y14222D03*
G01X61724Y17272D03*
G01X60195Y17272D03*
G54D34*
G01X116332Y50546D03*
G54D28*
G01X113791Y50546D03*
G01X111251Y50546D03*
G54D15*
G01X254001Y58672D03*
G01X197102Y55373D03*
M00*
M02*
